  0
SECTION
  2
BLOCKS
  0
ENDSEC
  0
SECTION
  2
ENTITIES
  0
LINE
  8
0
 10
116.045
 20
5.74471
 11
117
 21
6.16986
  0
LINE
  8
0
 10
117
 20
6.16986
 11
117.846
 21
6.78427
  0
LINE
  8
0
 10
117.846
 20
6.78427
 11
118.545
 21
7.56107
  0
LINE
  8
0
 10
118.545
 20
7.56107
 11
119.068
 21
8.46631
  0
LINE
  8
0
 10
119.068
 20
8.46631
 11
119.391
 21
9.46043
  0
LINE
  8
0
 10
119.391
 20
9.46043
 11
119.5
 21
10.5
  0
LINE
  8
0
 10
119.5
 20
10.5
 11
119.5
 21
129.3
  0
LINE
  8
0
 10
119.5
 20
129.3
 11
119.391
 21
130.34
  0
LINE
  8
0
 10
119.391
 20
130.34
 11
119.068
 21
131.334
  0
LINE
  8
0
 10
119.068
 20
131.334
 11
118.545
 21
132.239
  0
LINE
  8
0
 10
118.545
 20
132.239
 11
117.846
 21
133.016
  0
LINE
  8
0
 10
117.846
 20
133.016
 11
117
 21
133.63
  0
LINE
  8
0
 10
117
 20
133.63
 11
116.045
 21
134.055
  0
LINE
  8
0
 10
116.045
 20
134.055
 11
115.023
 21
134.273
  0
LINE
  8
0
 10
115.023
 20
134.273
 11
113.977
 21
134.273
  0
LINE
  8
0
 10
113.977
 20
134.273
 11
112.955
 21
134.055
  0
LINE
  8
0
 10
112.955
 20
134.055
 11
112
 21
133.63
  0
LINE
  8
0
 10
112
 20
133.63
 11
111.154
 21
133.016
  0
LINE
  8
0
 10
111.154
 20
133.016
 11
110.455
 21
132.239
  0
LINE
  8
0
 10
110.455
 20
132.239
 11
109.932
 21
131.334
  0
LINE
  8
0
 10
109.932
 20
131.334
 11
109.609
 21
130.34
  0
LINE
  8
0
 10
109.609
 20
130.34
 11
109.5
 21
129.3
  0
LINE
  8
0
 10
109.5
 20
129.3
 11
109.5
 21
125.3
  0
LINE
  8
0
 10
109.5
 20
125.3
 11
10
 21
125.3
  0
LINE
  8
0
 10
10
 20
125.3
 11
10
 21
129.3
  0
LINE
  8
0
 10
10
 20
129.3
 11
9.89073
 21
130.34
  0
LINE
  8
0
 10
9.89073
 20
130.34
 11
9.56772
 21
131.334
  0
LINE
  8
0
 10
9.56772
 20
131.334
 11
9.04507
 21
132.239
  0
LINE
  8
0
 10
9.04507
 20
132.239
 11
8.34564
 21
133.016
  0
LINE
  8
0
 10
8.34564
 20
133.016
 11
7.5
 21
133.63
  0
LINE
  8
0
 10
7.5
 20
133.63
 11
6.54507
 21
134.055
  0
LINE
  8
0
 10
6.54507
 20
134.055
 11
5.52263
 21
134.273
  0
LINE
  8
0
 10
5.52263
 20
134.273
 11
4.47736
 21
134.273
  0
LINE
  8
0
 10
4.47736
 20
134.273
 11
3.45491
 21
134.055
  0
LINE
  8
0
 10
3.45491
 20
134.055
 11
2.5
 21
133.63
  0
LINE
  8
0
 10
2.5
 20
133.63
 11
1.65434
 21
133.016
  0
LINE
  8
0
 10
1.65434
 20
133.016
 11
0.95491
 21
132.239
  0
LINE
  8
0
 10
0.95491
 20
132.239
 11
0.432266
 21
131.334
  0
LINE
  8
0
 10
0.432266
 20
131.334
 11
0.109253
 21
130.34
  0
LINE
  8
0
 10
0.109253
 20
130.34
 11
0
 21
129.3
  0
LINE
  8
0
 10
0
 20
129.3
 11
0
 21
122.3
  0
LINE
  8
0
 10
0
 20
122.3
 11
49.5
 21
122.3
  0
LINE
  8
0
 10
49.5
 20
122.3
 11
49.5
 21
117.5
  0
LINE
  8
0
 10
49.5
 20
117.5
 11
0
 21
117.5
  0
LINE
  8
0
 10
0
 20
117.5
 11
0
 21
114.5
  0
LINE
  8
0
 10
0
 20
114.5
 11
79.4386
 21
114.5
  0
LINE
  8
0
 10
79.4386
 20
114.5
 11
109.5
 21
84.4386
  0
LINE
  8
0
 10
109.5
 20
84.4386
 11
109.5
 21
10.5
  0
LINE
  8
0
 10
109.5
 20
10.5
 11
109.609
 21
9.46043
  0
LINE
  8
0
 10
109.609
 20
9.46043
 11
109.932
 21
8.46631
  0
LINE
  8
0
 10
109.932
 20
8.46631
 11
110.455
 21
7.56107
  0
LINE
  8
0
 10
110.455
 20
7.56107
 11
111.154
 21
6.78427
  0
LINE
  8
0
 10
111.154
 20
6.78427
 11
112
 21
6.16986
  0
LINE
  8
0
 10
112
 20
6.16986
 11
112.955
 21
5.74471
  0
LINE
  8
0
 10
112.955
 20
5.74471
 11
113.977
 21
5.52739
  0
LINE
  8
0
 10
113.977
 20
5.52739
 11
115.023
 21
5.52739
  0
LINE
  8
0
 10
115.023
 20
5.52739
 11
116.045
 21
5.74471
  0
LINE
  8
0
 10
81.1
 20
117.5
 11
81.1
 21
120.1
  0
LINE
  8
0
 10
81.1
 20
120.1
 11
109.5
 21
120.1
  0
LINE
  8
0
 10
109.5
 20
120.1
 11
109.5
 21
117.5
  0
LINE
  8
0
 10
109.5
 20
117.5
 11
81.1
 21
117.5
  0
LINE
  8
0
 10
93.5614
 20
114.5
 11
109.5
 21
114.5
  0
LINE
  8
0
 10
109.5
 20
114.5
 11
109.5
 21
98.5614
  0
LINE
  8
0
 10
109.5
 20
98.5614
 11
93.5614
 21
114.5
  0
LINE
  8
0
 10
113.543
 20
98.1903
 11
112.732
 21
98.7322
  0
LINE
  8
0
 10
112.732
 20
98.7322
 11
112.19
 21
99.5433
  0
LINE
  8
0
 10
112.19
 20
99.5433
 11
112
 21
100.5
  0
LINE
  8
0
 10
112
 20
100.5
 11
112.19
 21
101.457
  0
LINE
  8
0
 10
112.19
 20
101.457
 11
112.732
 21
102.268
  0
LINE
  8
0
 10
112.732
 20
102.268
 11
113.543
 21
102.81
  0
LINE
  8
0
 10
113.543
 20
102.81
 11
114.5
 21
103
  0
LINE
  8
0
 10
114.5
 20
103
 11
115.457
 21
102.81
  0
LINE
  8
0
 10
115.457
 20
102.81
 11
116.268
 21
102.268
  0
LINE
  8
0
 10
116.268
 20
102.268
 11
116.81
 21
101.457
  0
LINE
  8
0
 10
116.81
 20
101.457
 11
117
 21
100.5
  0
LINE
  8
0
 10
117
 20
100.5
 11
116.81
 21
99.5433
  0
LINE
  8
0
 10
116.81
 20
99.5433
 11
116.268
 21
98.7322
  0
LINE
  8
0
 10
116.268
 20
98.7322
 11
115.457
 21
98.1903
  0
LINE
  8
0
 10
115.457
 20
98.1903
 11
114.5
 21
98
  0
LINE
  8
0
 10
114.5
 20
98
 11
113.543
 21
98.1903
  0
LINE
  8
0
 10
113.835
 20
80.5446
 11
113.154
 21
81.135
  0
LINE
  8
0
 10
113.154
 20
81.135
 11
112.9
 21
82
  0
LINE
  8
0
 10
112.9
 20
82
 11
113.154
 21
82.865
  0
LINE
  8
0
 10
113.154
 20
82.865
 11
113.835
 21
83.4554
  0
LINE
  8
0
 10
113.835
 20
83.4554
 11
114.728
 21
83.5837
  0
LINE
  8
0
 10
114.728
 20
83.5837
 11
115.548
 21
83.2092
  0
LINE
  8
0
 10
115.548
 20
83.2092
 11
116.035
 21
82.4508
  0
LINE
  8
0
 10
116.035
 20
82.4508
 11
116.035
 21
81.5492
  0
LINE
  8
0
 10
116.035
 20
81.5492
 11
115.548
 21
80.7908
  0
LINE
  8
0
 10
115.548
 20
80.7908
 11
114.728
 21
80.4163
  0
LINE
  8
0
 10
114.728
 20
80.4163
 11
113.835
 21
80.5446
  0
LINE
  8
0
 10
113.2
 20
32.8
 11
113.2
 21
78.2
  0
LINE
  8
0
 10
113.2
 20
78.2
 11
115.8
 21
78.2
  0
LINE
  8
0
 10
115.8
 20
78.2
 11
115.8
 21
32.8
  0
LINE
  8
0
 10
115.8
 20
32.8
 11
113.2
 21
32.8
  0
LINE
  8
0
 10
113.835
 20
27.5446
 11
113.154
 21
28.135
  0
LINE
  8
0
 10
113.154
 20
28.135
 11
112.9
 21
29
  0
LINE
  8
0
 10
112.9
 20
29
 11
113.154
 21
29.865
  0
LINE
  8
0
 10
113.154
 20
29.865
 11
113.835
 21
30.4554
  0
LINE
  8
0
 10
113.835
 20
30.4554
 11
114.728
 21
30.5837
  0
LINE
  8
0
 10
114.728
 20
30.5837
 11
115.548
 21
30.2092
  0
LINE
  8
0
 10
115.548
 20
30.2092
 11
116.035
 21
29.4508
  0
LINE
  8
0
 10
116.035
 20
29.4508
 11
116.035
 21
28.5492
  0
LINE
  8
0
 10
116.035
 20
28.5492
 11
115.548
 21
27.7908
  0
LINE
  8
0
 10
115.548
 20
27.7908
 11
114.728
 21
27.4163
  0
LINE
  8
0
 10
114.728
 20
27.4163
 11
113.835
 21
27.5446
  0
LINE
  8
0
 10
113.543
 20
8.19029
 11
112.732
 21
8.73222
  0
LINE
  8
0
 10
112.732
 20
8.73222
 11
112.19
 21
9.54329
  0
LINE
  8
0
 10
112.19
 20
9.54329
 11
112
 21
10.5
  0
LINE
  8
0
 10
112
 20
10.5
 11
112.19
 21
11.4567
  0
LINE
  8
0
 10
112.19
 20
11.4567
 11
112.732
 21
12.2678
  0
LINE
  8
0
 10
112.732
 20
12.2678
 11
113.543
 21
12.8097
  0
LINE
  8
0
 10
113.543
 20
12.8097
 11
114.5
 21
13
  0
LINE
  8
0
 10
114.5
 20
13
 11
115.457
 21
12.8097
  0
LINE
  8
0
 10
115.457
 20
12.8097
 11
116.268
 21
12.2678
  0
LINE
  8
0
 10
116.268
 20
12.2678
 11
116.81
 21
11.4567
  0
LINE
  8
0
 10
116.81
 20
11.4567
 11
117
 21
10.5
  0
LINE
  8
0
 10
117
 20
10.5
 11
116.81
 21
9.54329
  0
LINE
  8
0
 10
116.81
 20
9.54329
 11
116.268
 21
8.73222
  0
LINE
  8
0
 10
116.268
 20
8.73222
 11
115.457
 21
8.19029
  0
LINE
  8
0
 10
115.457
 20
8.19029
 11
114.5
 21
8
  0
LINE
  8
0
 10
114.5
 20
8
 11
113.543
 21
8.19029
  0
LINE
  8
0
 10
154.045
 20
-4.75528
 11
155
 21
-4.33012
  0
LINE
  8
0
 10
155
 20
-4.33012
 11
155.846
 21
-3.71571
  0
LINE
  8
0
 10
155.846
 20
-3.71571
 11
156.545
 21
-2.93892
  0
LINE
  8
0
 10
156.545
 20
-2.93892
 11
157.068
 21
-2.03368
  0
LINE
  8
0
 10
157.068
 20
-2.03368
 11
157.391
 21
-1.03955
  0
LINE
  8
0
 10
157.391
 20
-1.03955
 11
157.5
 21
0
  0
LINE
  8
0
 10
157.5
 20
0
 11
157.5
 21
112.5
  0
LINE
  8
0
 10
157.5
 20
112.5
 11
157.391
 21
113.54
  0
LINE
  8
0
 10
157.391
 20
113.54
 11
157.068
 21
114.534
  0
LINE
  8
0
 10
157.068
 20
114.534
 11
156.545
 21
115.439
  0
LINE
  8
0
 10
156.545
 20
115.439
 11
155.846
 21
116.216
  0
LINE
  8
0
 10
155.846
 20
116.216
 11
155
 21
116.83
  0
LINE
  8
0
 10
155
 20
116.83
 11
154.045
 21
117.255
  0
LINE
  8
0
 10
154.045
 20
117.255
 11
153.023
 21
117.473
  0
LINE
  8
0
 10
153.023
 20
117.473
 11
151.977
 21
117.473
  0
LINE
  8
0
 10
151.977
 20
117.473
 11
150.955
 21
117.255
  0
LINE
  8
0
 10
150.955
 20
117.255
 11
150
 21
116.83
  0
LINE
  8
0
 10
150
 20
116.83
 11
149.154
 21
116.216
  0
LINE
  8
0
 10
149.154
 20
116.216
 11
148.455
 21
115.439
  0
LINE
  8
0
 10
148.455
 20
115.439
 11
147.932
 21
114.534
  0
LINE
  8
0
 10
147.932
 20
114.534
 11
147.609
 21
113.54
  0
LINE
  8
0
 10
147.609
 20
113.54
 11
147.5
 21
112.5
  0
LINE
  8
0
 10
147.5
 20
112.5
 11
147.5
 21
0
  0
LINE
  8
0
 10
147.5
 20
0
 11
147.609
 21
-1.03955
  0
LINE
  8
0
 10
147.609
 20
-1.03955
 11
147.932
 21
-2.03368
  0
LINE
  8
0
 10
147.932
 20
-2.03368
 11
148.455
 21
-2.93892
  0
LINE
  8
0
 10
148.455
 20
-2.93892
 11
149.154
 21
-3.71571
  0
LINE
  8
0
 10
149.154
 20
-3.71571
 11
150
 21
-4.33012
  0
LINE
  8
0
 10
150
 20
-4.33012
 11
150.955
 21
-4.75528
  0
LINE
  8
0
 10
150.955
 20
-4.75528
 11
151.977
 21
-4.9726
  0
LINE
  8
0
 10
151.977
 20
-4.9726
 11
153.023
 21
-4.9726
  0
LINE
  8
0
 10
153.023
 20
-4.9726
 11
154.045
 21
-4.75528
  0
LINE
  8
0
 10
151.543
 20
110.19
 11
150.732
 21
110.732
  0
LINE
  8
0
 10
150.732
 20
110.732
 11
150.19
 21
111.543
  0
LINE
  8
0
 10
150.19
 20
111.543
 11
150
 21
112.5
  0
LINE
  8
0
 10
150
 20
112.5
 11
150.19
 21
113.457
  0
LINE
  8
0
 10
150.19
 20
113.457
 11
150.732
 21
114.268
  0
LINE
  8
0
 10
150.732
 20
114.268
 11
151.543
 21
114.81
  0
LINE
  8
0
 10
151.543
 20
114.81
 11
152.5
 21
115
  0
LINE
  8
0
 10
152.5
 20
115
 11
153.457
 21
114.81
  0
LINE
  8
0
 10
153.457
 20
114.81
 11
154.268
 21
114.268
  0
LINE
  8
0
 10
154.268
 20
114.268
 11
154.81
 21
113.457
  0
LINE
  8
0
 10
154.81
 20
113.457
 11
155
 21
112.5
  0
LINE
  8
0
 10
155
 20
112.5
 11
154.81
 21
111.543
  0
LINE
  8
0
 10
154.81
 20
111.543
 11
154.268
 21
110.732
  0
LINE
  8
0
 10
154.268
 20
110.732
 11
153.457
 21
110.19
  0
LINE
  8
0
 10
153.457
 20
110.19
 11
152.5
 21
110
  0
LINE
  8
0
 10
152.5
 20
110
 11
151.543
 21
110.19
  0
LINE
  8
0
 10
151.543
 20
-2.30969
 11
150.732
 21
-1.76776
  0
LINE
  8
0
 10
150.732
 20
-1.76776
 11
150.19
 21
-0.956696
  0
LINE
  8
0
 10
150.19
 20
-0.956696
 11
150
 21
0
  0
LINE
  8
0
 10
150
 20
0
 11
150.19
 21
0.956696
  0
LINE
  8
0
 10
150.19
 20
0.956696
 11
150.732
 21
1.76776
  0
LINE
  8
0
 10
150.732
 20
1.76776
 11
151.543
 21
2.30969
  0
LINE
  8
0
 10
151.543
 20
2.30969
 11
152.5
 21
2.5
  0
LINE
  8
0
 10
152.5
 20
2.5
 11
153.457
 21
2.30969
  0
LINE
  8
0
 10
153.457
 20
2.30969
 11
154.268
 21
1.76776
  0
LINE
  8
0
 10
154.268
 20
1.76776
 11
154.81
 21
0.956696
  0
LINE
  8
0
 10
154.81
 20
0.956696
 11
155
 21
0
  0
LINE
  8
0
 10
155
 20
0
 11
154.81
 21
-0.956696
  0
LINE
  8
0
 10
154.81
 20
-0.956696
 11
154.268
 21
-1.76776
  0
LINE
  8
0
 10
154.268
 20
-1.76776
 11
153.457
 21
-2.30969
  0
LINE
  8
0
 10
153.457
 20
-2.30969
 11
152.5
 21
-2.5
  0
LINE
  8
0
 10
152.5
 20
-2.5
 11
151.543
 21
-2.30969
  0
LINE
  8
0
 10
129.045
 20
-4.75528
 11
130
 21
-4.33012
  0
LINE
  8
0
 10
130
 20
-4.33012
 11
130.846
 21
-3.71571
  0
LINE
  8
0
 10
130.846
 20
-3.71571
 11
131.545
 21
-2.93892
  0
LINE
  8
0
 10
131.545
 20
-2.93892
 11
132.068
 21
-2.03368
  0
LINE
  8
0
 10
132.068
 20
-2.03368
 11
132.391
 21
-1.03955
  0
LINE
  8
0
 10
132.391
 20
-1.03955
 11
132.5
 21
0
  0
LINE
  8
0
 10
132.5
 20
0
 11
132.5
 21
112.5
  0
LINE
  8
0
 10
132.5
 20
112.5
 11
132.391
 21
113.54
  0
LINE
  8
0
 10
132.391
 20
113.54
 11
132.068
 21
114.534
  0
LINE
  8
0
 10
132.068
 20
114.534
 11
131.545
 21
115.439
  0
LINE
  8
0
 10
131.545
 20
115.439
 11
130.846
 21
116.216
  0
LINE
  8
0
 10
130.846
 20
116.216
 11
130
 21
116.83
  0
LINE
  8
0
 10
130
 20
116.83
 11
129.045
 21
117.255
  0
LINE
  8
0
 10
129.045
 20
117.255
 11
128.023
 21
117.473
  0
LINE
  8
0
 10
128.023
 20
117.473
 11
126.977
 21
117.473
  0
LINE
  8
0
 10
126.977
 20
117.473
 11
125.955
 21
117.255
  0
LINE
  8
0
 10
125.955
 20
117.255
 11
125
 21
116.83
  0
LINE
  8
0
 10
125
 20
116.83
 11
124.154
 21
116.216
  0
LINE
  8
0
 10
124.154
 20
116.216
 11
123.455
 21
115.439
  0
LINE
  8
0
 10
123.455
 20
115.439
 11
122.932
 21
114.534
  0
LINE
  8
0
 10
122.932
 20
114.534
 11
122.609
 21
113.54
  0
LINE
  8
0
 10
122.609
 20
113.54
 11
122.5
 21
112.5
  0
LINE
  8
0
 10
122.5
 20
112.5
 11
122.5
 21
0
  0
LINE
  8
0
 10
122.5
 20
0
 11
122.609
 21
-1.03955
  0
LINE
  8
0
 10
122.609
 20
-1.03955
 11
122.932
 21
-2.03368
  0
LINE
  8
0
 10
122.932
 20
-2.03368
 11
123.455
 21
-2.93892
  0
LINE
  8
0
 10
123.455
 20
-2.93892
 11
124.154
 21
-3.71571
  0
LINE
  8
0
 10
124.154
 20
-3.71571
 11
125
 21
-4.33012
  0
LINE
  8
0
 10
125
 20
-4.33012
 11
125.955
 21
-4.75528
  0
LINE
  8
0
 10
125.955
 20
-4.75528
 11
126.977
 21
-4.9726
  0
LINE
  8
0
 10
126.977
 20
-4.9726
 11
128.023
 21
-4.9726
  0
LINE
  8
0
 10
128.023
 20
-4.9726
 11
129.045
 21
-4.75528
  0
LINE
  8
0
 10
126.543
 20
110.19
 11
125.732
 21
110.732
  0
LINE
  8
0
 10
125.732
 20
110.732
 11
125.19
 21
111.543
  0
LINE
  8
0
 10
125.19
 20
111.543
 11
125
 21
112.5
  0
LINE
  8
0
 10
125
 20
112.5
 11
125.19
 21
113.457
  0
LINE
  8
0
 10
125.19
 20
113.457
 11
125.732
 21
114.268
  0
LINE
  8
0
 10
125.732
 20
114.268
 11
126.543
 21
114.81
  0
LINE
  8
0
 10
126.543
 20
114.81
 11
127.5
 21
115
  0
LINE
  8
0
 10
127.5
 20
115
 11
128.457
 21
114.81
  0
LINE
  8
0
 10
128.457
 20
114.81
 11
129.268
 21
114.268
  0
LINE
  8
0
 10
129.268
 20
114.268
 11
129.81
 21
113.457
  0
LINE
  8
0
 10
129.81
 20
113.457
 11
130
 21
112.5
  0
LINE
  8
0
 10
130
 20
112.5
 11
129.81
 21
111.543
  0
LINE
  8
0
 10
129.81
 20
111.543
 11
129.268
 21
110.732
  0
LINE
  8
0
 10
129.268
 20
110.732
 11
128.457
 21
110.19
  0
LINE
  8
0
 10
128.457
 20
110.19
 11
127.5
 21
110
  0
LINE
  8
0
 10
127.5
 20
110
 11
126.543
 21
110.19
  0
LINE
  8
0
 10
126.543
 20
-2.30969
 11
125.732
 21
-1.76776
  0
LINE
  8
0
 10
125.732
 20
-1.76776
 11
125.19
 21
-0.956696
  0
LINE
  8
0
 10
125.19
 20
-0.956696
 11
125
 21
0
  0
LINE
  8
0
 10
125
 20
0
 11
125.19
 21
0.956696
  0
LINE
  8
0
 10
125.19
 20
0.956696
 11
125.732
 21
1.76776
  0
LINE
  8
0
 10
125.732
 20
1.76776
 11
126.543
 21
2.30969
  0
LINE
  8
0
 10
126.543
 20
2.30969
 11
127.5
 21
2.5
  0
LINE
  8
0
 10
127.5
 20
2.5
 11
128.457
 21
2.30969
  0
LINE
  8
0
 10
128.457
 20
2.30969
 11
129.268
 21
1.76776
  0
LINE
  8
0
 10
129.268
 20
1.76776
 11
129.81
 21
0.956696
  0
LINE
  8
0
 10
129.81
 20
0.956696
 11
130
 21
0
  0
LINE
  8
0
 10
130
 20
0
 11
129.81
 21
-0.956696
  0
LINE
  8
0
 10
129.81
 20
-0.956696
 11
129.268
 21
-1.76776
  0
LINE
  8
0
 10
129.268
 20
-1.76776
 11
128.457
 21
-2.30969
  0
LINE
  8
0
 10
128.457
 20
-2.30969
 11
127.5
 21
-2.5
  0
LINE
  8
0
 10
127.5
 20
-2.5
 11
126.543
 21
-2.30969
  0
LINE
  8
0
 10
141.545
 20
-4.75528
 11
142.5
 21
-4.33012
  0
LINE
  8
0
 10
142.5
 20
-4.33012
 11
143.346
 21
-3.71571
  0
LINE
  8
0
 10
143.346
 20
-3.71571
 11
144.045
 21
-2.93892
  0
LINE
  8
0
 10
144.045
 20
-2.93892
 11
144.568
 21
-2.03368
  0
LINE
  8
0
 10
144.568
 20
-2.03368
 11
144.891
 21
-1.03955
  0
LINE
  8
0
 10
144.891
 20
-1.03955
 11
145
 21
0
  0
LINE
  8
0
 10
145
 20
0
 11
145
 21
112.5
  0
LINE
  8
0
 10
145
 20
112.5
 11
144.891
 21
113.54
  0
LINE
  8
0
 10
144.891
 20
113.54
 11
144.568
 21
114.534
  0
LINE
  8
0
 10
144.568
 20
114.534
 11
144.045
 21
115.439
  0
LINE
  8
0
 10
144.045
 20
115.439
 11
143.346
 21
116.216
  0
LINE
  8
0
 10
143.346
 20
116.216
 11
142.5
 21
116.83
  0
LINE
  8
0
 10
142.5
 20
116.83
 11
141.545
 21
117.255
  0
LINE
  8
0
 10
141.545
 20
117.255
 11
140.523
 21
117.473
  0
LINE
  8
0
 10
140.523
 20
117.473
 11
139.477
 21
117.473
  0
LINE
  8
0
 10
139.477
 20
117.473
 11
138.455
 21
117.255
  0
LINE
  8
0
 10
138.455
 20
117.255
 11
137.5
 21
116.83
  0
LINE
  8
0
 10
137.5
 20
116.83
 11
136.654
 21
116.216
  0
LINE
  8
0
 10
136.654
 20
116.216
 11
135.955
 21
115.439
  0
LINE
  8
0
 10
135.955
 20
115.439
 11
135.432
 21
114.534
  0
LINE
  8
0
 10
135.432
 20
114.534
 11
135.109
 21
113.54
  0
LINE
  8
0
 10
135.109
 20
113.54
 11
135
 21
112.5
  0
LINE
  8
0
 10
135
 20
112.5
 11
135
 21
0
  0
LINE
  8
0
 10
135
 20
0
 11
135.109
 21
-1.03955
  0
LINE
  8
0
 10
135.109
 20
-1.03955
 11
135.432
 21
-2.03368
  0
LINE
  8
0
 10
135.432
 20
-2.03368
 11
135.955
 21
-2.93892
  0
LINE
  8
0
 10
135.955
 20
-2.93892
 11
136.654
 21
-3.71571
  0
LINE
  8
0
 10
136.654
 20
-3.71571
 11
137.5
 21
-4.33012
  0
LINE
  8
0
 10
137.5
 20
-4.33012
 11
138.455
 21
-4.75528
  0
LINE
  8
0
 10
138.455
 20
-4.75528
 11
139.477
 21
-4.9726
  0
LINE
  8
0
 10
139.477
 20
-4.9726
 11
140.523
 21
-4.9726
  0
LINE
  8
0
 10
140.523
 20
-4.9726
 11
141.545
 21
-4.75528
  0
LINE
  8
0
 10
139.043
 20
110.19
 11
138.232
 21
110.732
  0
LINE
  8
0
 10
138.232
 20
110.732
 11
137.69
 21
111.543
  0
LINE
  8
0
 10
137.69
 20
111.543
 11
137.5
 21
112.5
  0
LINE
  8
0
 10
137.5
 20
112.5
 11
137.69
 21
113.457
  0
LINE
  8
0
 10
137.69
 20
113.457
 11
138.232
 21
114.268
  0
LINE
  8
0
 10
138.232
 20
114.268
 11
139.043
 21
114.81
  0
LINE
  8
0
 10
139.043
 20
114.81
 11
140
 21
115
  0
LINE
  8
0
 10
140
 20
115
 11
140.957
 21
114.81
  0
LINE
  8
0
 10
140.957
 20
114.81
 11
141.768
 21
114.268
  0
LINE
  8
0
 10
141.768
 20
114.268
 11
142.31
 21
113.457
  0
LINE
  8
0
 10
142.31
 20
113.457
 11
142.5
 21
112.5
  0
LINE
  8
0
 10
142.5
 20
112.5
 11
142.31
 21
111.543
  0
LINE
  8
0
 10
142.31
 20
111.543
 11
141.768
 21
110.732
  0
LINE
  8
0
 10
141.768
 20
110.732
 11
140.957
 21
110.19
  0
LINE
  8
0
 10
140.957
 20
110.19
 11
140
 21
110
  0
LINE
  8
0
 10
140
 20
110
 11
139.043
 21
110.19
  0
LINE
  8
0
 10
139.043
 20
-2.30969
 11
138.232
 21
-1.76776
  0
LINE
  8
0
 10
138.232
 20
-1.76776
 11
137.69
 21
-0.956696
  0
LINE
  8
0
 10
137.69
 20
-0.956696
 11
137.5
 21
0
  0
LINE
  8
0
 10
137.5
 20
0
 11
137.69
 21
0.956696
  0
LINE
  8
0
 10
137.69
 20
0.956696
 11
138.232
 21
1.76776
  0
LINE
  8
0
 10
138.232
 20
1.76776
 11
139.043
 21
2.30969
  0
LINE
  8
0
 10
139.043
 20
2.30969
 11
140
 21
2.5
  0
LINE
  8
0
 10
140
 20
2.5
 11
140.957
 21
2.30969
  0
LINE
  8
0
 10
140.957
 20
2.30969
 11
141.768
 21
1.76776
  0
LINE
  8
0
 10
141.768
 20
1.76776
 11
142.31
 21
0.956696
  0
LINE
  8
0
 10
142.31
 20
0.956696
 11
142.5
 21
0
  0
LINE
  8
0
 10
142.5
 20
0
 11
142.31
 21
-0.956696
  0
LINE
  8
0
 10
142.31
 20
-0.956696
 11
141.768
 21
-1.76776
  0
LINE
  8
0
 10
141.768
 20
-1.76776
 11
140.957
 21
-2.30969
  0
LINE
  8
0
 10
140.957
 20
-2.30969
 11
140
 21
-2.5
  0
LINE
  8
0
 10
140
 20
-2.5
 11
139.043
 21
-2.30969
  0
LINE
  8
0
 10
166.545
 20
-4.75528
 11
167.5
 21
-4.33012
  0
LINE
  8
0
 10
167.5
 20
-4.33012
 11
168.346
 21
-3.71571
  0
LINE
  8
0
 10
168.346
 20
-3.71571
 11
169.045
 21
-2.93892
  0
LINE
  8
0
 10
169.045
 20
-2.93892
 11
169.568
 21
-2.03368
  0
LINE
  8
0
 10
169.568
 20
-2.03368
 11
169.891
 21
-1.03955
  0
LINE
  8
0
 10
169.891
 20
-1.03955
 11
170
 21
0
  0
LINE
  8
0
 10
170
 20
0
 11
170
 21
112.5
  0
LINE
  8
0
 10
170
 20
112.5
 11
169.891
 21
113.54
  0
LINE
  8
0
 10
169.891
 20
113.54
 11
169.568
 21
114.534
  0
LINE
  8
0
 10
169.568
 20
114.534
 11
169.045
 21
115.439
  0
LINE
  8
0
 10
169.045
 20
115.439
 11
168.346
 21
116.216
  0
LINE
  8
0
 10
168.346
 20
116.216
 11
167.5
 21
116.83
  0
LINE
  8
0
 10
167.5
 20
116.83
 11
166.545
 21
117.255
  0
LINE
  8
0
 10
166.545
 20
117.255
 11
165.523
 21
117.473
  0
LINE
  8
0
 10
165.523
 20
117.473
 11
164.477
 21
117.473
  0
LINE
  8
0
 10
164.477
 20
117.473
 11
163.455
 21
117.255
  0
LINE
  8
0
 10
163.455
 20
117.255
 11
162.5
 21
116.83
  0
LINE
  8
0
 10
162.5
 20
116.83
 11
161.654
 21
116.216
  0
LINE
  8
0
 10
161.654
 20
116.216
 11
160.955
 21
115.439
  0
LINE
  8
0
 10
160.955
 20
115.439
 11
160.432
 21
114.534
  0
LINE
  8
0
 10
160.432
 20
114.534
 11
160.109
 21
113.54
  0
LINE
  8
0
 10
160.109
 20
113.54
 11
160
 21
112.5
  0
LINE
  8
0
 10
160
 20
112.5
 11
160
 21
0
  0
LINE
  8
0
 10
160
 20
0
 11
160.109
 21
-1.03955
  0
LINE
  8
0
 10
160.109
 20
-1.03955
 11
160.432
 21
-2.03368
  0
LINE
  8
0
 10
160.432
 20
-2.03368
 11
160.955
 21
-2.93892
  0
LINE
  8
0
 10
160.955
 20
-2.93892
 11
161.654
 21
-3.71571
  0
LINE
  8
0
 10
161.654
 20
-3.71571
 11
162.5
 21
-4.33012
  0
LINE
  8
0
 10
162.5
 20
-4.33012
 11
163.455
 21
-4.75528
  0
LINE
  8
0
 10
163.455
 20
-4.75528
 11
164.477
 21
-4.9726
  0
LINE
  8
0
 10
164.477
 20
-4.9726
 11
165.523
 21
-4.9726
  0
LINE
  8
0
 10
165.523
 20
-4.9726
 11
166.545
 21
-4.75528
  0
LINE
  8
0
 10
164.043
 20
110.19
 11
163.232
 21
110.732
  0
LINE
  8
0
 10
163.232
 20
110.732
 11
162.69
 21
111.543
  0
LINE
  8
0
 10
162.69
 20
111.543
 11
162.5
 21
112.5
  0
LINE
  8
0
 10
162.5
 20
112.5
 11
162.69
 21
113.457
  0
LINE
  8
0
 10
162.69
 20
113.457
 11
163.232
 21
114.268
  0
LINE
  8
0
 10
163.232
 20
114.268
 11
164.043
 21
114.81
  0
LINE
  8
0
 10
164.043
 20
114.81
 11
165
 21
115
  0
LINE
  8
0
 10
165
 20
115
 11
165.957
 21
114.81
  0
LINE
  8
0
 10
165.957
 20
114.81
 11
166.768
 21
114.268
  0
LINE
  8
0
 10
166.768
 20
114.268
 11
167.31
 21
113.457
  0
LINE
  8
0
 10
167.31
 20
113.457
 11
167.5
 21
112.5
  0
LINE
  8
0
 10
167.5
 20
112.5
 11
167.31
 21
111.543
  0
LINE
  8
0
 10
167.31
 20
111.543
 11
166.768
 21
110.732
  0
LINE
  8
0
 10
166.768
 20
110.732
 11
165.957
 21
110.19
  0
LINE
  8
0
 10
165.957
 20
110.19
 11
165
 21
110
  0
LINE
  8
0
 10
165
 20
110
 11
164.043
 21
110.19
  0
LINE
  8
0
 10
164.043
 20
-2.30969
 11
163.232
 21
-1.76776
  0
LINE
  8
0
 10
163.232
 20
-1.76776
 11
162.69
 21
-0.956696
  0
LINE
  8
0
 10
162.69
 20
-0.956696
 11
162.5
 21
0
  0
LINE
  8
0
 10
162.5
 20
0
 11
162.69
 21
0.956696
  0
LINE
  8
0
 10
162.69
 20
0.956696
 11
163.232
 21
1.76776
  0
LINE
  8
0
 10
163.232
 20
1.76776
 11
164.043
 21
2.30969
  0
LINE
  8
0
 10
164.043
 20
2.30969
 11
165
 21
2.5
  0
LINE
  8
0
 10
165
 20
2.5
 11
165.957
 21
2.30969
  0
LINE
  8
0
 10
165.957
 20
2.30969
 11
166.768
 21
1.76776
  0
LINE
  8
0
 10
166.768
 20
1.76776
 11
167.31
 21
0.956696
  0
LINE
  8
0
 10
167.31
 20
0.956696
 11
167.5
 21
0
  0
LINE
  8
0
 10
167.5
 20
0
 11
167.31
 21
-0.956696
  0
LINE
  8
0
 10
167.31
 20
-0.956696
 11
166.768
 21
-1.76776
  0
LINE
  8
0
 10
166.768
 20
-1.76776
 11
165.957
 21
-2.30969
  0
LINE
  8
0
 10
165.957
 20
-2.30969
 11
165
 21
-2.5
  0
LINE
  8
0
 10
165
 20
-2.5
 11
164.043
 21
-2.30969
  0
LINE
  8
0
 10
71.15
 20
88.4
 11
73.55
 21
88.4
  0
LINE
  8
0
 10
73.55
 20
88.4
 11
73.55
 21
92.9
  0
LINE
  8
0
 10
73.55
 20
92.9
 11
71.15
 21
92.9
  0
LINE
  8
0
 10
71.15
 20
92.9
 11
71.15
 21
96.8
  0
LINE
  8
0
 10
71.15
 20
96.8
 11
69.15
 21
96.8
  0
LINE
  8
0
 10
69.15
 20
96.8
 11
69.15
 21
95.75
  0
LINE
  8
0
 10
69.15
 20
95.75
 11
66.85
 21
95.75
  0
LINE
  8
0
 10
66.85
 20
95.75
 11
66.85
 21
96.8
  0
LINE
  8
0
 10
66.85
 20
96.8
 11
61.05
 21
96.8
  0
LINE
  8
0
 10
61.05
 20
96.8
 11
61.05
 21
100.2
  0
LINE
  8
0
 10
61.05
 20
100.2
 11
66.85
 21
100.2
  0
LINE
  8
0
 10
66.85
 20
100.2
 11
66.85
 21
101.25
  0
LINE
  8
0
 10
66.85
 20
101.25
 11
69.15
 21
101.25
  0
LINE
  8
0
 10
69.15
 20
101.25
 11
69.15
 21
100.2
  0
LINE
  8
0
 10
69.15
 20
100.2
 11
71.15
 21
100.2
  0
LINE
  8
0
 10
71.15
 20
100.2
 11
71.15
 21
104.1
  0
LINE
  8
0
 10
71.15
 20
104.1
 11
73.55
 21
104.1
  0
LINE
  8
0
 10
73.55
 20
104.1
 11
73.55
 21
108.6
  0
LINE
  8
0
 10
73.55
 20
108.6
 11
71.15
 21
108.6
  0
LINE
  8
0
 10
71.15
 20
108.6
 11
71.15
 21
112.5
  0
LINE
  8
0
 10
71.15
 20
112.5
 11
7.04999
 21
112.5
  0
LINE
  8
0
 10
7.04999
 20
112.5
 11
7.04999
 21
109.5
  0
LINE
  8
0
 10
7.04999
 20
109.5
 11
56.55
 21
109.5
  0
LINE
  8
0
 10
56.55
 20
109.5
 11
56.55
 21
106.9
  0
LINE
  8
0
 10
56.55
 20
106.9
 11
7.04999
 21
106.9
  0
LINE
  8
0
 10
7.04999
 20
106.9
 11
7.04999
 21
90.1
  0
LINE
  8
0
 10
7.04999
 20
90.1
 11
56.55
 21
90.1
  0
LINE
  8
0
 10
56.55
 20
90.1
 11
56.55
 21
87.5
  0
LINE
  8
0
 10
56.55
 20
87.5
 11
7.04999
 21
87.5
  0
LINE
  8
0
 10
7.04999
 20
87.5
 11
7.04999
 21
84.5
  0
LINE
  8
0
 10
7.04999
 20
84.5
 11
71.15
 21
84.5
  0
LINE
  8
0
 10
71.15
 20
84.5
 11
71.15
 21
88.4
  0
LINE
  8
0
 10
10.5933
 20
96.1903
 11
9.78223
 21
96.7322
  0
LINE
  8
0
 10
9.78223
 20
96.7322
 11
9.2403
 21
97.5433
  0
LINE
  8
0
 10
9.2403
 20
97.5433
 11
9.04999
 21
98.5
  0
LINE
  8
0
 10
9.04999
 20
98.5
 11
9.2403
 21
99.4567
  0
LINE
  8
0
 10
9.2403
 20
99.4567
 11
9.78223
 21
100.268
  0
LINE
  8
0
 10
9.78223
 20
100.268
 11
10.5933
 21
100.81
  0
LINE
  8
0
 10
10.5933
 20
100.81
 11
11.55
 21
101
  0
LINE
  8
0
 10
11.55
 20
101
 11
12.5067
 21
100.81
  0
LINE
  8
0
 10
12.5067
 20
100.81
 11
13.3178
 21
100.268
  0
LINE
  8
0
 10
13.3178
 20
100.268
 11
13.8597
 21
99.4567
  0
LINE
  8
0
 10
13.8597
 20
99.4567
 11
14.05
 21
98.5
  0
LINE
  8
0
 10
14.05
 20
98.5
 11
13.8597
 21
97.5433
  0
LINE
  8
0
 10
13.8597
 20
97.5433
 11
13.3178
 21
96.7322
  0
LINE
  8
0
 10
13.3178
 20
96.7322
 11
12.5067
 21
96.1903
  0
LINE
  8
0
 10
12.5067
 20
96.1903
 11
11.55
 21
96
  0
LINE
  8
0
 10
11.55
 20
96
 11
10.5933
 21
96.1903
  0
LINE
  8
0
 10
55.5933
 20
96.1903
 11
54.7822
 21
96.7322
  0
LINE
  8
0
 10
54.7822
 20
96.7322
 11
54.2403
 21
97.5433
  0
LINE
  8
0
 10
54.2403
 20
97.5433
 11
54.05
 21
98.5
  0
LINE
  8
0
 10
54.05
 20
98.5
 11
54.2403
 21
99.4567
  0
LINE
  8
0
 10
54.2403
 20
99.4567
 11
54.7822
 21
100.268
  0
LINE
  8
0
 10
54.7822
 20
100.268
 11
55.5933
 21
100.81
  0
LINE
  8
0
 10
55.5933
 20
100.81
 11
56.55
 21
101
  0
LINE
  8
0
 10
56.55
 20
101
 11
57.5067
 21
100.81
  0
LINE
  8
0
 10
57.5067
 20
100.81
 11
58.3178
 21
100.268
  0
LINE
  8
0
 10
58.3178
 20
100.268
 11
58.8597
 21
99.4567
  0
LINE
  8
0
 10
58.8597
 20
99.4567
 11
59.05
 21
98.5
  0
LINE
  8
0
 10
59.05
 20
98.5
 11
58.8597
 21
97.5433
  0
LINE
  8
0
 10
58.8597
 20
97.5433
 11
58.3178
 21
96.7322
  0
LINE
  8
0
 10
58.3178
 20
96.7322
 11
57.5067
 21
96.1903
  0
LINE
  8
0
 10
57.5067
 20
96.1903
 11
56.55
 21
96
  0
LINE
  8
0
 10
56.55
 20
96
 11
55.5933
 21
96.1903
  0
LINE
  8
0
 10
1.54507
 20
-19.5553
 11
2.5
 21
-19.1301
  0
LINE
  8
0
 10
2.5
 20
-19.1301
 11
3.34564
 21
-18.5157
  0
LINE
  8
0
 10
3.34564
 20
-18.5157
 11
4.04507
 21
-17.7389
  0
LINE
  8
0
 10
4.04507
 20
-17.7389
 11
4.56772
 21
-16.8337
  0
LINE
  8
0
 10
4.56772
 20
-16.8337
 11
4.89073
 21
-15.8396
  0
LINE
  8
0
 10
4.89073
 20
-15.8396
 11
5
 21
-14.8
  0
LINE
  8
0
 10
5
 20
-14.8
 11
5
 21
-10.8
  0
LINE
  8
0
 10
5
 20
-10.8
 11
104.5
 21
-10.8
  0
LINE
  8
0
 10
104.5
 20
-10.8
 11
104.5
 21
-14.8
  0
LINE
  8
0
 10
104.5
 20
-14.8
 11
104.609
 21
-15.8396
  0
LINE
  8
0
 10
104.609
 20
-15.8396
 11
104.932
 21
-16.8337
  0
LINE
  8
0
 10
104.932
 20
-16.8337
 11
105.455
 21
-17.7389
  0
LINE
  8
0
 10
105.455
 20
-17.7389
 11
106.154
 21
-18.5157
  0
LINE
  8
0
 10
106.154
 20
-18.5157
 11
107
 21
-19.1301
  0
LINE
  8
0
 10
107
 20
-19.1301
 11
107.955
 21
-19.5553
  0
LINE
  8
0
 10
107.955
 20
-19.5553
 11
108.977
 21
-19.7726
  0
LINE
  8
0
 10
108.977
 20
-19.7726
 11
110.023
 21
-19.7726
  0
LINE
  8
0
 10
110.023
 20
-19.7726
 11
111.045
 21
-19.5553
  0
LINE
  8
0
 10
111.045
 20
-19.5553
 11
112
 21
-19.1301
  0
LINE
  8
0
 10
112
 20
-19.1301
 11
112.846
 21
-18.5157
  0
LINE
  8
0
 10
112.846
 20
-18.5157
 11
113.545
 21
-17.7389
  0
LINE
  8
0
 10
113.545
 20
-17.7389
 11
114.068
 21
-16.8337
  0
LINE
  8
0
 10
114.068
 20
-16.8337
 11
114.391
 21
-15.8396
  0
LINE
  8
0
 10
114.391
 20
-15.8396
 11
114.5
 21
-14.8
  0
LINE
  8
0
 10
114.5
 20
-14.8
 11
114.5
 21
-7.79999
  0
LINE
  8
0
 10
114.5
 20
-7.79999
 11
65
 21
-7.79999
  0
LINE
  8
0
 10
65
 20
-7.79999
 11
65
 21
-3
  0
LINE
  8
0
 10
65
 20
-3
 11
114.5
 21
-3
  0
LINE
  8
0
 10
114.5
 20
-3
 11
114.5
 21
0
  0
LINE
  8
0
 10
114.5
 20
0
 11
35.0614
 21
0
  0
LINE
  8
0
 10
35.0614
 20
0
 11
5
 21
30.0614
  0
LINE
  8
0
 10
5
 20
30.0614
 11
5
 21
104
  0
LINE
  8
0
 10
5
 20
104
 11
4.89073
 21
105.04
  0
LINE
  8
0
 10
4.89073
 20
105.04
 11
4.56772
 21
106.034
  0
LINE
  8
0
 10
4.56772
 20
106.034
 11
4.04507
 21
106.939
  0
LINE
  8
0
 10
4.04507
 20
106.939
 11
3.34564
 21
107.716
  0
LINE
  8
0
 10
3.34564
 20
107.716
 11
2.5
 21
108.33
  0
LINE
  8
0
 10
2.5
 20
108.33
 11
1.54507
 21
108.755
  0
LINE
  8
0
 10
1.54507
 20
108.755
 11
0.522629
 21
108.973
  0
LINE
  8
0
 10
0.522629
 20
108.973
 11
-0.522629
 21
108.973
  0
LINE
  8
0
 10
-0.522629
 20
108.973
 11
-1.54507
 21
108.755
  0
LINE
  8
0
 10
-1.54507
 20
108.755
 11
-2.49998
 21
108.33
  0
LINE
  8
0
 10
-2.49998
 20
108.33
 11
-3.34564
 21
107.716
  0
LINE
  8
0
 10
-3.34564
 20
107.716
 11
-4.04507
 21
106.939
  0
LINE
  8
0
 10
-4.04507
 20
106.939
 11
-4.56772
 21
106.034
  0
LINE
  8
0
 10
-4.56772
 20
106.034
 11
-4.89073
 21
105.04
  0
LINE
  8
0
 10
-4.89073
 20
105.04
 11
-5
 21
104
  0
LINE
  8
0
 10
-5
 20
104
 11
-5
 21
-14.8
  0
LINE
  8
0
 10
-5
 20
-14.8
 11
-4.89073
 21
-15.8396
  0
LINE
  8
0
 10
-4.89073
 20
-15.8396
 11
-4.56772
 21
-16.8337
  0
LINE
  8
0
 10
-4.56772
 20
-16.8337
 11
-4.04507
 21
-17.7389
  0
LINE
  8
0
 10
-4.04507
 20
-17.7389
 11
-3.34564
 21
-18.5157
  0
LINE
  8
0
 10
-3.34564
 20
-18.5157
 11
-2.5
 21
-19.1301
  0
LINE
  8
0
 10
-2.5
 20
-19.1301
 11
-1.54507
 21
-19.5553
  0
LINE
  8
0
 10
-1.54507
 20
-19.5553
 11
-0.522629
 21
-19.7726
  0
LINE
  8
0
 10
-0.522629
 20
-19.7726
 11
0.522629
 21
-19.7726
  0
LINE
  8
0
 10
0.522629
 20
-19.7726
 11
1.54507
 21
-19.5553
  0
LINE
  8
0
 10
-0.956696
 20
101.69
 11
-1.76776
 21
102.232
  0
LINE
  8
0
 10
-1.76776
 20
102.232
 11
-2.30969
 21
103.043
  0
LINE
  8
0
 10
-2.30969
 20
103.043
 11
-2.5
 21
104
  0
LINE
  8
0
 10
-2.5
 20
104
 11
-2.30969
 21
104.957
  0
LINE
  8
0
 10
-2.30969
 20
104.957
 11
-1.76776
 21
105.768
  0
LINE
  8
0
 10
-1.76776
 20
105.768
 11
-0.956696
 21
106.31
  0
LINE
  8
0
 10
-0.956696
 20
106.31
 11
0
 21
106.5
  0
LINE
  8
0
 10
0
 20
106.5
 11
0.956696
 21
106.31
  0
LINE
  8
0
 10
0.956696
 20
106.31
 11
1.76776
 21
105.768
  0
LINE
  8
0
 10
1.76776
 20
105.768
 11
2.30969
 21
104.957
  0
LINE
  8
0
 10
2.30969
 20
104.957
 11
2.5
 21
104
  0
LINE
  8
0
 10
2.5
 20
104
 11
2.30969
 21
103.043
  0
LINE
  8
0
 10
2.30969
 20
103.043
 11
1.76776
 21
102.232
  0
LINE
  8
0
 10
1.76776
 20
102.232
 11
0.956696
 21
101.69
  0
LINE
  8
0
 10
0.956696
 20
101.69
 11
0
 21
101.5
  0
LINE
  8
0
 10
0
 20
101.5
 11
-0.956696
 21
101.69
  0
LINE
  8
0
 10
-1.04778
 20
84.2908
 11
-1.53519
 21
85.0492
  0
LINE
  8
0
 10
-1.53519
 20
85.0492
 11
-1.53519
 21
85.9508
  0
LINE
  8
0
 10
-1.53519
 20
85.9508
 11
-1.04778
 21
86.7092
  0
LINE
  8
0
 10
-1.04778
 20
86.7092
 11
-0.227692
 21
87.0837
  0
LINE
  8
0
 10
-0.227692
 20
87.0837
 11
0.664658
 21
86.9554
  0
LINE
  8
0
 10
0.664658
 20
86.9554
 11
1.34599
 21
86.365
  0
LINE
  8
0
 10
1.34599
 20
86.365
 11
1.59999
 21
85.5
  0
LINE
  8
0
 10
1.59999
 20
85.5
 11
1.34599
 21
84.635
  0
LINE
  8
0
 10
1.34599
 20
84.635
 11
0.664658
 21
84.0446
  0
LINE
  8
0
 10
0.664658
 20
84.0446
 11
-0.227692
 21
83.9163
  0
LINE
  8
0
 10
-0.227692
 20
83.9163
 11
-1.04778
 21
84.2908
  0
LINE
  8
0
 10
-1.29999
 20
36.3
 11
-1.29999
 21
81.7
  0
LINE
  8
0
 10
-1.29999
 20
81.7
 11
1.29999
 21
81.7
  0
LINE
  8
0
 10
1.29999
 20
81.7
 11
1.29999
 21
36.3
  0
LINE
  8
0
 10
1.29999
 20
36.3
 11
-1.29999
 21
36.3
  0
LINE
  8
0
 10
-1.04778
 20
31.2908
 11
-1.53519
 21
32.0492
  0
LINE
  8
0
 10
-1.53519
 20
32.0492
 11
-1.53519
 21
32.9508
  0
LINE
  8
0
 10
-1.53519
 20
32.9508
 11
-1.04778
 21
33.7092
  0
LINE
  8
0
 10
-1.04778
 20
33.7092
 11
-0.227692
 21
34.0837
  0
LINE
  8
0
 10
-0.227692
 20
34.0837
 11
0.664658
 21
33.9554
  0
LINE
  8
0
 10
0.664658
 20
33.9554
 11
1.34599
 21
33.365
  0
LINE
  8
0
 10
1.34599
 20
33.365
 11
1.59999
 21
32.5
  0
LINE
  8
0
 10
1.59999
 20
32.5
 11
1.34599
 21
31.635
  0
LINE
  8
0
 10
1.34599
 20
31.635
 11
0.664658
 21
31.0446
  0
LINE
  8
0
 10
0.664658
 20
31.0446
 11
-0.227692
 21
30.9163
  0
LINE
  8
0
 10
-0.227692
 20
30.9163
 11
-1.04778
 21
31.2908
  0
LINE
  8
0
 10
-0.956696
 20
11.6903
 11
-1.76776
 21
12.2322
  0
LINE
  8
0
 10
-1.76776
 20
12.2322
 11
-2.30969
 21
13.0433
  0
LINE
  8
0
 10
-2.30969
 20
13.0433
 11
-2.5
 21
14
  0
LINE
  8
0
 10
-2.5
 20
14
 11
-2.30969
 21
14.9567
  0
LINE
  8
0
 10
-2.30969
 20
14.9567
 11
-1.76776
 21
15.7678
  0
LINE
  8
0
 10
-1.76776
 20
15.7678
 11
-0.956696
 21
16.3097
  0
LINE
  8
0
 10
-0.956696
 20
16.3097
 11
0
 21
16.5
  0
LINE
  8
0
 10
0
 20
16.5
 11
0.956696
 21
16.3097
  0
LINE
  8
0
 10
0.956696
 20
16.3097
 11
1.76776
 21
15.7678
  0
LINE
  8
0
 10
1.76776
 20
15.7678
 11
2.30969
 21
14.9567
  0
LINE
  8
0
 10
2.30969
 20
14.9567
 11
2.5
 21
14
  0
LINE
  8
0
 10
2.5
 20
14
 11
2.30969
 21
13.0433
  0
LINE
  8
0
 10
2.30969
 20
13.0433
 11
1.76776
 21
12.2322
  0
LINE
  8
0
 10
1.76776
 20
12.2322
 11
0.956696
 21
11.6903
  0
LINE
  8
0
 10
0.956696
 20
11.6903
 11
0
 21
11.5
  0
LINE
  8
0
 10
0
 20
11.5
 11
-0.956696
 21
11.6903
  0
LINE
  8
0
 10
5
 20
0
 11
5
 21
15.9386
  0
LINE
  8
0
 10
5
 20
15.9386
 11
20.9386
 21
0
  0
LINE
  8
0
 10
20.9386
 20
0
 11
5
 21
0
  0
LINE
  8
0
 10
5
 20
-5.59999
 11
5
 21
-2.99998
  0
LINE
  8
0
 10
5
 20
-2.99998
 11
33.4
 21
-2.99998
  0
LINE
  8
0
 10
33.4
 20
-2.99998
 11
33.4
 21
-5.59999
  0
LINE
  8
0
 10
33.4
 20
-5.59999
 11
5
 21
-5.59999
  0
LINE
  8
0
 10
215.4
 20
76
 11
217.8
 21
76
  0
LINE
  8
0
 10
217.8
 20
76
 11
217.8
 21
104
  0
LINE
  8
0
 10
217.8
 20
104
 11
215.4
 21
104
  0
LINE
  8
0
 10
215.4
 20
104
 11
215.4
 21
107
  0
LINE
  8
0
 10
215.4
 20
107
 11
177.4
 21
107
  0
LINE
  8
0
 10
177.4
 20
107
 11
177.4
 21
104
  0
LINE
  8
0
 10
177.4
 20
104
 11
175
 21
104
  0
LINE
  8
0
 10
175
 20
104
 11
175
 21
76
  0
LINE
  8
0
 10
175
 20
76
 11
177.4
 21
76
  0
LINE
  8
0
 10
177.4
 20
76
 11
177.4
 21
73
  0
LINE
  8
0
 10
177.4
 20
73
 11
215.4
 21
73
  0
LINE
  8
0
 10
215.4
 20
73
 11
215.4
 21
76
  0
LINE
  8
0
 10
217.8
 20
2.29999
 11
215.85
 21
2.29999
  0
LINE
  8
0
 10
215.85
 20
2.29999
 11
215.85
 21
1.25
  0
LINE
  8
0
 10
215.85
 20
1.25
 11
213.55
 21
1.25
  0
LINE
  8
0
 10
213.55
 20
1.25
 11
213.55
 21
2.29999
  0
LINE
  8
0
 10
213.55
 20
2.29999
 11
207.75
 21
2.29999
  0
LINE
  8
0
 10
207.75
 20
2.29999
 11
207.75
 21
5.7
  0
LINE
  8
0
 10
207.75
 20
5.7
 11
213.55
 21
5.7
  0
LINE
  8
0
 10
213.55
 20
5.7
 11
213.55
 21
6.75
  0
LINE
  8
0
 10
213.55
 20
6.75
 11
215.85
 21
6.75
  0
LINE
  8
0
 10
215.85
 20
6.75
 11
215.85
 21
5.7
  0
LINE
  8
0
 10
215.85
 20
5.7
 11
217.8
 21
5.7
  0
LINE
  8
0
 10
217.8
 20
5.7
 11
217.8
 21
8
  0
LINE
  8
0
 10
217.8
 20
8
 11
220.2
 21
8
  0
LINE
  8
0
 10
220.2
 20
8
 11
220.2
 21
53
  0
LINE
  8
0
 10
220.2
 20
53
 11
217.8
 21
53
  0
LINE
  8
0
 10
217.8
 20
53
 11
217.8
 21
55.3
  0
LINE
  8
0
 10
217.8
 20
55.3
 11
215.85
 21
55.3
  0
LINE
  8
0
 10
215.85
 20
55.3
 11
215.85
 21
54.25
  0
LINE
  8
0
 10
215.85
 20
54.25
 11
213.55
 21
54.25
  0
LINE
  8
0
 10
213.55
 20
54.25
 11
213.55
 21
55.3
  0
LINE
  8
0
 10
213.55
 20
55.3
 11
207.75
 21
55.3
  0
LINE
  8
0
 10
207.75
 20
55.3
 11
207.75
 21
58.7
  0
LINE
  8
0
 10
207.75
 20
58.7
 11
213.55
 21
58.7
  0
LINE
  8
0
 10
213.55
 20
58.7
 11
213.55
 21
59.75
  0
LINE
  8
0
 10
213.55
 20
59.75
 11
215.85
 21
59.75
  0
LINE
  8
0
 10
215.85
 20
59.75
 11
215.85
 21
58.7
  0
LINE
  8
0
 10
215.85
 20
58.7
 11
217.8
 21
58.7
  0
LINE
  8
0
 10
217.8
 20
58.7
 11
217.8
 21
61
  0
LINE
  8
0
 10
217.8
 20
61
 11
175
 21
61
  0
LINE
  8
0
 10
175
 20
61
 11
175
 21
58.7
  0
LINE
  8
0
 10
175
 20
58.7
 11
177
 21
58.7
  0
LINE
  8
0
 10
177
 20
58.7
 11
177
 21
59.75
  0
LINE
  8
0
 10
177
 20
59.75
 11
179.3
 21
59.75
  0
LINE
  8
0
 10
179.3
 20
59.75
 11
179.3
 21
58.7
  0
LINE
  8
0
 10
179.3
 20
58.7
 11
185.1
 21
58.7
  0
LINE
  8
0
 10
185.1
 20
58.7
 11
185.1
 21
55.3
  0
LINE
  8
0
 10
185.1
 20
55.3
 11
179.3
 21
55.3
  0
LINE
  8
0
 10
179.3
 20
55.3
 11
179.3
 21
54.25
  0
LINE
  8
0
 10
179.3
 20
54.25
 11
177
 21
54.25
  0
LINE
  8
0
 10
177
 20
54.25
 11
177
 21
55.3
  0
LINE
  8
0
 10
177
 20
55.3
 11
175
 21
55.3
  0
LINE
  8
0
 10
175
 20
55.3
 11
175
 21
53
  0
LINE
  8
0
 10
175
 20
53
 11
172.6
 21
53
  0
LINE
  8
0
 10
172.6
 20
53
 11
172.6
 21
8
  0
LINE
  8
0
 10
172.6
 20
8
 11
175
 21
8
  0
LINE
  8
0
 10
175
 20
8
 11
175
 21
5.7
  0
LINE
  8
0
 10
175
 20
5.7
 11
177
 21
5.7
  0
LINE
  8
0
 10
177
 20
5.7
 11
177
 21
6.75
  0
LINE
  8
0
 10
177
 20
6.75
 11
179.3
 21
6.75
  0
LINE
  8
0
 10
179.3
 20
6.75
 11
179.3
 21
5.7
  0
LINE
  8
0
 10
179.3
 20
5.7
 11
185.1
 21
5.7
  0
LINE
  8
0
 10
185.1
 20
5.7
 11
185.1
 21
2.29999
  0
LINE
  8
0
 10
185.1
 20
2.29999
 11
179.3
 21
2.29999
  0
LINE
  8
0
 10
179.3
 20
2.29999
 11
179.3
 21
1.25
  0
LINE
  8
0
 10
179.3
 20
1.25
 11
177
 21
1.25
  0
LINE
  8
0
 10
177
 20
1.25
 11
177
 21
2.29999
  0
LINE
  8
0
 10
177
 20
2.29999
 11
175
 21
2.29999
  0
LINE
  8
0
 10
175
 20
2.29999
 11
175
 21
0
  0
LINE
  8
0
 10
175
 20
0
 11
217.8
 21
0
  0
LINE
  8
0
 10
217.8
 20
0
 11
217.8
 21
2.29999
  0
LINE
  8
0
 10
72.85
 20
35.8
 11
70.45
 21
35.8
  0
LINE
  8
0
 10
70.45
 20
35.8
 11
70.45
 21
40.5
  0
LINE
  8
0
 10
70.45
 20
40.5
 11
72.85
 21
40.5
  0
LINE
  8
0
 10
72.85
 20
40.5
 11
72.85
 21
44.3
  0
LINE
  8
0
 10
72.85
 20
44.3
 11
70.45
 21
44.3
  0
LINE
  8
0
 10
70.45
 20
44.3
 11
70.45
 21
47.7
  0
LINE
  8
0
 10
70.45
 20
47.7
 11
72.85
 21
47.7
  0
LINE
  8
0
 10
72.85
 20
47.7
 11
72.85
 21
51.5
  0
LINE
  8
0
 10
72.85
 20
51.5
 11
70.45
 21
51.5
  0
LINE
  8
0
 10
70.45
 20
51.5
 11
70.45
 21
56.2
  0
LINE
  8
0
 10
70.45
 20
56.2
 11
72.85
 21
56.2
  0
LINE
  8
0
 10
72.85
 20
56.2
 11
72.85
 21
60
  0
LINE
  8
0
 10
72.85
 20
60
 11
30.05
 21
60
  0
LINE
  8
0
 10
30.05
 20
60
 11
30.05
 21
56.2
  0
LINE
  8
0
 10
30.05
 20
56.2
 11
32.45
 21
56.2
  0
LINE
  8
0
 10
32.45
 20
56.2
 11
32.45
 21
51.5
  0
LINE
  8
0
 10
32.45
 20
51.5
 11
30.05
 21
51.5
  0
LINE
  8
0
 10
30.05
 20
51.5
 11
30.05
 21
47.7
  0
LINE
  8
0
 10
30.05
 20
47.7
 11
32.45
 21
47.7
  0
LINE
  8
0
 10
32.45
 20
47.7
 11
32.45
 21
44.3
  0
LINE
  8
0
 10
32.45
 20
44.3
 11
30.05
 21
44.3
  0
LINE
  8
0
 10
30.05
 20
44.3
 11
30.05
 21
40.5
  0
LINE
  8
0
 10
30.05
 20
40.5
 11
32.45
 21
40.5
  0
LINE
  8
0
 10
32.45
 20
40.5
 11
32.45
 21
35.8
  0
LINE
  8
0
 10
32.45
 20
35.8
 11
30.05
 21
35.8
  0
LINE
  8
0
 10
30.05
 20
35.8
 11
30.05
 21
32
  0
LINE
  8
0
 10
30.05
 20
32
 11
72.85
 21
32
  0
LINE
  8
0
 10
72.85
 20
32
 11
72.85
 21
35.8
  0
LINE
  8
0
 10
37.45
 20
54.4
 11
37.45
 21
57
  0
LINE
  8
0
 10
37.45
 20
57
 11
65.45
 21
57
  0
LINE
  8
0
 10
65.45
 20
57
 11
65.45
 21
54.4
  0
LINE
  8
0
 10
65.45
 20
54.4
 11
37.45
 21
54.4
  0
LINE
  8
0
 10
37.45
 20
35
 11
37.45
 21
37.6
  0
LINE
  8
0
 10
37.45
 20
37.6
 11
65.45
 21
37.6
  0
LINE
  8
0
 10
65.45
 20
37.6
 11
65.45
 21
35
  0
LINE
  8
0
 10
65.45
 20
35
 11
37.45
 21
35
  0
LINE
  8
0
 10
107.1
 20
5
 11
57.6
 21
5
  0
LINE
  8
0
 10
57.6
 20
5
 11
57.6
 21
7.59999
  0
LINE
  8
0
 10
57.6
 20
7.59999
 11
107.1
 21
7.59999
  0
LINE
  8
0
 10
107.1
 20
7.59999
 11
107.1
 21
24.4
  0
LINE
  8
0
 10
107.1
 20
24.4
 11
57.6
 21
24.4
  0
LINE
  8
0
 10
57.6
 20
24.4
 11
57.6
 21
27
  0
LINE
  8
0
 10
57.6
 20
27
 11
107.1
 21
27
  0
LINE
  8
0
 10
107.1
 20
27
 11
107.1
 21
30
  0
LINE
  8
0
 10
107.1
 20
30
 11
43
 21
30
  0
LINE
  8
0
 10
43
 20
30
 11
43
 21
26.1
  0
LINE
  8
0
 10
43
 20
26.1
 11
40.6
 21
26.1
  0
LINE
  8
0
 10
40.6
 20
26.1
 11
40.6
 21
21.6
  0
LINE
  8
0
 10
40.6
 20
21.6
 11
43
 21
21.6
  0
LINE
  8
0
 10
43
 20
21.6
 11
43
 21
17.7
  0
LINE
  8
0
 10
43
 20
17.7
 11
45
 21
17.7
  0
LINE
  8
0
 10
45
 20
17.7
 11
45
 21
18.75
  0
LINE
  8
0
 10
45
 20
18.75
 11
47.3
 21
18.75
  0
LINE
  8
0
 10
47.3
 20
18.75
 11
47.3
 21
17.7
  0
LINE
  8
0
 10
47.3
 20
17.7
 11
53.1
 21
17.7
  0
LINE
  8
0
 10
53.1
 20
17.7
 11
53.1
 21
14.3
  0
LINE
  8
0
 10
53.1
 20
14.3
 11
47.3
 21
14.3
  0
LINE
  8
0
 10
47.3
 20
14.3
 11
47.3
 21
13.25
  0
LINE
  8
0
 10
47.3
 20
13.25
 11
45
 21
13.25
  0
LINE
  8
0
 10
45
 20
13.25
 11
45
 21
14.3
  0
LINE
  8
0
 10
45
 20
14.3
 11
43
 21
14.3
  0
LINE
  8
0
 10
43
 20
14.3
 11
43
 21
10.4
  0
LINE
  8
0
 10
43
 20
10.4
 11
40.6
 21
10.4
  0
LINE
  8
0
 10
40.6
 20
10.4
 11
40.6
 21
5.89999
  0
LINE
  8
0
 10
40.6
 20
5.89999
 11
43
 21
5.89999
  0
LINE
  8
0
 10
43
 20
5.89999
 11
43
 21
2
  0
LINE
  8
0
 10
43
 20
2
 11
107.1
 21
2
  0
LINE
  8
0
 10
107.1
 20
2
 11
107.1
 21
5
  0
LINE
  8
0
 10
101.643
 20
13.6903
 11
100.832
 21
14.2322
  0
LINE
  8
0
 10
100.832
 20
14.2322
 11
100.29
 21
15.0433
  0
LINE
  8
0
 10
100.29
 20
15.0433
 11
100.1
 21
16
  0
LINE
  8
0
 10
100.1
 20
16
 11
100.29
 21
16.9567
  0
LINE
  8
0
 10
100.29
 20
16.9567
 11
100.832
 21
17.7678
  0
LINE
  8
0
 10
100.832
 20
17.7678
 11
101.643
 21
18.3097
  0
LINE
  8
0
 10
101.643
 20
18.3097
 11
102.6
 21
18.5
  0
LINE
  8
0
 10
102.6
 20
18.5
 11
103.557
 21
18.3097
  0
LINE
  8
0
 10
103.557
 20
18.3097
 11
104.368
 21
17.7678
  0
LINE
  8
0
 10
104.368
 20
17.7678
 11
104.91
 21
16.9567
  0
LINE
  8
0
 10
104.91
 20
16.9567
 11
105.1
 21
16
  0
LINE
  8
0
 10
105.1
 20
16
 11
104.91
 21
15.0433
  0
LINE
  8
0
 10
104.91
 20
15.0433
 11
104.368
 21
14.2322
  0
LINE
  8
0
 10
104.368
 20
14.2322
 11
103.557
 21
13.6903
  0
LINE
  8
0
 10
103.557
 20
13.6903
 11
102.6
 21
13.5
  0
LINE
  8
0
 10
102.6
 20
13.5
 11
101.643
 21
13.6903
  0
LINE
  8
0
 10
56.6433
 20
13.6903
 11
55.8322
 21
14.2322
  0
LINE
  8
0
 10
55.8322
 20
14.2322
 11
55.2903
 21
15.0433
  0
LINE
  8
0
 10
55.2903
 20
15.0433
 11
55.1
 21
16
  0
LINE
  8
0
 10
55.1
 20
16
 11
55.2903
 21
16.9567
  0
LINE
  8
0
 10
55.2903
 20
16.9567
 11
55.8322
 21
17.7678
  0
LINE
  8
0
 10
55.8322
 20
17.7678
 11
56.6433
 21
18.3097
  0
LINE
  8
0
 10
56.6433
 20
18.3097
 11
57.6
 21
18.5
  0
LINE
  8
0
 10
57.6
 20
18.5
 11
58.5567
 21
18.3097
  0
LINE
  8
0
 10
58.5567
 20
18.3097
 11
59.3678
 21
17.7678
  0
LINE
  8
0
 10
59.3678
 20
17.7678
 11
59.9097
 21
16.9567
  0
LINE
  8
0
 10
59.9097
 20
16.9567
 11
60.1
 21
16
  0
LINE
  8
0
 10
60.1
 20
16
 11
59.9097
 21
15.0433
  0
LINE
  8
0
 10
59.9097
 20
15.0433
 11
59.3678
 21
14.2322
  0
LINE
  8
0
 10
59.3678
 20
14.2322
 11
58.5567
 21
13.6903
  0
LINE
  8
0
 10
58.5567
 20
13.6903
 11
57.6
 21
13.5
  0
LINE
  8
0
 10
57.6
 20
13.5
 11
56.6433
 21
13.6903
  0
ENDSEC
  0
SECTION
  2
OBJECTS
  0
DICTIONARY
  0
ENDSEC
  0
EOF
