  0
SECTION
  2
BLOCKS
  0
ENDSEC
  0
SECTION
  2
ENTITIES
  0
LINE
  8
0
 10
135.862
 20
126.927
 11
136.64
 21
127.323
  0
LINE
  8
0
 10
136.64
 20
127.323
 11
137.257
 21
127.94
  0
LINE
  8
0
 10
137.257
 20
127.94
 11
137.653
 21
128.718
  0
LINE
  8
0
 10
137.653
 20
128.718
 11
137.79
 21
129.58
  0
LINE
  8
0
 10
137.79
 20
129.58
 11
137.653
 21
130.442
  0
LINE
  8
0
 10
137.653
 20
130.442
 11
137.257
 21
131.22
  0
LINE
  8
0
 10
137.257
 20
131.22
 11
136.64
 21
131.837
  0
LINE
  8
0
 10
136.64
 20
131.837
 11
135.862
 21
132.233
  0
LINE
  8
0
 10
135.862
 20
132.233
 11
135
 21
132.37
  0
LINE
  8
0
 10
135
 20
132.37
 11
0
 21
132.37
  0
LINE
  8
0
 10
0
 20
132.37
 11
-0.862152
 21
132.233
  0
LINE
  8
0
 10
-0.862152
 20
132.233
 11
-1.63991
 21
131.837
  0
LINE
  8
0
 10
-1.63991
 20
131.837
 11
-2.25716
 21
131.22
  0
LINE
  8
0
 10
-2.25716
 20
131.22
 11
-2.65344
 21
130.442
  0
LINE
  8
0
 10
-2.65344
 20
130.442
 11
-2.78999
 21
129.58
  0
LINE
  8
0
 10
-2.78999
 20
129.58
 11
-2.65344
 21
128.718
  0
LINE
  8
0
 10
-2.65344
 20
128.718
 11
-2.25716
 21
127.94
  0
LINE
  8
0
 10
-2.25716
 20
127.94
 11
-1.63991
 21
127.323
  0
LINE
  8
0
 10
-1.63991
 20
127.323
 11
-0.862152
 21
126.927
  0
LINE
  8
0
 10
-0.862152
 20
126.927
 11
0
 21
126.79
  0
LINE
  8
0
 10
0
 20
126.79
 11
135
 21
126.79
  0
LINE
  8
0
 10
135
 20
126.79
 11
135.862
 21
126.927
  0
LINE
  8
0
 10
-0.431076
 20
128.253
 11
-0.819946
 21
128.451
  0
LINE
  8
0
 10
-0.819946
 20
128.451
 11
-1.12857
 21
128.76
  0
LINE
  8
0
 10
-1.12857
 20
128.76
 11
-1.32672
 21
129.149
  0
LINE
  8
0
 10
-1.32672
 20
129.149
 11
-1.39499
 21
129.58
  0
LINE
  8
0
 10
-1.39499
 20
129.58
 11
-1.32672
 21
130.011
  0
LINE
  8
0
 10
-1.32672
 20
130.011
 11
-1.12857
 21
130.4
  0
LINE
  8
0
 10
-1.12857
 20
130.4
 11
-0.819946
 21
130.709
  0
LINE
  8
0
 10
-0.819946
 20
130.709
 11
-0.431076
 21
130.907
  0
LINE
  8
0
 10
-0.431076
 20
130.907
 11
0
 21
130.975
  0
LINE
  8
0
 10
0
 20
130.975
 11
0.431076
 21
130.907
  0
LINE
  8
0
 10
0.431076
 20
130.907
 11
0.819946
 21
130.709
  0
LINE
  8
0
 10
0.819946
 20
130.709
 11
1.12857
 21
130.4
  0
LINE
  8
0
 10
1.12857
 20
130.4
 11
1.32672
 21
130.011
  0
LINE
  8
0
 10
1.32672
 20
130.011
 11
1.39499
 21
129.58
  0
LINE
  8
0
 10
1.39499
 20
129.58
 11
1.32672
 21
129.149
  0
LINE
  8
0
 10
1.32672
 20
129.149
 11
1.12857
 21
128.76
  0
LINE
  8
0
 10
1.12857
 20
128.76
 11
0.819946
 21
128.451
  0
LINE
  8
0
 10
0.819946
 20
128.451
 11
0.431076
 21
128.253
  0
LINE
  8
0
 10
0.431076
 20
128.253
 11
0
 21
128.185
  0
LINE
  8
0
 10
0
 20
128.185
 11
-0.431076
 21
128.253
  0
LINE
  8
0
 10
114.569
 20
128.253
 11
114.18
 21
128.451
  0
LINE
  8
0
 10
114.18
 20
128.451
 11
113.871
 21
128.76
  0
LINE
  8
0
 10
113.871
 20
128.76
 11
113.673
 21
129.149
  0
LINE
  8
0
 10
113.673
 20
129.149
 11
113.605
 21
129.58
  0
LINE
  8
0
 10
113.605
 20
129.58
 11
113.673
 21
130.011
  0
LINE
  8
0
 10
113.673
 20
130.011
 11
113.871
 21
130.4
  0
LINE
  8
0
 10
113.871
 20
130.4
 11
114.18
 21
130.709
  0
LINE
  8
0
 10
114.18
 20
130.709
 11
114.569
 21
130.907
  0
LINE
  8
0
 10
114.569
 20
130.907
 11
115
 21
130.975
  0
LINE
  8
0
 10
115
 20
130.975
 11
115.431
 21
130.907
  0
LINE
  8
0
 10
115.431
 20
130.907
 11
115.82
 21
130.709
  0
LINE
  8
0
 10
115.82
 20
130.709
 11
116.129
 21
130.4
  0
LINE
  8
0
 10
116.129
 20
130.4
 11
116.327
 21
130.011
  0
LINE
  8
0
 10
116.327
 20
130.011
 11
116.395
 21
129.58
  0
LINE
  8
0
 10
116.395
 20
129.58
 11
116.327
 21
129.149
  0
LINE
  8
0
 10
116.327
 20
129.149
 11
116.129
 21
128.76
  0
LINE
  8
0
 10
116.129
 20
128.76
 11
115.82
 21
128.451
  0
LINE
  8
0
 10
115.82
 20
128.451
 11
115.431
 21
128.253
  0
LINE
  8
0
 10
115.431
 20
128.253
 11
115
 21
128.185
  0
LINE
  8
0
 10
115
 20
128.185
 11
114.569
 21
128.253
  0
LINE
  8
0
 10
123.862
 20
7.64655
 11
124.64
 21
8.04283
  0
LINE
  8
0
 10
124.64
 20
8.04283
 11
125.257
 21
8.66008
  0
LINE
  8
0
 10
125.257
 20
8.66008
 11
125.653
 21
9.43784
  0
LINE
  8
0
 10
125.653
 20
9.43784
 11
125.79
 21
10.3
  0
LINE
  8
0
 10
125.79
 20
10.3
 11
125.79
 21
123
  0
LINE
  8
0
 10
125.79
 20
123
 11
125.653
 21
123.862
  0
LINE
  8
0
 10
125.653
 20
123.862
 11
125.257
 21
124.64
  0
LINE
  8
0
 10
125.257
 20
124.64
 11
124.64
 21
125.257
  0
LINE
  8
0
 10
124.64
 20
125.257
 11
123.862
 21
125.653
  0
LINE
  8
0
 10
123.862
 20
125.653
 11
123
 21
125.79
  0
LINE
  8
0
 10
123
 20
125.79
 11
2.78999
 21
125.79
  0
LINE
  8
0
 10
2.78999
 20
125.79
 11
1.92784
 21
125.653
  0
LINE
  8
0
 10
1.92784
 20
125.653
 11
1.15007
 21
125.257
  0
LINE
  8
0
 10
1.15007
 20
125.257
 11
0.532837
 21
124.64
  0
LINE
  8
0
 10
0.532837
 20
124.64
 11
0.136551
 21
123.862
  0
LINE
  8
0
 10
0.136551
 20
123.862
 11
0
 21
123
  0
LINE
  8
0
 10
0
 20
123
 11
0
 21
118
  0
LINE
  8
0
 10
0
 20
118
 11
12.31
 21
118
  0
LINE
  8
0
 10
12.31
 20
118
 11
12.31
 21
113
  0
LINE
  8
0
 10
12.31
 20
113
 11
24.29
 21
113
  0
LINE
  8
0
 10
24.29
 20
113
 11
24.29
 21
118
  0
LINE
  8
0
 10
24.29
 20
118
 11
36.71
 21
118
  0
LINE
  8
0
 10
36.71
 20
118
 11
36.71
 21
113
  0
LINE
  8
0
 10
36.71
 20
113
 11
48.69
 21
113
  0
LINE
  8
0
 10
48.69
 20
113
 11
48.69
 21
118
  0
LINE
  8
0
 10
48.69
 20
118
 11
61.11
 21
118
  0
LINE
  8
0
 10
61.11
 20
118
 11
61.11
 21
113
  0
LINE
  8
0
 10
61.11
 20
113
 11
89.3174
 21
113
  0
LINE
  8
0
 10
89.3174
 20
113
 11
120.21
 21
82.1074
  0
LINE
  8
0
 10
120.21
 20
82.1074
 11
120.21
 21
10.3
  0
LINE
  8
0
 10
120.21
 20
10.3
 11
120.347
 21
9.43784
  0
LINE
  8
0
 10
120.347
 20
9.43784
 11
120.743
 21
8.66008
  0
LINE
  8
0
 10
120.743
 20
8.66008
 11
121.36
 21
8.04283
  0
LINE
  8
0
 10
121.36
 20
8.04283
 11
122.138
 21
7.64655
  0
LINE
  8
0
 10
122.138
 20
7.64655
 11
123
 21
7.50999
  0
LINE
  8
0
 10
123
 20
7.50999
 11
123.862
 21
7.64655
  0
LINE
  8
0
 10
87.5349
 20
120.319
 11
87.1154
 21
120.532
  0
LINE
  8
0
 10
87.1154
 20
120.532
 11
86.7824
 21
120.865
  0
LINE
  8
0
 10
86.7824
 20
120.865
 11
86.5686
 21
121.285
  0
LINE
  8
0
 10
86.5686
 20
121.285
 11
86.495
 21
121.75
  0
LINE
  8
0
 10
86.495
 20
121.75
 11
86.5686
 21
122.215
  0
LINE
  8
0
 10
86.5686
 20
122.215
 11
86.7824
 21
122.635
  0
LINE
  8
0
 10
86.7824
 20
122.635
 11
87.1154
 21
122.968
  0
LINE
  8
0
 10
87.1154
 20
122.968
 11
87.5349
 21
123.181
  0
LINE
  8
0
 10
87.5349
 20
123.181
 11
88
 21
123.255
  0
LINE
  8
0
 10
88
 20
123.255
 11
88.4651
 21
123.181
  0
LINE
  8
0
 10
88.4651
 20
123.181
 11
88.8846
 21
122.968
  0
LINE
  8
0
 10
88.8846
 20
122.968
 11
89.2176
 21
122.635
  0
LINE
  8
0
 10
89.2176
 20
122.635
 11
89.4313
 21
122.215
  0
LINE
  8
0
 10
89.4313
 20
122.215
 11
89.505
 21
121.75
  0
LINE
  8
0
 10
89.505
 20
121.75
 11
89.4313
 21
121.285
  0
LINE
  8
0
 10
89.4313
 20
121.285
 11
89.2176
 21
120.865
  0
LINE
  8
0
 10
89.2176
 20
120.865
 11
88.8846
 21
120.532
  0
LINE
  8
0
 10
88.8846
 20
120.532
 11
88.4651
 21
120.319
  0
LINE
  8
0
 10
88.4651
 20
120.319
 11
88
 21
120.245
  0
LINE
  8
0
 10
88
 20
120.245
 11
87.5349
 21
120.319
  0
LINE
  8
0
 10
52.89
 20
120.28
 11
52.89
 21
123
  0
LINE
  8
0
 10
52.89
 20
123
 11
76.4433
 21
123
  0
LINE
  8
0
 10
76.4433
 20
123
 11
76.4433
 21
120.28
  0
LINE
  8
0
 10
76.4433
 20
120.28
 11
52.89
 21
120.28
  0
LINE
  8
0
 10
99.5567
 20
120.28
 11
99.5567
 21
123
  0
LINE
  8
0
 10
99.5567
 20
123
 11
123.11
 21
123
  0
LINE
  8
0
 10
123.11
 20
123
 11
123.11
 21
120.28
  0
LINE
  8
0
 10
123.11
 20
120.28
 11
99.5567
 21
120.28
  0
LINE
  8
0
 10
97.2087
 20
113
 11
120.21
 21
113
  0
LINE
  8
0
 10
120.21
 20
113
 11
120.21
 21
89.9987
  0
LINE
  8
0
 10
120.21
 20
89.9987
 11
97.2087
 21
113
  0
LINE
  8
0
 10
122.569
 20
100.973
 11
122.18
 21
101.171
  0
LINE
  8
0
 10
122.18
 20
101.171
 11
121.871
 21
101.48
  0
LINE
  8
0
 10
121.871
 20
101.48
 11
121.673
 21
101.869
  0
LINE
  8
0
 10
121.673
 20
101.869
 11
121.605
 21
102.3
  0
LINE
  8
0
 10
121.605
 20
102.3
 11
121.673
 21
102.731
  0
LINE
  8
0
 10
121.673
 20
102.731
 11
121.871
 21
103.12
  0
LINE
  8
0
 10
121.871
 20
103.12
 11
122.18
 21
103.429
  0
LINE
  8
0
 10
122.18
 20
103.429
 11
122.569
 21
103.627
  0
LINE
  8
0
 10
122.569
 20
103.627
 11
123
 21
103.695
  0
LINE
  8
0
 10
123
 20
103.695
 11
123.431
 21
103.627
  0
LINE
  8
0
 10
123.431
 20
103.627
 11
123.82
 21
103.429
  0
LINE
  8
0
 10
123.82
 20
103.429
 11
124.129
 21
103.12
  0
LINE
  8
0
 10
124.129
 20
103.12
 11
124.327
 21
102.731
  0
LINE
  8
0
 10
124.327
 20
102.731
 11
124.395
 21
102.3
  0
LINE
  8
0
 10
124.395
 20
102.3
 11
124.327
 21
101.869
  0
LINE
  8
0
 10
124.327
 20
101.869
 11
124.129
 21
101.48
  0
LINE
  8
0
 10
124.129
 20
101.48
 11
123.82
 21
101.171
  0
LINE
  8
0
 10
123.82
 20
101.171
 11
123.431
 21
100.973
  0
LINE
  8
0
 10
123.431
 20
100.973
 11
123
 21
100.905
  0
LINE
  8
0
 10
123
 20
100.905
 11
122.569
 21
100.973
  0
LINE
  8
0
 10
121.64
 20
65.7733
 11
121.64
 21
85.16
  0
LINE
  8
0
 10
121.64
 20
85.16
 11
124.36
 21
85.16
  0
LINE
  8
0
 10
124.36
 20
85.16
 11
124.36
 21
65.7733
  0
LINE
  8
0
 10
124.36
 20
65.7733
 11
121.64
 21
65.7733
  0
LINE
  8
0
 10
122.535
 20
54.8687
 11
122.115
 21
55.0824
  0
LINE
  8
0
 10
122.115
 20
55.0824
 11
121.782
 21
55.4154
  0
LINE
  8
0
 10
121.782
 20
55.4154
 11
121.569
 21
55.8349
  0
LINE
  8
0
 10
121.569
 20
55.8349
 11
121.495
 21
56.3
  0
LINE
  8
0
 10
121.495
 20
56.3
 11
121.569
 21
56.7651
  0
LINE
  8
0
 10
121.569
 20
56.7651
 11
121.782
 21
57.1846
  0
LINE
  8
0
 10
121.782
 20
57.1846
 11
122.115
 21
57.5176
  0
LINE
  8
0
 10
122.115
 20
57.5176
 11
122.535
 21
57.7313
  0
LINE
  8
0
 10
122.535
 20
57.7313
 11
123
 21
57.805
  0
LINE
  8
0
 10
123
 20
57.805
 11
123.465
 21
57.7313
  0
LINE
  8
0
 10
123.465
 20
57.7313
 11
123.885
 21
57.5176
  0
LINE
  8
0
 10
123.885
 20
57.5176
 11
124.218
 21
57.1846
  0
LINE
  8
0
 10
124.218
 20
57.1846
 11
124.431
 21
56.7651
  0
LINE
  8
0
 10
124.431
 20
56.7651
 11
124.505
 21
56.3
  0
LINE
  8
0
 10
124.505
 20
56.3
 11
124.431
 21
55.8349
  0
LINE
  8
0
 10
124.431
 20
55.8349
 11
124.218
 21
55.4154
  0
LINE
  8
0
 10
124.218
 20
55.4154
 11
123.885
 21
55.0824
  0
LINE
  8
0
 10
123.885
 20
55.0824
 11
123.465
 21
54.8687
  0
LINE
  8
0
 10
123.465
 20
54.8687
 11
123
 21
54.795
  0
LINE
  8
0
 10
123
 20
54.795
 11
122.535
 21
54.8687
  0
LINE
  8
0
 10
121.64
 20
27.44
 11
121.64
 21
46.8267
  0
LINE
  8
0
 10
121.64
 20
46.8267
 11
124.36
 21
46.8267
  0
LINE
  8
0
 10
124.36
 20
46.8267
 11
124.36
 21
27.44
  0
LINE
  8
0
 10
124.36
 20
27.44
 11
121.64
 21
27.44
  0
LINE
  8
0
 10
122.569
 20
8.97327
 11
122.18
 21
9.17142
  0
LINE
  8
0
 10
122.18
 20
9.17142
 11
121.871
 21
9.48003
  0
LINE
  8
0
 10
121.871
 20
9.48003
 11
121.673
 21
9.86891
  0
LINE
  8
0
 10
121.673
 20
9.86891
 11
121.605
 21
10.3
  0
LINE
  8
0
 10
121.605
 20
10.3
 11
121.673
 21
10.7311
  0
LINE
  8
0
 10
121.673
 20
10.7311
 11
121.871
 21
11.1199
  0
LINE
  8
0
 10
121.871
 20
11.1199
 11
122.18
 21
11.4286
  0
LINE
  8
0
 10
122.18
 20
11.4286
 11
122.569
 21
11.6267
  0
LINE
  8
0
 10
122.569
 20
11.6267
 11
123
 21
11.695
  0
LINE
  8
0
 10
123
 20
11.695
 11
123.431
 21
11.6267
  0
LINE
  8
0
 10
123.431
 20
11.6267
 11
123.82
 21
11.4286
  0
LINE
  8
0
 10
123.82
 20
11.4286
 11
124.129
 21
11.1199
  0
LINE
  8
0
 10
124.129
 20
11.1199
 11
124.327
 21
10.7311
  0
LINE
  8
0
 10
124.327
 20
10.7311
 11
124.395
 21
10.3
  0
LINE
  8
0
 10
124.395
 20
10.3
 11
124.327
 21
9.86891
  0
LINE
  8
0
 10
124.327
 20
9.86891
 11
124.129
 21
9.48003
  0
LINE
  8
0
 10
124.129
 20
9.48003
 11
123.82
 21
9.17142
  0
LINE
  8
0
 10
123.82
 20
9.17142
 11
123.431
 21
8.97327
  0
LINE
  8
0
 10
123.431
 20
8.97327
 11
123
 21
8.905
  0
LINE
  8
0
 10
123
 20
8.905
 11
122.569
 21
8.97327
  0
LINE
  8
0
 10
146.602
 20
-2.65344
 11
147.38
 21
-2.25716
  0
LINE
  8
0
 10
147.38
 20
-2.25716
 11
147.997
 21
-1.63991
  0
LINE
  8
0
 10
147.997
 20
-1.63991
 11
148.393
 21
-0.862152
  0
LINE
  8
0
 10
148.393
 20
-0.862152
 11
148.53
 21
0
  0
LINE
  8
0
 10
148.53
 20
0
 11
148.53
 21
115
  0
LINE
  8
0
 10
148.53
 20
115
 11
148.393
 21
115.862
  0
LINE
  8
0
 10
148.393
 20
115.862
 11
147.997
 21
116.64
  0
LINE
  8
0
 10
147.997
 20
116.64
 11
147.38
 21
117.257
  0
LINE
  8
0
 10
147.38
 20
117.257
 11
146.602
 21
117.653
  0
LINE
  8
0
 10
146.602
 20
117.653
 11
145.74
 21
117.79
  0
LINE
  8
0
 10
145.74
 20
117.79
 11
144.878
 21
117.653
  0
LINE
  8
0
 10
144.878
 20
117.653
 11
144.1
 21
117.257
  0
LINE
  8
0
 10
144.1
 20
117.257
 11
143.483
 21
116.64
  0
LINE
  8
0
 10
143.483
 20
116.64
 11
143.087
 21
115.862
  0
LINE
  8
0
 10
143.087
 20
115.862
 11
142.95
 21
115
  0
LINE
  8
0
 10
142.95
 20
115
 11
142.95
 21
0
  0
LINE
  8
0
 10
142.95
 20
0
 11
143.087
 21
-0.862152
  0
LINE
  8
0
 10
143.087
 20
-0.862152
 11
143.483
 21
-1.63991
  0
LINE
  8
0
 10
143.483
 20
-1.63991
 11
144.1
 21
-2.25716
  0
LINE
  8
0
 10
144.1
 20
-2.25716
 11
144.878
 21
-2.65344
  0
LINE
  8
0
 10
144.878
 20
-2.65344
 11
145.74
 21
-2.78999
  0
LINE
  8
0
 10
145.74
 20
-2.78999
 11
146.602
 21
-2.65344
  0
LINE
  8
0
 10
145.309
 20
113.673
 11
144.92
 21
113.871
  0
LINE
  8
0
 10
144.92
 20
113.871
 11
144.611
 21
114.18
  0
LINE
  8
0
 10
144.611
 20
114.18
 11
144.413
 21
114.569
  0
LINE
  8
0
 10
144.413
 20
114.569
 11
144.345
 21
115
  0
LINE
  8
0
 10
144.345
 20
115
 11
144.413
 21
115.431
  0
LINE
  8
0
 10
144.413
 20
115.431
 11
144.611
 21
115.82
  0
LINE
  8
0
 10
144.611
 20
115.82
 11
144.92
 21
116.129
  0
LINE
  8
0
 10
144.92
 20
116.129
 11
145.309
 21
116.327
  0
LINE
  8
0
 10
145.309
 20
116.327
 11
145.74
 21
116.395
  0
LINE
  8
0
 10
145.74
 20
116.395
 11
146.171
 21
116.327
  0
LINE
  8
0
 10
146.171
 20
116.327
 11
146.56
 21
116.129
  0
LINE
  8
0
 10
146.56
 20
116.129
 11
146.869
 21
115.82
  0
LINE
  8
0
 10
146.869
 20
115.82
 11
147.067
 21
115.431
  0
LINE
  8
0
 10
147.067
 20
115.431
 11
147.135
 21
115
  0
LINE
  8
0
 10
147.135
 20
115
 11
147.067
 21
114.569
  0
LINE
  8
0
 10
147.067
 20
114.569
 11
146.869
 21
114.18
  0
LINE
  8
0
 10
146.869
 20
114.18
 11
146.56
 21
113.871
  0
LINE
  8
0
 10
146.56
 20
113.871
 11
146.171
 21
113.673
  0
LINE
  8
0
 10
146.171
 20
113.673
 11
145.74
 21
113.605
  0
LINE
  8
0
 10
145.74
 20
113.605
 11
145.309
 21
113.673
  0
LINE
  8
0
 10
145.309
 20
-1.32672
 11
144.92
 21
-1.12857
  0
LINE
  8
0
 10
144.92
 20
-1.12857
 11
144.611
 21
-0.819946
  0
LINE
  8
0
 10
144.611
 20
-0.819946
 11
144.413
 21
-0.431076
  0
LINE
  8
0
 10
144.413
 20
-0.431076
 11
144.345
 21
0
  0
LINE
  8
0
 10
144.345
 20
0
 11
144.413
 21
0.431076
  0
LINE
  8
0
 10
144.413
 20
0.431076
 11
144.611
 21
0.819946
  0
LINE
  8
0
 10
144.611
 20
0.819946
 11
144.92
 21
1.12857
  0
LINE
  8
0
 10
144.92
 20
1.12857
 11
145.309
 21
1.32672
  0
LINE
  8
0
 10
145.309
 20
1.32672
 11
145.74
 21
1.39499
  0
LINE
  8
0
 10
145.74
 20
1.39499
 11
146.171
 21
1.32672
  0
LINE
  8
0
 10
146.171
 20
1.32672
 11
146.56
 21
1.12857
  0
LINE
  8
0
 10
146.56
 20
1.12857
 11
146.869
 21
0.819946
  0
LINE
  8
0
 10
146.869
 20
0.819946
 11
147.067
 21
0.431076
  0
LINE
  8
0
 10
147.067
 20
0.431076
 11
147.135
 21
0
  0
LINE
  8
0
 10
147.135
 20
0
 11
147.067
 21
-0.431076
  0
LINE
  8
0
 10
147.067
 20
-0.431076
 11
146.869
 21
-0.819946
  0
LINE
  8
0
 10
146.869
 20
-0.819946
 11
146.56
 21
-1.12857
  0
LINE
  8
0
 10
146.56
 20
-1.12857
 11
146.171
 21
-1.32672
  0
LINE
  8
0
 10
146.171
 20
-1.32672
 11
145.74
 21
-1.39499
  0
LINE
  8
0
 10
145.74
 20
-1.39499
 11
145.309
 21
-1.32672
  0
LINE
  8
0
 10
139.022
 20
-2.65344
 11
139.8
 21
-2.25716
  0
LINE
  8
0
 10
139.8
 20
-2.25716
 11
140.417
 21
-1.63991
  0
LINE
  8
0
 10
140.417
 20
-1.63991
 11
140.813
 21
-0.862152
  0
LINE
  8
0
 10
140.813
 20
-0.862152
 11
140.95
 21
0
  0
LINE
  8
0
 10
140.95
 20
0
 11
140.95
 21
115
  0
LINE
  8
0
 10
140.95
 20
115
 11
140.813
 21
115.862
  0
LINE
  8
0
 10
140.813
 20
115.862
 11
140.417
 21
116.64
  0
LINE
  8
0
 10
140.417
 20
116.64
 11
139.8
 21
117.257
  0
LINE
  8
0
 10
139.8
 20
117.257
 11
139.022
 21
117.653
  0
LINE
  8
0
 10
139.022
 20
117.653
 11
138.16
 21
117.79
  0
LINE
  8
0
 10
138.16
 20
117.79
 11
137.298
 21
117.653
  0
LINE
  8
0
 10
137.298
 20
117.653
 11
136.52
 21
117.257
  0
LINE
  8
0
 10
136.52
 20
117.257
 11
135.903
 21
116.64
  0
LINE
  8
0
 10
135.903
 20
116.64
 11
135.507
 21
115.862
  0
LINE
  8
0
 10
135.507
 20
115.862
 11
135.37
 21
115
  0
LINE
  8
0
 10
135.37
 20
115
 11
135.37
 21
0
  0
LINE
  8
0
 10
135.37
 20
0
 11
135.507
 21
-0.862152
  0
LINE
  8
0
 10
135.507
 20
-0.862152
 11
135.903
 21
-1.63991
  0
LINE
  8
0
 10
135.903
 20
-1.63991
 11
136.52
 21
-2.25716
  0
LINE
  8
0
 10
136.52
 20
-2.25716
 11
137.298
 21
-2.65344
  0
LINE
  8
0
 10
137.298
 20
-2.65344
 11
138.16
 21
-2.78999
  0
LINE
  8
0
 10
138.16
 20
-2.78999
 11
139.022
 21
-2.65344
  0
LINE
  8
0
 10
137.729
 20
113.673
 11
137.34
 21
113.871
  0
LINE
  8
0
 10
137.34
 20
113.871
 11
137.031
 21
114.18
  0
LINE
  8
0
 10
137.031
 20
114.18
 11
136.833
 21
114.569
  0
LINE
  8
0
 10
136.833
 20
114.569
 11
136.765
 21
115
  0
LINE
  8
0
 10
136.765
 20
115
 11
136.833
 21
115.431
  0
LINE
  8
0
 10
136.833
 20
115.431
 11
137.031
 21
115.82
  0
LINE
  8
0
 10
137.031
 20
115.82
 11
137.34
 21
116.129
  0
LINE
  8
0
 10
137.34
 20
116.129
 11
137.729
 21
116.327
  0
LINE
  8
0
 10
137.729
 20
116.327
 11
138.16
 21
116.395
  0
LINE
  8
0
 10
138.16
 20
116.395
 11
138.591
 21
116.327
  0
LINE
  8
0
 10
138.591
 20
116.327
 11
138.98
 21
116.129
  0
LINE
  8
0
 10
138.98
 20
116.129
 11
139.289
 21
115.82
  0
LINE
  8
0
 10
139.289
 20
115.82
 11
139.487
 21
115.431
  0
LINE
  8
0
 10
139.487
 20
115.431
 11
139.555
 21
115
  0
LINE
  8
0
 10
139.555
 20
115
 11
139.487
 21
114.569
  0
LINE
  8
0
 10
139.487
 20
114.569
 11
139.289
 21
114.18
  0
LINE
  8
0
 10
139.289
 20
114.18
 11
138.98
 21
113.871
  0
LINE
  8
0
 10
138.98
 20
113.871
 11
138.591
 21
113.673
  0
LINE
  8
0
 10
138.591
 20
113.673
 11
138.16
 21
113.605
  0
LINE
  8
0
 10
138.16
 20
113.605
 11
137.729
 21
113.673
  0
LINE
  8
0
 10
137.729
 20
-1.32672
 11
137.34
 21
-1.12857
  0
LINE
  8
0
 10
137.34
 20
-1.12857
 11
137.031
 21
-0.819946
  0
LINE
  8
0
 10
137.031
 20
-0.819946
 11
136.833
 21
-0.431076
  0
LINE
  8
0
 10
136.833
 20
-0.431076
 11
136.765
 21
0
  0
LINE
  8
0
 10
136.765
 20
0
 11
136.833
 21
0.431076
  0
LINE
  8
0
 10
136.833
 20
0.431076
 11
137.031
 21
0.819946
  0
LINE
  8
0
 10
137.031
 20
0.819946
 11
137.34
 21
1.12857
  0
LINE
  8
0
 10
137.34
 20
1.12857
 11
137.729
 21
1.32672
  0
LINE
  8
0
 10
137.729
 20
1.32672
 11
138.16
 21
1.39499
  0
LINE
  8
0
 10
138.16
 20
1.39499
 11
138.591
 21
1.32672
  0
LINE
  8
0
 10
138.591
 20
1.32672
 11
138.98
 21
1.12857
  0
LINE
  8
0
 10
138.98
 20
1.12857
 11
139.289
 21
0.819946
  0
LINE
  8
0
 10
139.289
 20
0.819946
 11
139.487
 21
0.431076
  0
LINE
  8
0
 10
139.487
 20
0.431076
 11
139.555
 21
0
  0
LINE
  8
0
 10
139.555
 20
0
 11
139.487
 21
-0.431076
  0
LINE
  8
0
 10
139.487
 20
-0.431076
 11
139.289
 21
-0.819946
  0
LINE
  8
0
 10
139.289
 20
-0.819946
 11
138.98
 21
-1.12857
  0
LINE
  8
0
 10
138.98
 20
-1.12857
 11
138.591
 21
-1.32672
  0
LINE
  8
0
 10
138.591
 20
-1.32672
 11
138.16
 21
-1.39499
  0
LINE
  8
0
 10
138.16
 20
-1.39499
 11
137.729
 21
-1.32672
  0
LINE
  8
0
 10
131.442
 20
-2.65344
 11
132.22
 21
-2.25716
  0
LINE
  8
0
 10
132.22
 20
-2.25716
 11
132.837
 21
-1.63991
  0
LINE
  8
0
 10
132.837
 20
-1.63991
 11
133.233
 21
-0.862152
  0
LINE
  8
0
 10
133.233
 20
-0.862152
 11
133.37
 21
0
  0
LINE
  8
0
 10
133.37
 20
0
 11
133.37
 21
115
  0
LINE
  8
0
 10
133.37
 20
115
 11
133.233
 21
115.862
  0
LINE
  8
0
 10
133.233
 20
115.862
 11
132.837
 21
116.64
  0
LINE
  8
0
 10
132.837
 20
116.64
 11
132.22
 21
117.257
  0
LINE
  8
0
 10
132.22
 20
117.257
 11
131.442
 21
117.653
  0
LINE
  8
0
 10
131.442
 20
117.653
 11
130.58
 21
117.79
  0
LINE
  8
0
 10
130.58
 20
117.79
 11
129.718
 21
117.653
  0
LINE
  8
0
 10
129.718
 20
117.653
 11
128.94
 21
117.257
  0
LINE
  8
0
 10
128.94
 20
117.257
 11
128.323
 21
116.64
  0
LINE
  8
0
 10
128.323
 20
116.64
 11
127.927
 21
115.862
  0
LINE
  8
0
 10
127.927
 20
115.862
 11
127.79
 21
115
  0
LINE
  8
0
 10
127.79
 20
115
 11
127.79
 21
0
  0
LINE
  8
0
 10
127.79
 20
0
 11
127.927
 21
-0.862152
  0
LINE
  8
0
 10
127.927
 20
-0.862152
 11
128.323
 21
-1.63991
  0
LINE
  8
0
 10
128.323
 20
-1.63991
 11
128.94
 21
-2.25716
  0
LINE
  8
0
 10
128.94
 20
-2.25716
 11
129.718
 21
-2.65344
  0
LINE
  8
0
 10
129.718
 20
-2.65344
 11
130.58
 21
-2.78999
  0
LINE
  8
0
 10
130.58
 20
-2.78999
 11
131.442
 21
-2.65344
  0
LINE
  8
0
 10
130.149
 20
113.673
 11
129.76
 21
113.871
  0
LINE
  8
0
 10
129.76
 20
113.871
 11
129.451
 21
114.18
  0
LINE
  8
0
 10
129.451
 20
114.18
 11
129.253
 21
114.569
  0
LINE
  8
0
 10
129.253
 20
114.569
 11
129.185
 21
115
  0
LINE
  8
0
 10
129.185
 20
115
 11
129.253
 21
115.431
  0
LINE
  8
0
 10
129.253
 20
115.431
 11
129.451
 21
115.82
  0
LINE
  8
0
 10
129.451
 20
115.82
 11
129.76
 21
116.129
  0
LINE
  8
0
 10
129.76
 20
116.129
 11
130.149
 21
116.327
  0
LINE
  8
0
 10
130.149
 20
116.327
 11
130.58
 21
116.395
  0
LINE
  8
0
 10
130.58
 20
116.395
 11
131.011
 21
116.327
  0
LINE
  8
0
 10
131.011
 20
116.327
 11
131.4
 21
116.129
  0
LINE
  8
0
 10
131.4
 20
116.129
 11
131.709
 21
115.82
  0
LINE
  8
0
 10
131.709
 20
115.82
 11
131.907
 21
115.431
  0
LINE
  8
0
 10
131.907
 20
115.431
 11
131.975
 21
115
  0
LINE
  8
0
 10
131.975
 20
115
 11
131.907
 21
114.569
  0
LINE
  8
0
 10
131.907
 20
114.569
 11
131.709
 21
114.18
  0
LINE
  8
0
 10
131.709
 20
114.18
 11
131.4
 21
113.871
  0
LINE
  8
0
 10
131.4
 20
113.871
 11
131.011
 21
113.673
  0
LINE
  8
0
 10
131.011
 20
113.673
 11
130.58
 21
113.605
  0
LINE
  8
0
 10
130.58
 20
113.605
 11
130.149
 21
113.673
  0
LINE
  8
0
 10
130.149
 20
-1.32672
 11
129.76
 21
-1.12857
  0
LINE
  8
0
 10
129.76
 20
-1.12857
 11
129.451
 21
-0.819946
  0
LINE
  8
0
 10
129.451
 20
-0.819946
 11
129.253
 21
-0.431076
  0
LINE
  8
0
 10
129.253
 20
-0.431076
 11
129.185
 21
0
  0
LINE
  8
0
 10
129.185
 20
0
 11
129.253
 21
0.431076
  0
LINE
  8
0
 10
129.253
 20
0.431076
 11
129.451
 21
0.819946
  0
LINE
  8
0
 10
129.451
 20
0.819946
 11
129.76
 21
1.12857
  0
LINE
  8
0
 10
129.76
 20
1.12857
 11
130.149
 21
1.32672
  0
LINE
  8
0
 10
130.149
 20
1.32672
 11
130.58
 21
1.39499
  0
LINE
  8
0
 10
130.58
 20
1.39499
 11
131.011
 21
1.32672
  0
LINE
  8
0
 10
131.011
 20
1.32672
 11
131.4
 21
1.12857
  0
LINE
  8
0
 10
131.4
 20
1.12857
 11
131.709
 21
0.819946
  0
LINE
  8
0
 10
131.709
 20
0.819946
 11
131.907
 21
0.431076
  0
LINE
  8
0
 10
131.907
 20
0.431076
 11
131.975
 21
0
  0
LINE
  8
0
 10
131.975
 20
0
 11
131.907
 21
-0.431076
  0
LINE
  8
0
 10
131.907
 20
-0.431076
 11
131.709
 21
-0.819946
  0
LINE
  8
0
 10
131.709
 20
-0.819946
 11
131.4
 21
-1.12857
  0
LINE
  8
0
 10
131.4
 20
-1.12857
 11
131.011
 21
-1.32672
  0
LINE
  8
0
 10
131.011
 20
-1.32672
 11
130.58
 21
-1.39499
  0
LINE
  8
0
 10
130.58
 20
-1.39499
 11
130.149
 21
-1.32672
  0
LINE
  8
0
 10
121.072
 20
-2.65344
 11
121.85
 21
-2.25716
  0
LINE
  8
0
 10
121.85
 20
-2.25716
 11
122.467
 21
-1.63991
  0
LINE
  8
0
 10
122.467
 20
-1.63991
 11
122.863
 21
-0.862152
  0
LINE
  8
0
 10
122.863
 20
-0.862152
 11
123
 21
0
  0
LINE
  8
0
 10
123
 20
0
 11
123
 21
5
  0
LINE
  8
0
 10
123
 20
5
 11
110.69
 21
5
  0
LINE
  8
0
 10
110.69
 20
5
 11
110.69
 21
10
  0
LINE
  8
0
 10
110.69
 20
10
 11
98.71
 21
10
  0
LINE
  8
0
 10
98.71
 20
10
 11
98.71
 21
5
  0
LINE
  8
0
 10
98.71
 20
5
 11
86.29
 21
5
  0
LINE
  8
0
 10
86.29
 20
5
 11
86.29
 21
10
  0
LINE
  8
0
 10
86.29
 20
10
 11
74.31
 21
10
  0
LINE
  8
0
 10
74.31
 20
10
 11
74.31
 21
5
  0
LINE
  8
0
 10
74.31
 20
5
 11
61.89
 21
5
  0
LINE
  8
0
 10
61.89
 20
5
 11
61.89
 21
10
  0
LINE
  8
0
 10
61.89
 20
10
 11
33.6826
 21
10
  0
LINE
  8
0
 10
33.6826
 20
10
 11
2.78999
 21
40.8926
  0
LINE
  8
0
 10
2.78999
 20
40.8926
 11
2.78999
 21
112.7
  0
LINE
  8
0
 10
2.78999
 20
112.7
 11
2.65344
 21
113.562
  0
LINE
  8
0
 10
2.65344
 20
113.562
 11
2.25716
 21
114.34
  0
LINE
  8
0
 10
2.25716
 20
114.34
 11
1.63991
 21
114.957
  0
LINE
  8
0
 10
1.63991
 20
114.957
 11
0.862152
 21
115.353
  0
LINE
  8
0
 10
0.862152
 20
115.353
 11
0
 21
115.49
  0
LINE
  8
0
 10
0
 20
115.49
 11
-0.862152
 21
115.353
  0
LINE
  8
0
 10
-0.862152
 20
115.353
 11
-1.63991
 21
114.957
  0
LINE
  8
0
 10
-1.63991
 20
114.957
 11
-2.25716
 21
114.34
  0
LINE
  8
0
 10
-2.25716
 20
114.34
 11
-2.65344
 21
113.562
  0
LINE
  8
0
 10
-2.65344
 20
113.562
 11
-2.78999
 21
112.7
  0
LINE
  8
0
 10
-2.78999
 20
112.7
 11
-2.78999
 21
0
  0
LINE
  8
0
 10
-2.78999
 20
0
 11
-2.65344
 21
-0.862152
  0
LINE
  8
0
 10
-2.65344
 20
-0.862152
 11
-2.25716
 21
-1.63991
  0
LINE
  8
0
 10
-2.25716
 20
-1.63991
 11
-1.63991
 21
-2.25716
  0
LINE
  8
0
 10
-1.63991
 20
-2.25716
 11
-0.862152
 21
-2.65344
  0
LINE
  8
0
 10
-0.862152
 20
-2.65344
 11
0
 21
-2.78999
  0
LINE
  8
0
 10
0
 20
-2.78999
 11
120.21
 21
-2.78999
  0
LINE
  8
0
 10
120.21
 20
-2.78999
 11
121.072
 21
-2.65344
  0
LINE
  8
0
 10
-0.431076
 20
111.373
 11
-0.819946
 21
111.571
  0
LINE
  8
0
 10
-0.819946
 20
111.571
 11
-1.12857
 21
111.88
  0
LINE
  8
0
 10
-1.12857
 20
111.88
 11
-1.32672
 21
112.269
  0
LINE
  8
0
 10
-1.32672
 20
112.269
 11
-1.39499
 21
112.7
  0
LINE
  8
0
 10
-1.39499
 20
112.7
 11
-1.32672
 21
113.131
  0
LINE
  8
0
 10
-1.32672
 20
113.131
 11
-1.12857
 21
113.52
  0
LINE
  8
0
 10
-1.12857
 20
113.52
 11
-0.819946
 21
113.829
  0
LINE
  8
0
 10
-0.819946
 20
113.829
 11
-0.431076
 21
114.027
  0
LINE
  8
0
 10
-0.431076
 20
114.027
 11
0
 21
114.095
  0
LINE
  8
0
 10
0
 20
114.095
 11
0.431076
 21
114.027
  0
LINE
  8
0
 10
0.431076
 20
114.027
 11
0.819946
 21
113.829
  0
LINE
  8
0
 10
0.819946
 20
113.829
 11
1.12857
 21
113.52
  0
LINE
  8
0
 10
1.12857
 20
113.52
 11
1.32672
 21
113.131
  0
LINE
  8
0
 10
1.32672
 20
113.131
 11
1.39499
 21
112.7
  0
LINE
  8
0
 10
1.39499
 20
112.7
 11
1.32672
 21
112.269
  0
LINE
  8
0
 10
1.32672
 20
112.269
 11
1.12857
 21
111.88
  0
LINE
  8
0
 10
1.12857
 20
111.88
 11
0.819946
 21
111.571
  0
LINE
  8
0
 10
0.819946
 20
111.571
 11
0.431076
 21
111.373
  0
LINE
  8
0
 10
0.431076
 20
111.373
 11
0
 21
111.305
  0
LINE
  8
0
 10
0
 20
111.305
 11
-0.431076
 21
111.373
  0
LINE
  8
0
 10
-1.35999
 20
76.1733
 11
-1.35999
 21
95.56
  0
LINE
  8
0
 10
-1.35999
 20
95.56
 11
1.35999
 21
95.56
  0
LINE
  8
0
 10
1.35999
 20
95.56
 11
1.35999
 21
76.1733
  0
LINE
  8
0
 10
1.35999
 20
76.1733
 11
-1.35999
 21
76.1733
  0
LINE
  8
0
 10
-0.465057
 20
65.2687
 11
-0.884613
 21
65.4824
  0
LINE
  8
0
 10
-0.884613
 20
65.4824
 11
-1.21756
 21
65.8154
  0
LINE
  8
0
 10
-1.21756
 20
65.8154
 11
-1.43134
 21
66.2349
  0
LINE
  8
0
 10
-1.43134
 20
66.2349
 11
-1.50499
 21
66.7
  0
LINE
  8
0
 10
-1.50499
 20
66.7
 11
-1.43134
 21
67.1651
  0
LINE
  8
0
 10
-1.43134
 20
67.1651
 11
-1.21756
 21
67.5846
  0
LINE
  8
0
 10
-1.21756
 20
67.5846
 11
-0.884613
 21
67.9176
  0
LINE
  8
0
 10
-0.884613
 20
67.9176
 11
-0.465057
 21
68.1313
  0
LINE
  8
0
 10
-0.465057
 20
68.1313
 11
0
 21
68.205
  0
LINE
  8
0
 10
0
 20
68.205
 11
0.465057
 21
68.1313
  0
LINE
  8
0
 10
0.465057
 20
68.1313
 11
0.884613
 21
67.9176
  0
LINE
  8
0
 10
0.884613
 20
67.9176
 11
1.21756
 21
67.5846
  0
LINE
  8
0
 10
1.21756
 20
67.5846
 11
1.43134
 21
67.1651
  0
LINE
  8
0
 10
1.43134
 20
67.1651
 11
1.50499
 21
66.7
  0
LINE
  8
0
 10
1.50499
 20
66.7
 11
1.43134
 21
66.2349
  0
LINE
  8
0
 10
1.43134
 20
66.2349
 11
1.21756
 21
65.8154
  0
LINE
  8
0
 10
1.21756
 20
65.8154
 11
0.884613
 21
65.4824
  0
LINE
  8
0
 10
0.884613
 20
65.4824
 11
0.465057
 21
65.2687
  0
LINE
  8
0
 10
0.465057
 20
65.2687
 11
0
 21
65.195
  0
LINE
  8
0
 10
0
 20
65.195
 11
-0.465057
 21
65.2687
  0
LINE
  8
0
 10
-1.35999
 20
37.84
 11
-1.35999
 21
57.2267
  0
LINE
  8
0
 10
-1.35999
 20
57.2267
 11
1.35999
 21
57.2267
  0
LINE
  8
0
 10
1.35999
 20
57.2267
 11
1.35999
 21
37.84
  0
LINE
  8
0
 10
1.35999
 20
37.84
 11
-1.35999
 21
37.84
  0
LINE
  8
0
 10
2.78999
 20
10
 11
2.78999
 21
33.0013
  0
LINE
  8
0
 10
2.78999
 20
33.0013
 11
25.7912
 21
10
  0
LINE
  8
0
 10
25.7912
 20
10
 11
2.78999
 21
10
  0
LINE
  8
0
 10
-0.431076
 20
19.3733
 11
-0.819946
 21
19.5714
  0
LINE
  8
0
 10
-0.819946
 20
19.5714
 11
-1.12857
 21
19.88
  0
LINE
  8
0
 10
-1.12857
 20
19.88
 11
-1.32672
 21
20.2689
  0
LINE
  8
0
 10
-1.32672
 20
20.2689
 11
-1.39499
 21
20.7
  0
LINE
  8
0
 10
-1.39499
 20
20.7
 11
-1.32672
 21
21.1311
  0
LINE
  8
0
 10
-1.32672
 20
21.1311
 11
-1.12857
 21
21.52
  0
LINE
  8
0
 10
-1.12857
 20
21.52
 11
-0.819946
 21
21.8286
  0
LINE
  8
0
 10
-0.819946
 20
21.8286
 11
-0.431076
 21
22.0267
  0
LINE
  8
0
 10
-0.431076
 20
22.0267
 11
0
 21
22.095
  0
LINE
  8
0
 10
0
 20
22.095
 11
0.431076
 21
22.0267
  0
LINE
  8
0
 10
0.431076
 20
22.0267
 11
0.819946
 21
21.8286
  0
LINE
  8
0
 10
0.819946
 20
21.8286
 11
1.12857
 21
21.52
  0
LINE
  8
0
 10
1.12857
 20
21.52
 11
1.32672
 21
21.1311
  0
LINE
  8
0
 10
1.32672
 20
21.1311
 11
1.39499
 21
20.7
  0
LINE
  8
0
 10
1.39499
 20
20.7
 11
1.32672
 21
20.2689
  0
LINE
  8
0
 10
1.32672
 20
20.2689
 11
1.12857
 21
19.88
  0
LINE
  8
0
 10
1.12857
 20
19.88
 11
0.819946
 21
19.5714
  0
LINE
  8
0
 10
0.819946
 20
19.5714
 11
0.431076
 21
19.3733
  0
LINE
  8
0
 10
0.431076
 20
19.3733
 11
0
 21
19.305
  0
LINE
  8
0
 10
0
 20
19.305
 11
-0.431076
 21
19.3733
  0
LINE
  8
0
 10
34.5349
 20
-0.181335
 11
34.1154
 21
0.0324249
  0
LINE
  8
0
 10
34.1154
 20
0.0324249
 11
33.7824
 21
0.365372
  0
LINE
  8
0
 10
33.7824
 20
0.365372
 11
33.5686
 21
0.784927
  0
LINE
  8
0
 10
33.5686
 20
0.784927
 11
33.495
 21
1.25
  0
LINE
  8
0
 10
33.495
 20
1.25
 11
33.5686
 21
1.71506
  0
LINE
  8
0
 10
33.5686
 20
1.71506
 11
33.7824
 21
2.13461
  0
LINE
  8
0
 10
33.7824
 20
2.13461
 11
34.1154
 21
2.46756
  0
LINE
  8
0
 10
34.1154
 20
2.46756
 11
34.5349
 21
2.68134
  0
LINE
  8
0
 10
34.5349
 20
2.68134
 11
35
 21
2.75499
  0
LINE
  8
0
 10
35
 20
2.75499
 11
35.4651
 21
2.68134
  0
LINE
  8
0
 10
35.4651
 20
2.68134
 11
35.8846
 21
2.46756
  0
LINE
  8
0
 10
35.8846
 20
2.46756
 11
36.2176
 21
2.13461
  0
LINE
  8
0
 10
36.2176
 20
2.13461
 11
36.4313
 21
1.71506
  0
LINE
  8
0
 10
36.4313
 20
1.71506
 11
36.505
 21
1.25
  0
LINE
  8
0
 10
36.505
 20
1.25
 11
36.4313
 21
0.784927
  0
LINE
  8
0
 10
36.4313
 20
0.784927
 11
36.2176
 21
0.365372
  0
LINE
  8
0
 10
36.2176
 20
0.365372
 11
35.8846
 21
0.0324249
  0
LINE
  8
0
 10
35.8846
 20
0.0324249
 11
35.4651
 21
-0.181335
  0
LINE
  8
0
 10
35.4651
 20
-0.181335
 11
35
 21
-0.25499
  0
LINE
  8
0
 10
35
 20
-0.25499
 11
34.5349
 21
-0.181335
  0
LINE
  8
0
 10
46.5567
 20
0
 11
46.5567
 21
2.71999
  0
LINE
  8
0
 10
46.5567
 20
2.71999
 11
70.11
 21
2.71999
  0
LINE
  8
0
 10
70.11
 20
2.71999
 11
70.11
 21
0
  0
LINE
  8
0
 10
70.11
 20
0
 11
46.5567
 21
0
  0
LINE
  8
0
 10
-0.109985
 20
0
 11
-0.109985
 21
2.71999
  0
LINE
  8
0
 10
-0.109985
 20
2.71999
 11
23.4433
 21
2.71999
  0
LINE
  8
0
 10
23.4433
 20
2.71999
 11
23.4433
 21
0
  0
LINE
  8
0
 10
23.4433
 20
0
 11
-0.109985
 21
0
  0
LINE
  8
0
 10
50.58
 20
61.3333
 11
48.08
 21
61.3333
  0
LINE
  8
0
 10
48.08
 20
61.3333
 11
48.08
 21
71.495
  0
LINE
  8
0
 10
48.08
 20
71.495
 11
45.58
 21
71.495
  0
LINE
  8
0
 10
45.58
 20
71.495
 11
45.58
 21
70.25
  0
LINE
  8
0
 10
45.58
 20
70.25
 11
43.28
 21
70.25
  0
LINE
  8
0
 10
43.28
 20
70.25
 11
43.28
 21
71.495
  0
LINE
  8
0
 10
43.28
 20
71.495
 11
39.58
 21
71.495
  0
LINE
  8
0
 10
39.58
 20
71.495
 11
39.58
 21
74.395
  0
LINE
  8
0
 10
39.58
 20
74.395
 11
43.28
 21
74.395
  0
LINE
  8
0
 10
43.28
 20
74.395
 11
43.28
 21
75.75
  0
LINE
  8
0
 10
43.28
 20
75.75
 11
45.58
 21
75.75
  0
LINE
  8
0
 10
45.58
 20
75.75
 11
45.58
 21
74.395
  0
LINE
  8
0
 10
45.58
 20
74.395
 11
48.08
 21
74.395
  0
LINE
  8
0
 10
48.08
 20
74.395
 11
48.08
 21
84.6667
  0
LINE
  8
0
 10
48.08
 20
84.6667
 11
50.58
 21
84.6667
  0
LINE
  8
0
 10
50.58
 20
84.6667
 11
50.58
 21
108
  0
LINE
  8
0
 10
50.58
 20
108
 11
6.57999
 21
108
  0
LINE
  8
0
 10
6.57999
 20
108
 11
6.57999
 21
84.6667
  0
LINE
  8
0
 10
6.57999
 20
84.6667
 11
9.29999
 21
84.6667
  0
LINE
  8
0
 10
9.29999
 20
84.6667
 11
9.29999
 21
74.505
  0
LINE
  8
0
 10
9.29999
 20
74.505
 11
11.58
 21
74.505
  0
LINE
  8
0
 10
11.58
 20
74.505
 11
11.58
 21
75.75
  0
LINE
  8
0
 10
11.58
 20
75.75
 11
13.88
 21
75.75
  0
LINE
  8
0
 10
13.88
 20
75.75
 11
13.88
 21
74.505
  0
LINE
  8
0
 10
13.88
 20
74.505
 11
17.58
 21
74.505
  0
LINE
  8
0
 10
17.58
 20
74.505
 11
17.58
 21
71.605
  0
LINE
  8
0
 10
17.58
 20
71.605
 11
13.88
 21
71.605
  0
LINE
  8
0
 10
13.88
 20
71.605
 11
13.88
 21
70.25
  0
LINE
  8
0
 10
13.88
 20
70.25
 11
11.58
 21
70.25
  0
LINE
  8
0
 10
11.58
 20
70.25
 11
11.58
 21
71.605
  0
LINE
  8
0
 10
11.58
 20
71.605
 11
9.29999
 21
71.605
  0
LINE
  8
0
 10
9.29999
 20
71.605
 11
9.29999
 21
61.3333
  0
LINE
  8
0
 10
9.29999
 20
61.3333
 11
6.57999
 21
61.3333
  0
LINE
  8
0
 10
6.57999
 20
61.3333
 11
6.57999
 21
38
  0
LINE
  8
0
 10
6.57999
 20
38
 11
50.58
 21
38
  0
LINE
  8
0
 10
50.58
 20
38
 11
50.58
 21
61.3333
  0
LINE
  8
0
 10
100
 20
31.6667
 11
97.5
 21
31.6667
  0
LINE
  8
0
 10
97.5
 20
31.6667
 11
97.5
 21
39.745
  0
LINE
  8
0
 10
97.5
 20
39.745
 11
95
 21
39.745
  0
LINE
  8
0
 10
95
 20
39.745
 11
95
 21
38.5
  0
LINE
  8
0
 10
95
 20
38.5
 11
92.7
 21
38.5
  0
LINE
  8
0
 10
92.7
 20
38.5
 11
92.7
 21
39.745
  0
LINE
  8
0
 10
92.7
 20
39.745
 11
89
 21
39.745
  0
LINE
  8
0
 10
89
 20
39.745
 11
89
 21
42.645
  0
LINE
  8
0
 10
89
 20
42.645
 11
92.7
 21
42.645
  0
LINE
  8
0
 10
92.7
 20
42.645
 11
92.7
 21
44
  0
LINE
  8
0
 10
92.7
 20
44
 11
95
 21
44
  0
LINE
  8
0
 10
95
 20
44
 11
95
 21
42.645
  0
LINE
  8
0
 10
95
 20
42.645
 11
97.5
 21
42.645
  0
LINE
  8
0
 10
97.5
 20
42.645
 11
97.5
 21
50.8333
  0
LINE
  8
0
 10
97.5
 20
50.8333
 11
100
 21
50.8333
  0
LINE
  8
0
 10
100
 20
50.8333
 11
100
 21
70
  0
LINE
  8
0
 10
100
 20
70
 11
56
 21
70
  0
LINE
  8
0
 10
56
 20
70
 11
56
 21
50.8333
  0
LINE
  8
0
 10
56
 20
50.8333
 11
58.72
 21
50.8333
  0
LINE
  8
0
 10
58.72
 20
50.8333
 11
58.72
 21
42.755
  0
LINE
  8
0
 10
58.72
 20
42.755
 11
61
 21
42.755
  0
LINE
  8
0
 10
61
 20
42.755
 11
61
 21
44
  0
LINE
  8
0
 10
61
 20
44
 11
63.3
 21
44
  0
LINE
  8
0
 10
63.3
 20
44
 11
63.3
 21
42.755
  0
LINE
  8
0
 10
63.3
 20
42.755
 11
67
 21
42.755
  0
LINE
  8
0
 10
67
 20
42.755
 11
67
 21
39.855
  0
LINE
  8
0
 10
67
 20
39.855
 11
63.3
 21
39.855
  0
LINE
  8
0
 10
63.3
 20
39.855
 11
63.3
 21
38.5
  0
LINE
  8
0
 10
63.3
 20
38.5
 11
61
 21
38.5
  0
LINE
  8
0
 10
61
 20
38.5
 11
61
 21
39.855
  0
LINE
  8
0
 10
61
 20
39.855
 11
58.72
 21
39.855
  0
LINE
  8
0
 10
58.72
 20
39.855
 11
58.72
 21
31.6667
  0
LINE
  8
0
 10
58.72
 20
31.6667
 11
56
 21
31.6667
  0
LINE
  8
0
 10
56
 20
31.6667
 11
56
 21
12.5
  0
LINE
  8
0
 10
56
 20
12.5
 11
100
 21
12.5
  0
LINE
  8
0
 10
100
 20
12.5
 11
100
 21
31.6667
  0
ENDSEC
  0
SECTION
  2
OBJECTS
  0
DICTIONARY
  0
ENDSEC
  0
EOF
