  0
SECTION
  2
BLOCKS
  0
ENDSEC
  0
SECTION
  2
ENTITIES
  0
LINE
  8
0
 10
23.875
 20
54.75
 11
28.6125
 21
54.75
  0
LINE
  8
0
 10
28.6125
 20
54.75
 11
28.6125
 21
57
  0
LINE
  8
0
 10
28.6125
 20
57
 11
27.25
 21
57
  0
LINE
  8
0
 10
27.25
 20
57
 11
27.25
 21
59.3
  0
LINE
  8
0
 10
27.25
 20
59.3
 11
28.6125
 21
59.3
  0
LINE
  8
0
 10
28.6125
 20
59.3
 11
28.6125
 21
62
  0
LINE
  8
0
 10
28.6125
 20
62
 11
31.3875
 21
62
  0
LINE
  8
0
 10
31.3875
 20
62
 11
31.3875
 21
59.3
  0
LINE
  8
0
 10
31.3875
 20
59.3
 11
32.75
 21
59.3
  0
LINE
  8
0
 10
32.75
 20
59.3
 11
32.75
 21
57
  0
LINE
  8
0
 10
32.75
 20
57
 11
31.3875
 21
57
  0
LINE
  8
0
 10
31.3875
 20
57
 11
31.3875
 21
54.75
  0
LINE
  8
0
 10
31.3875
 20
54.75
 11
36.125
 21
54.75
  0
LINE
  8
0
 10
36.125
 20
54.75
 11
36.125
 21
52
  0
LINE
  8
0
 10
36.125
 20
52
 11
47.875
 21
52
  0
LINE
  8
0
 10
47.875
 20
52
 11
47.875
 21
54.75
  0
LINE
  8
0
 10
47.875
 20
54.75
 11
57.5
 21
54.75
  0
LINE
  8
0
 10
57.5
 20
54.75
 11
57.5
 21
59.4583
  0
LINE
  8
0
 10
57.5
 20
59.4583
 11
60
 21
59.4583
  0
LINE
  8
0
 10
60
 20
59.4583
 11
60
 21
66.5417
  0
LINE
  8
0
 10
60
 20
66.5417
 11
57.5
 21
66.5417
  0
LINE
  8
0
 10
57.5
 20
66.5417
 11
57.5
 21
71.5
  0
LINE
  8
0
 10
57.5
 20
71.5
 11
47.875
 21
71.5
  0
LINE
  8
0
 10
47.875
 20
71.5
 11
47.875
 21
74
  0
LINE
  8
0
 10
47.875
 20
74
 11
36.125
 21
74
  0
LINE
  8
0
 10
36.125
 20
74
 11
36.125
 21
71.5
  0
LINE
  8
0
 10
36.125
 20
71.5
 11
31.3875
 21
71.5
  0
LINE
  8
0
 10
31.3875
 20
71.5
 11
31.3875
 21
69
  0
LINE
  8
0
 10
31.3875
 20
69
 11
32.75
 21
69
  0
LINE
  8
0
 10
32.75
 20
69
 11
32.75
 21
66.7
  0
LINE
  8
0
 10
32.75
 20
66.7
 11
31.3875
 21
66.7
  0
LINE
  8
0
 10
31.3875
 20
66.7
 11
31.3875
 21
64
  0
LINE
  8
0
 10
31.3875
 20
64
 11
28.6125
 21
64
  0
LINE
  8
0
 10
28.6125
 20
64
 11
28.6125
 21
66.7
  0
LINE
  8
0
 10
28.6125
 20
66.7
 11
27.25
 21
66.7
  0
LINE
  8
0
 10
27.25
 20
66.7
 11
27.25
 21
69
  0
LINE
  8
0
 10
27.25
 20
69
 11
28.6125
 21
69
  0
LINE
  8
0
 10
28.6125
 20
69
 11
28.6125
 21
71.5
  0
LINE
  8
0
 10
28.6125
 20
71.5
 11
23.875
 21
71.5
  0
LINE
  8
0
 10
23.875
 20
71.5
 11
23.875
 21
74
  0
LINE
  8
0
 10
23.875
 20
74
 11
12.125
 21
74
  0
LINE
  8
0
 10
12.125
 20
74
 11
12.125
 21
71.5
  0
LINE
  8
0
 10
12.125
 20
71.5
 11
2.75
 21
71.5
  0
LINE
  8
0
 10
2.75
 20
71.5
 11
2.75
 21
66.5417
  0
LINE
  8
0
 10
2.75
 20
66.5417
 11
0
 21
66.5417
  0
LINE
  8
0
 10
0
 20
66.5417
 11
0
 21
59.4583
  0
LINE
  8
0
 10
0
 20
59.4583
 11
2.75
 21
59.4583
  0
LINE
  8
0
 10
2.75
 20
59.4583
 11
2.75
 21
54.75
  0
LINE
  8
0
 10
2.75
 20
54.75
 11
12.125
 21
54.75
  0
LINE
  8
0
 10
12.125
 20
54.75
 11
12.125
 21
52
  0
LINE
  8
0
 10
12.125
 20
52
 11
23.875
 21
52
  0
LINE
  8
0
 10
23.875
 20
52
 11
23.875
 21
54.75
  0
LINE
  8
0
 10
-14.7
 20
24.6125
 11
-14.7
 21
23.25
  0
LINE
  8
0
 10
-14.7
 20
23.25
 11
-17
 21
23.25
  0
LINE
  8
0
 10
-17
 20
23.25
 11
-17
 21
24.6125
  0
LINE
  8
0
 10
-17
 20
24.6125
 11
-19.25
 21
24.6125
  0
LINE
  8
0
 10
-19.25
 20
24.6125
 11
-19.25
 21
20.675
  0
LINE
  8
0
 10
-19.25
 20
20.675
 11
-22
 21
20.675
  0
LINE
  8
0
 10
-22
 20
20.675
 11
-22
 21
10.525
  0
LINE
  8
0
 10
-22
 20
10.525
 11
-19.25
 21
10.525
  0
LINE
  8
0
 10
-19.25
 20
10.525
 11
-19.25
 21
0
  0
LINE
  8
0
 10
-19.25
 20
0
 11
-2.75
 21
0
  0
LINE
  8
0
 10
-2.75
 20
0
 11
-2.75
 21
10.525
  0
LINE
  8
0
 10
-2.75
 20
10.525
 11
0
 21
10.525
  0
LINE
  8
0
 10
0
 20
10.525
 11
0
 21
20.675
  0
LINE
  8
0
 10
0
 20
20.675
 11
-2.75
 21
20.675
  0
LINE
  8
0
 10
-2.75
 20
20.675
 11
-2.75
 21
24.6125
  0
LINE
  8
0
 10
-2.75
 20
24.6125
 11
-5
 21
24.6125
  0
LINE
  8
0
 10
-5
 20
24.6125
 11
-5
 21
23.25
  0
LINE
  8
0
 10
-5
 20
23.25
 11
-7.29999
 21
23.25
  0
LINE
  8
0
 10
-7.29999
 20
23.25
 11
-7.29999
 21
24.6125
  0
LINE
  8
0
 10
-7.29999
 20
24.6125
 11
-10
 21
24.6125
  0
LINE
  8
0
 10
-10
 20
24.6125
 11
-10
 21
27.3875
  0
LINE
  8
0
 10
-10
 20
27.3875
 11
-7.29999
 21
27.3875
  0
LINE
  8
0
 10
-7.29999
 20
27.3875
 11
-7.29999
 21
28.75
  0
LINE
  8
0
 10
-7.29999
 20
28.75
 11
-5
 21
28.75
  0
LINE
  8
0
 10
-5
 20
28.75
 11
-5
 21
27.3875
  0
LINE
  8
0
 10
-5
 20
27.3875
 11
-2.75
 21
27.3875
  0
LINE
  8
0
 10
-2.75
 20
27.3875
 11
-2.75
 21
31.325
  0
LINE
  8
0
 10
-2.75
 20
31.325
 11
0
 21
31.325
  0
LINE
  8
0
 10
0
 20
31.325
 11
0
 21
41.475
  0
LINE
  8
0
 10
0
 20
41.475
 11
-2.75
 21
41.475
  0
LINE
  8
0
 10
-2.75
 20
41.475
 11
-2.75
 21
52
  0
LINE
  8
0
 10
-2.75
 20
52
 11
-7.33333
 21
52
  0
LINE
  8
0
 10
-7.33333
 20
52
 11
-7.33333
 21
49.5
  0
LINE
  8
0
 10
-7.33333
 20
49.5
 11
-14.6667
 21
49.5
  0
LINE
  8
0
 10
-14.6667
 20
49.5
 11
-14.6667
 21
52
  0
LINE
  8
0
 10
-14.6667
 20
52
 11
-19.25
 21
52
  0
LINE
  8
0
 10
-19.25
 20
52
 11
-19.25
 21
41.475
  0
LINE
  8
0
 10
-19.25
 20
41.475
 11
-22
 21
41.475
  0
LINE
  8
0
 10
-22
 20
41.475
 11
-22
 21
31.325
  0
LINE
  8
0
 10
-22
 20
31.325
 11
-19.25
 21
31.325
  0
LINE
  8
0
 10
-19.25
 20
31.325
 11
-19.25
 21
27.3875
  0
LINE
  8
0
 10
-19.25
 20
27.3875
 11
-17
 21
27.3875
  0
LINE
  8
0
 10
-17
 20
27.3875
 11
-17
 21
28.75
  0
LINE
  8
0
 10
-17
 20
28.75
 11
-14.7
 21
28.75
  0
LINE
  8
0
 10
-14.7
 20
28.75
 11
-14.7
 21
27.3875
  0
LINE
  8
0
 10
-14.7
 20
27.3875
 11
-12
 21
27.3875
  0
LINE
  8
0
 10
-12
 20
27.3875
 11
-12
 21
24.6125
  0
LINE
  8
0
 10
-12
 20
24.6125
 11
-14.7
 21
24.6125
  0
LINE
  8
0
 10
-7.92876
 20
43.1804
 11
-8.31555
 21
43.3775
  0
LINE
  8
0
 10
-8.31555
 20
43.3775
 11
-8.6225
 21
43.6844
  0
LINE
  8
0
 10
-8.6225
 20
43.6844
 11
-8.81958
 21
44.0712
  0
LINE
  8
0
 10
-8.81958
 20
44.0712
 11
-8.8875
 21
44.5
  0
LINE
  8
0
 10
-8.8875
 20
44.5
 11
-8.81958
 21
44.9288
  0
LINE
  8
0
 10
-8.81958
 20
44.9288
 11
-8.6225
 21
45.3156
  0
LINE
  8
0
 10
-8.6225
 20
45.3156
 11
-8.31555
 21
45.6225
  0
LINE
  8
0
 10
-8.31555
 20
45.6225
 11
-7.92876
 21
45.8196
  0
LINE
  8
0
 10
-7.92876
 20
45.8196
 11
-7.5
 21
45.8875
  0
LINE
  8
0
 10
-7.5
 20
45.8875
 11
-7.07123
 21
45.8196
  0
LINE
  8
0
 10
-7.07123
 20
45.8196
 11
-6.68443
 21
45.6225
  0
LINE
  8
0
 10
-6.68443
 20
45.6225
 11
-6.37749
 21
45.3156
  0
LINE
  8
0
 10
-6.37749
 20
45.3156
 11
-6.1804
 21
44.9288
  0
LINE
  8
0
 10
-6.1804
 20
44.9288
 11
-6.11249
 21
44.5
  0
LINE
  8
0
 10
-6.11249
 20
44.5
 11
-6.1804
 21
44.0712
  0
LINE
  8
0
 10
-6.1804
 20
44.0712
 11
-6.37749
 21
43.6844
  0
LINE
  8
0
 10
-6.37749
 20
43.6844
 11
-6.68443
 21
43.3775
  0
LINE
  8
0
 10
-6.68443
 20
43.3775
 11
-7.07123
 21
43.1804
  0
LINE
  8
0
 10
-7.07123
 20
43.1804
 11
-7.5
 21
43.1125
  0
LINE
  8
0
 10
-7.5
 20
43.1125
 11
-7.92876
 21
43.1804
  0
LINE
  8
0
 10
-7.92876
 20
6.1804
 11
-8.31555
 21
6.37749
  0
LINE
  8
0
 10
-8.31555
 20
6.37749
 11
-8.6225
 21
6.68443
  0
LINE
  8
0
 10
-8.6225
 20
6.68443
 11
-8.81958
 21
7.07123
  0
LINE
  8
0
 10
-8.81958
 20
7.07123
 11
-8.8875
 21
7.5
  0
LINE
  8
0
 10
-8.8875
 20
7.5
 11
-8.81958
 21
7.92876
  0
LINE
  8
0
 10
-8.81958
 20
7.92876
 11
-8.6225
 21
8.31555
  0
LINE
  8
0
 10
-8.6225
 20
8.31555
 11
-8.31555
 21
8.6225
  0
LINE
  8
0
 10
-8.31555
 20
8.6225
 11
-7.92876
 21
8.81958
  0
LINE
  8
0
 10
-7.92876
 20
8.81958
 11
-7.5
 21
8.8875
  0
LINE
  8
0
 10
-7.5
 20
8.8875
 11
-7.07123
 21
8.81958
  0
LINE
  8
0
 10
-7.07123
 20
8.81958
 11
-6.68443
 21
8.6225
  0
LINE
  8
0
 10
-6.68443
 20
8.6225
 11
-6.37749
 21
8.31555
  0
LINE
  8
0
 10
-6.37749
 20
8.31555
 11
-6.1804
 21
7.92876
  0
LINE
  8
0
 10
-6.1804
 20
7.92876
 11
-6.11249
 21
7.5
  0
LINE
  8
0
 10
-6.11249
 20
7.5
 11
-6.1804
 21
7.07123
  0
LINE
  8
0
 10
-6.1804
 20
7.07123
 11
-6.37749
 21
6.68443
  0
LINE
  8
0
 10
-6.37749
 20
6.68443
 11
-6.68443
 21
6.37749
  0
LINE
  8
0
 10
-6.68443
 20
6.37749
 11
-7.07123
 21
6.1804
  0
LINE
  8
0
 10
-7.07123
 20
6.1804
 11
-7.5
 21
6.11249
  0
LINE
  8
0
 10
-7.5
 20
6.11249
 11
-7.92876
 21
6.1804
  0
LINE
  8
0
 10
79.25
 20
10.525
 11
82
 21
10.525
  0
LINE
  8
0
 10
82
 20
10.525
 11
82
 21
20.675
  0
LINE
  8
0
 10
82
 20
20.675
 11
79.25
 21
20.675
  0
LINE
  8
0
 10
79.25
 20
20.675
 11
79.25
 21
24.6125
  0
LINE
  8
0
 10
79.25
 20
24.6125
 11
77
 21
24.6125
  0
LINE
  8
0
 10
77
 20
24.6125
 11
77
 21
23.25
  0
LINE
  8
0
 10
77
 20
23.25
 11
74.7
 21
23.25
  0
LINE
  8
0
 10
74.7
 20
23.25
 11
74.7
 21
24.6125
  0
LINE
  8
0
 10
74.7
 20
24.6125
 11
72
 21
24.6125
  0
LINE
  8
0
 10
72
 20
24.6125
 11
72
 21
27.3875
  0
LINE
  8
0
 10
72
 20
27.3875
 11
74.7
 21
27.3875
  0
LINE
  8
0
 10
74.7
 20
27.3875
 11
74.7
 21
28.75
  0
LINE
  8
0
 10
74.7
 20
28.75
 11
77
 21
28.75
  0
LINE
  8
0
 10
77
 20
28.75
 11
77
 21
27.3875
  0
LINE
  8
0
 10
77
 20
27.3875
 11
79.25
 21
27.3875
  0
LINE
  8
0
 10
79.25
 20
27.3875
 11
79.25
 21
31.325
  0
LINE
  8
0
 10
79.25
 20
31.325
 11
82
 21
31.325
  0
LINE
  8
0
 10
82
 20
31.325
 11
82
 21
41.475
  0
LINE
  8
0
 10
82
 20
41.475
 11
79.25
 21
41.475
  0
LINE
  8
0
 10
79.25
 20
41.475
 11
79.25
 21
52
  0
LINE
  8
0
 10
79.25
 20
52
 11
74.6667
 21
52
  0
LINE
  8
0
 10
74.6667
 20
52
 11
74.6667
 21
49.5
  0
LINE
  8
0
 10
74.6667
 20
49.5
 11
67.3333
 21
49.5
  0
LINE
  8
0
 10
67.3333
 20
49.5
 11
67.3333
 21
52
  0
LINE
  8
0
 10
67.3333
 20
52
 11
62.75
 21
52
  0
LINE
  8
0
 10
62.75
 20
52
 11
62.75
 21
41.475
  0
LINE
  8
0
 10
62.75
 20
41.475
 11
60
 21
41.475
  0
LINE
  8
0
 10
60
 20
41.475
 11
60
 21
31.325
  0
LINE
  8
0
 10
60
 20
31.325
 11
62.75
 21
31.325
  0
LINE
  8
0
 10
62.75
 20
31.325
 11
62.75
 21
27.3875
  0
LINE
  8
0
 10
62.75
 20
27.3875
 11
65
 21
27.3875
  0
LINE
  8
0
 10
65
 20
27.3875
 11
65
 21
28.75
  0
LINE
  8
0
 10
65
 20
28.75
 11
67.3
 21
28.75
  0
LINE
  8
0
 10
67.3
 20
28.75
 11
67.3
 21
27.3875
  0
LINE
  8
0
 10
67.3
 20
27.3875
 11
70
 21
27.3875
  0
LINE
  8
0
 10
70
 20
27.3875
 11
70
 21
24.6125
  0
LINE
  8
0
 10
70
 20
24.6125
 11
67.3
 21
24.6125
  0
LINE
  8
0
 10
67.3
 20
24.6125
 11
67.3
 21
23.25
  0
LINE
  8
0
 10
67.3
 20
23.25
 11
65
 21
23.25
  0
LINE
  8
0
 10
65
 20
23.25
 11
65
 21
24.6125
  0
LINE
  8
0
 10
65
 20
24.6125
 11
62.75
 21
24.6125
  0
LINE
  8
0
 10
62.75
 20
24.6125
 11
62.75
 21
20.675
  0
LINE
  8
0
 10
62.75
 20
20.675
 11
60
 21
20.675
  0
LINE
  8
0
 10
60
 20
20.675
 11
60
 21
10.525
  0
LINE
  8
0
 10
60
 20
10.525
 11
62.75
 21
10.525
  0
LINE
  8
0
 10
62.75
 20
10.525
 11
62.75
 21
0
  0
LINE
  8
0
 10
62.75
 20
0
 11
79.25
 21
0
  0
LINE
  8
0
 10
79.25
 20
0
 11
79.25
 21
10.525
  0
LINE
  8
0
 10
67.0712
 20
43.1804
 11
66.6844
 21
43.3775
  0
LINE
  8
0
 10
66.6844
 20
43.3775
 11
66.3775
 21
43.6844
  0
LINE
  8
0
 10
66.3775
 20
43.6844
 11
66.1804
 21
44.0712
  0
LINE
  8
0
 10
66.1804
 20
44.0712
 11
66.1125
 21
44.5
  0
LINE
  8
0
 10
66.1125
 20
44.5
 11
66.1804
 21
44.9288
  0
LINE
  8
0
 10
66.1804
 20
44.9288
 11
66.3775
 21
45.3156
  0
LINE
  8
0
 10
66.3775
 20
45.3156
 11
66.6844
 21
45.6225
  0
LINE
  8
0
 10
66.6844
 20
45.6225
 11
67.0712
 21
45.8196
  0
LINE
  8
0
 10
67.0712
 20
45.8196
 11
67.5
 21
45.8875
  0
LINE
  8
0
 10
67.5
 20
45.8875
 11
67.9288
 21
45.8196
  0
LINE
  8
0
 10
67.9288
 20
45.8196
 11
68.3156
 21
45.6225
  0
LINE
  8
0
 10
68.3156
 20
45.6225
 11
68.6225
 21
45.3156
  0
LINE
  8
0
 10
68.6225
 20
45.3156
 11
68.8196
 21
44.9288
  0
LINE
  8
0
 10
68.8196
 20
44.9288
 11
68.8875
 21
44.5
  0
LINE
  8
0
 10
68.8875
 20
44.5
 11
68.8196
 21
44.0712
  0
LINE
  8
0
 10
68.8196
 20
44.0712
 11
68.6225
 21
43.6844
  0
LINE
  8
0
 10
68.6225
 20
43.6844
 11
68.3156
 21
43.3775
  0
LINE
  8
0
 10
68.3156
 20
43.3775
 11
67.9288
 21
43.1804
  0
LINE
  8
0
 10
67.9288
 20
43.1804
 11
67.5
 21
43.1125
  0
LINE
  8
0
 10
67.5
 20
43.1125
 11
67.0712
 21
43.1804
  0
LINE
  8
0
 10
67.0712
 20
6.1804
 11
66.6844
 21
6.37749
  0
LINE
  8
0
 10
66.6844
 20
6.37749
 11
66.3775
 21
6.68443
  0
LINE
  8
0
 10
66.3775
 20
6.68443
 11
66.1804
 21
7.07123
  0
LINE
  8
0
 10
66.1804
 20
7.07123
 11
66.1125
 21
7.5
  0
LINE
  8
0
 10
66.1125
 20
7.5
 11
66.1804
 21
7.92876
  0
LINE
  8
0
 10
66.1804
 20
7.92876
 11
66.3775
 21
8.31555
  0
LINE
  8
0
 10
66.3775
 20
8.31555
 11
66.6844
 21
8.6225
  0
LINE
  8
0
 10
66.6844
 20
8.6225
 11
67.0712
 21
8.81958
  0
LINE
  8
0
 10
67.0712
 20
8.81958
 11
67.5
 21
8.8875
  0
LINE
  8
0
 10
67.5
 20
8.8875
 11
67.9288
 21
8.81958
  0
LINE
  8
0
 10
67.9288
 20
8.81958
 11
68.3156
 21
8.6225
  0
LINE
  8
0
 10
68.3156
 20
8.6225
 11
68.6225
 21
8.31555
  0
LINE
  8
0
 10
68.6225
 20
8.31555
 11
68.8196
 21
7.92876
  0
LINE
  8
0
 10
68.8196
 20
7.92876
 11
68.8875
 21
7.5
  0
LINE
  8
0
 10
68.8875
 20
7.5
 11
68.8196
 21
7.07123
  0
LINE
  8
0
 10
68.8196
 20
7.07123
 11
68.6225
 21
6.68443
  0
LINE
  8
0
 10
68.6225
 20
6.68443
 11
68.3156
 21
6.37749
  0
LINE
  8
0
 10
68.3156
 20
6.37749
 11
67.9288
 21
6.1804
  0
LINE
  8
0
 10
67.9288
 20
6.1804
 11
67.5
 21
6.11249
  0
LINE
  8
0
 10
67.5
 20
6.11249
 11
67.0712
 21
6.1804
  0
LINE
  8
0
 10
60
 20
10.4
 11
57.5
 21
10.4
  0
LINE
  8
0
 10
57.5
 20
10.4
 11
57.5
 21
20.8
  0
LINE
  8
0
 10
57.5
 20
20.8
 11
60
 21
20.8
  0
LINE
  8
0
 10
60
 20
20.8
 11
60
 21
25.4346
  0
LINE
  8
0
 10
60
 20
25.4346
 11
59.8725
 21
25.1844
  0
LINE
  8
0
 10
59.8725
 20
25.1844
 11
59.5656
 21
24.8775
  0
LINE
  8
0
 10
59.5656
 20
24.8775
 11
59.1788
 21
24.6804
  0
LINE
  8
0
 10
59.1788
 20
24.6804
 11
58.75
 21
24.6125
  0
LINE
  8
0
 10
58.75
 20
24.6125
 11
58.3212
 21
24.6804
  0
LINE
  8
0
 10
58.3212
 20
24.6804
 11
57.9344
 21
24.8775
  0
LINE
  8
0
 10
57.9344
 20
24.8775
 11
57.6275
 21
25.1844
  0
LINE
  8
0
 10
57.6275
 20
25.1844
 11
57.4304
 21
25.5712
  0
LINE
  8
0
 10
57.4304
 20
25.5712
 11
57.3625
 21
26
  0
LINE
  8
0
 10
57.3625
 20
26
 11
57.4304
 21
26.4288
  0
LINE
  8
0
 10
57.4304
 20
26.4288
 11
57.6275
 21
26.8156
  0
LINE
  8
0
 10
57.6275
 20
26.8156
 11
57.9344
 21
27.1225
  0
LINE
  8
0
 10
57.9344
 20
27.1225
 11
58.3212
 21
27.3196
  0
LINE
  8
0
 10
58.3212
 20
27.3196
 11
58.75
 21
27.3875
  0
LINE
  8
0
 10
58.75
 20
27.3875
 11
59.1788
 21
27.3196
  0
LINE
  8
0
 10
59.1788
 20
27.3196
 11
59.5656
 21
27.1225
  0
LINE
  8
0
 10
59.5656
 20
27.1225
 11
59.8725
 21
26.8156
  0
LINE
  8
0
 10
59.8725
 20
26.8156
 11
60
 21
26.5653
  0
LINE
  8
0
 10
60
 20
26.5653
 11
60
 21
31.2
  0
LINE
  8
0
 10
60
 20
31.2
 11
57.5
 21
31.2
  0
LINE
  8
0
 10
57.5
 20
31.2
 11
57.5
 21
41.6
  0
LINE
  8
0
 10
57.5
 20
41.6
 11
60
 21
41.6
  0
LINE
  8
0
 10
60
 20
41.6
 11
60
 21
52
  0
LINE
  8
0
 10
60
 20
52
 11
48
 21
52
  0
LINE
  8
0
 10
48
 20
52
 11
48
 21
49.25
  0
LINE
  8
0
 10
48
 20
49.25
 11
36
 21
49.25
  0
LINE
  8
0
 10
36
 20
49.25
 11
36
 21
52
  0
LINE
  8
0
 10
36
 20
52
 11
30.5653
 21
52
  0
LINE
  8
0
 10
30.5653
 20
52
 11
30.8156
 21
51.8725
  0
LINE
  8
0
 10
30.8156
 20
51.8725
 11
31.1225
 21
51.5656
  0
LINE
  8
0
 10
31.1225
 20
51.5656
 11
31.3196
 21
51.1788
  0
LINE
  8
0
 10
31.3196
 20
51.1788
 11
31.3875
 21
50.75
  0
LINE
  8
0
 10
31.3875
 20
50.75
 11
31.3196
 21
50.3212
  0
LINE
  8
0
 10
31.3196
 20
50.3212
 11
31.1225
 21
49.9344
  0
LINE
  8
0
 10
31.1225
 20
49.9344
 11
30.8156
 21
49.6275
  0
LINE
  8
0
 10
30.8156
 20
49.6275
 11
30.4288
 21
49.4304
  0
LINE
  8
0
 10
30.4288
 20
49.4304
 11
30
 21
49.3625
  0
LINE
  8
0
 10
30
 20
49.3625
 11
29.5712
 21
49.4304
  0
LINE
  8
0
 10
29.5712
 20
49.4304
 11
29.1844
 21
49.6275
  0
LINE
  8
0
 10
29.1844
 20
49.6275
 11
28.8775
 21
49.9344
  0
LINE
  8
0
 10
28.8775
 20
49.9344
 11
28.6804
 21
50.3212
  0
LINE
  8
0
 10
28.6804
 20
50.3212
 11
28.6125
 21
50.75
  0
LINE
  8
0
 10
28.6125
 20
50.75
 11
28.6804
 21
51.1788
  0
LINE
  8
0
 10
28.6804
 20
51.1788
 11
28.8775
 21
51.5656
  0
LINE
  8
0
 10
28.8775
 20
51.5656
 11
29.1844
 21
51.8725
  0
LINE
  8
0
 10
29.1844
 20
51.8725
 11
29.4346
 21
52
  0
LINE
  8
0
 10
29.4346
 20
52
 11
24
 21
52
  0
LINE
  8
0
 10
24
 20
52
 11
24
 21
49.25
  0
LINE
  8
0
 10
24
 20
49.25
 11
12
 21
49.25
  0
LINE
  8
0
 10
12
 20
49.25
 11
12
 21
52
  0
LINE
  8
0
 10
12
 20
52
 11
0
 21
52
  0
LINE
  8
0
 10
0
 20
52
 11
0
 21
41.6
  0
LINE
  8
0
 10
0
 20
41.6
 11
2.75
 21
41.6
  0
LINE
  8
0
 10
2.75
 20
41.6
 11
2.75
 21
31.2
  0
LINE
  8
0
 10
2.75
 20
31.2
 11
0
 21
31.2
  0
LINE
  8
0
 10
0
 20
31.2
 11
0
 21
26.5653
  0
LINE
  8
0
 10
0
 20
26.5653
 11
0.127487
 21
26.8156
  0
LINE
  8
0
 10
0.127487
 20
26.8156
 11
0.434433
 21
27.1225
  0
LINE
  8
0
 10
0.434433
 20
27.1225
 11
0.821228
 21
27.3196
  0
LINE
  8
0
 10
0.821228
 20
27.3196
 11
1.25
 21
27.3875
  0
LINE
  8
0
 10
1.25
 20
27.3875
 11
1.67876
 21
27.3196
  0
LINE
  8
0
 10
1.67876
 20
27.3196
 11
2.06555
 21
27.1225
  0
LINE
  8
0
 10
2.06555
 20
27.1225
 11
2.3725
 21
26.8156
  0
LINE
  8
0
 10
2.3725
 20
26.8156
 11
2.56958
 21
26.4288
  0
LINE
  8
0
 10
2.56958
 20
26.4288
 11
2.6375
 21
26
  0
LINE
  8
0
 10
2.6375
 20
26
 11
2.56958
 21
25.5712
  0
LINE
  8
0
 10
2.56958
 20
25.5712
 11
2.3725
 21
25.1844
  0
LINE
  8
0
 10
2.3725
 20
25.1844
 11
2.06555
 21
24.8775
  0
LINE
  8
0
 10
2.06555
 20
24.8775
 11
1.67876
 21
24.6804
  0
LINE
  8
0
 10
1.67876
 20
24.6804
 11
1.24998
 21
24.6125
  0
LINE
  8
0
 10
1.24998
 20
24.6125
 11
0.821228
 21
24.6804
  0
LINE
  8
0
 10
0.821228
 20
24.6804
 11
0.434433
 21
24.8775
  0
LINE
  8
0
 10
0.434433
 20
24.8775
 11
0.127487
 21
25.1844
  0
LINE
  8
0
 10
0.127487
 20
25.1844
 11
0
 21
25.4346
  0
LINE
  8
0
 10
0
 20
25.4346
 11
0
 21
20.8
  0
LINE
  8
0
 10
0
 20
20.8
 11
2.75
 21
20.8
  0
LINE
  8
0
 10
2.75
 20
20.8
 11
2.75
 21
10.4
  0
LINE
  8
0
 10
2.75
 20
10.4
 11
0
 21
10.4
  0
LINE
  8
0
 10
0
 20
10.4
 11
0
 21
0
  0
LINE
  8
0
 10
0
 20
0
 11
60
 21
0
  0
LINE
  8
0
 10
60
 20
0
 11
60
 21
10.4
  0
LINE
  8
0
 10
7.7412
 20
43.2035
 11
7.50772
 21
43.3224
  0
LINE
  8
0
 10
7.50772
 20
43.3224
 11
7.32243
 21
43.5077
  0
LINE
  8
0
 10
7.32243
 20
43.5077
 11
7.20348
 21
43.7412
  0
LINE
  8
0
 10
7.20348
 20
43.7412
 11
7.16249
 21
44
  0
LINE
  8
0
 10
7.16249
 20
44
 11
7.20348
 21
44.2588
  0
LINE
  8
0
 10
7.20348
 20
44.2588
 11
7.32243
 21
44.4923
  0
LINE
  8
0
 10
7.32243
 20
44.4923
 11
7.50772
 21
44.6776
  0
LINE
  8
0
 10
7.50772
 20
44.6776
 11
7.7412
 21
44.7965
  0
LINE
  8
0
 10
7.7412
 20
44.7965
 11
8
 21
44.8375
  0
LINE
  8
0
 10
8
 20
44.8375
 11
8.25879
 21
44.7965
  0
LINE
  8
0
 10
8.25879
 20
44.7965
 11
8.49226
 21
44.6776
  0
LINE
  8
0
 10
8.49226
 20
44.6776
 11
8.67755
 21
44.4923
  0
LINE
  8
0
 10
8.67755
 20
44.4923
 11
8.79651
 21
44.2588
  0
LINE
  8
0
 10
8.79651
 20
44.2588
 11
8.83749
 21
44
  0
LINE
  8
0
 10
8.83749
 20
44
 11
8.79651
 21
43.7412
  0
LINE
  8
0
 10
8.79651
 20
43.7412
 11
8.67755
 21
43.5077
  0
LINE
  8
0
 10
8.67755
 20
43.5077
 11
8.49226
 21
43.3224
  0
LINE
  8
0
 10
8.49226
 20
43.3224
 11
8.25879
 21
43.2035
  0
LINE
  8
0
 10
8.25879
 20
43.2035
 11
8
 21
43.1625
  0
LINE
  8
0
 10
8
 20
43.1625
 11
7.7412
 21
43.2035
  0
LINE
  8
0
 10
51.7412
 20
43.2035
 11
51.5077
 21
43.3224
  0
LINE
  8
0
 10
51.5077
 20
43.3224
 11
51.3224
 21
43.5077
  0
LINE
  8
0
 10
51.3224
 20
43.5077
 11
51.2035
 21
43.7412
  0
LINE
  8
0
 10
51.2035
 20
43.7412
 11
51.1625
 21
44
  0
LINE
  8
0
 10
51.1625
 20
44
 11
51.2035
 21
44.2588
  0
LINE
  8
0
 10
51.2035
 20
44.2588
 11
51.3224
 21
44.4923
  0
LINE
  8
0
 10
51.3224
 20
44.4923
 11
51.5077
 21
44.6776
  0
LINE
  8
0
 10
51.5077
 20
44.6776
 11
51.7412
 21
44.7965
  0
LINE
  8
0
 10
51.7412
 20
44.7965
 11
52
 21
44.8375
  0
LINE
  8
0
 10
52
 20
44.8375
 11
52.2588
 21
44.7965
  0
LINE
  8
0
 10
52.2588
 20
44.7965
 11
52.4923
 21
44.6776
  0
LINE
  8
0
 10
52.4923
 20
44.6776
 11
52.6776
 21
44.4923
  0
LINE
  8
0
 10
52.6776
 20
44.4923
 11
52.7965
 21
44.2588
  0
LINE
  8
0
 10
52.7965
 20
44.2588
 11
52.8375
 21
44
  0
LINE
  8
0
 10
52.8375
 20
44
 11
52.7965
 21
43.7412
  0
LINE
  8
0
 10
52.7965
 20
43.7412
 11
52.6776
 21
43.5077
  0
LINE
  8
0
 10
52.6776
 20
43.5077
 11
52.4923
 21
43.3224
  0
LINE
  8
0
 10
52.4923
 20
43.3224
 11
52.2588
 21
43.2035
  0
LINE
  8
0
 10
52.2588
 20
43.2035
 11
52
 21
43.1625
  0
LINE
  8
0
 10
52
 20
43.1625
 11
51.7412
 21
43.2035
  0
LINE
  8
0
 10
51.7412
 20
7.20348
 11
51.5077
 21
7.32243
  0
LINE
  8
0
 10
51.5077
 20
7.32243
 11
51.3224
 21
7.50772
  0
LINE
  8
0
 10
51.3224
 20
7.50772
 11
51.2035
 21
7.7412
  0
LINE
  8
0
 10
51.2035
 20
7.7412
 11
51.1625
 21
8
  0
LINE
  8
0
 10
51.1625
 20
8
 11
51.2035
 21
8.25879
  0
LINE
  8
0
 10
51.2035
 20
8.25879
 11
51.3224
 21
8.49226
  0
LINE
  8
0
 10
51.3224
 20
8.49226
 11
51.5077
 21
8.67755
  0
LINE
  8
0
 10
51.5077
 20
8.67755
 11
51.7412
 21
8.79651
  0
LINE
  8
0
 10
51.7412
 20
8.79651
 11
52
 21
8.83749
  0
LINE
  8
0
 10
52
 20
8.83749
 11
52.2588
 21
8.79651
  0
LINE
  8
0
 10
52.2588
 20
8.79651
 11
52.4923
 21
8.67755
  0
LINE
  8
0
 10
52.4923
 20
8.67755
 11
52.6776
 21
8.49226
  0
LINE
  8
0
 10
52.6776
 20
8.49226
 11
52.7965
 21
8.25879
  0
LINE
  8
0
 10
52.7965
 20
8.25879
 11
52.8375
 21
8
  0
LINE
  8
0
 10
52.8375
 20
8
 11
52.7965
 21
7.7412
  0
LINE
  8
0
 10
52.7965
 20
7.7412
 11
52.6776
 21
7.50772
  0
LINE
  8
0
 10
52.6776
 20
7.50772
 11
52.4923
 21
7.32243
  0
LINE
  8
0
 10
52.4923
 20
7.32243
 11
52.2588
 21
7.20348
  0
LINE
  8
0
 10
52.2588
 20
7.20348
 11
52
 21
7.16249
  0
LINE
  8
0
 10
52
 20
7.16249
 11
51.7412
 21
7.20348
  0
LINE
  8
0
 10
7.7412
 20
7.20348
 11
7.50772
 21
7.32243
  0
LINE
  8
0
 10
7.50772
 20
7.32243
 11
7.32243
 21
7.50772
  0
LINE
  8
0
 10
7.32243
 20
7.50772
 11
7.20348
 21
7.7412
  0
LINE
  8
0
 10
7.20348
 20
7.7412
 11
7.16249
 21
8
  0
LINE
  8
0
 10
7.16249
 20
8
 11
7.20348
 21
8.25879
  0
LINE
  8
0
 10
7.20348
 20
8.25879
 11
7.32243
 21
8.49226
  0
LINE
  8
0
 10
7.32243
 20
8.49226
 11
7.50772
 21
8.67755
  0
LINE
  8
0
 10
7.50772
 20
8.67755
 11
7.7412
 21
8.79651
  0
LINE
  8
0
 10
7.7412
 20
8.79651
 11
8
 21
8.83749
  0
LINE
  8
0
 10
8
 20
8.83749
 11
8.25879
 21
8.79651
  0
LINE
  8
0
 10
8.25879
 20
8.79651
 11
8.49226
 21
8.67755
  0
LINE
  8
0
 10
8.49226
 20
8.67755
 11
8.67755
 21
8.49226
  0
LINE
  8
0
 10
8.67755
 20
8.49226
 11
8.79651
 21
8.25879
  0
LINE
  8
0
 10
8.79651
 20
8.25879
 11
8.83749
 21
8
  0
LINE
  8
0
 10
8.83749
 20
8
 11
8.79651
 21
7.7412
  0
LINE
  8
0
 10
8.79651
 20
7.7412
 11
8.67755
 21
7.50772
  0
LINE
  8
0
 10
8.67755
 20
7.50772
 11
8.49226
 21
7.32243
  0
LINE
  8
0
 10
8.49226
 20
7.32243
 11
8.25879
 21
7.20348
  0
LINE
  8
0
 10
8.25879
 20
7.20348
 11
8
 21
7.16249
  0
LINE
  8
0
 10
8
 20
7.16249
 11
7.7412
 21
7.20348
  0
LINE
  8
0
 10
12
 20
-50.25
 11
24
 21
-50.25
  0
LINE
  8
0
 10
24
 20
-50.25
 11
24
 21
-53
  0
LINE
  8
0
 10
24
 20
-53
 11
29.4346
 21
-53
  0
LINE
  8
0
 10
29.4346
 20
-53
 11
29.1844
 21
-52.8725
  0
LINE
  8
0
 10
29.1844
 20
-52.8725
 11
28.8775
 21
-52.5656
  0
LINE
  8
0
 10
28.8775
 20
-52.5656
 11
28.6804
 21
-52.1788
  0
LINE
  8
0
 10
28.6804
 20
-52.1788
 11
28.6125
 21
-51.75
  0
LINE
  8
0
 10
28.6125
 20
-51.75
 11
28.6804
 21
-51.3212
  0
LINE
  8
0
 10
28.6804
 20
-51.3212
 11
28.8775
 21
-50.9344
  0
LINE
  8
0
 10
28.8775
 20
-50.9344
 11
29.1844
 21
-50.6275
  0
LINE
  8
0
 10
29.1844
 20
-50.6275
 11
29.5712
 21
-50.4304
  0
LINE
  8
0
 10
29.5712
 20
-50.4304
 11
30
 21
-50.3625
  0
LINE
  8
0
 10
30
 20
-50.3625
 11
30.4288
 21
-50.4304
  0
LINE
  8
0
 10
30.4288
 20
-50.4304
 11
30.8156
 21
-50.6275
  0
LINE
  8
0
 10
30.8156
 20
-50.6275
 11
31.1225
 21
-50.9344
  0
LINE
  8
0
 10
31.1225
 20
-50.9344
 11
31.3196
 21
-51.3212
  0
LINE
  8
0
 10
31.3196
 20
-51.3212
 11
31.3875
 21
-51.75
  0
LINE
  8
0
 10
31.3875
 20
-51.75
 11
31.3196
 21
-52.1788
  0
LINE
  8
0
 10
31.3196
 20
-52.1788
 11
31.1225
 21
-52.5656
  0
LINE
  8
0
 10
31.1225
 20
-52.5656
 11
30.8156
 21
-52.8725
  0
LINE
  8
0
 10
30.8156
 20
-52.8725
 11
30.5653
 21
-53
  0
LINE
  8
0
 10
30.5653
 20
-53
 11
36
 21
-53
  0
LINE
  8
0
 10
36
 20
-53
 11
36
 21
-50.25
  0
LINE
  8
0
 10
36
 20
-50.25
 11
48
 21
-50.25
  0
LINE
  8
0
 10
48
 20
-50.25
 11
48
 21
-53
  0
LINE
  8
0
 10
48
 20
-53
 11
60
 21
-53
  0
LINE
  8
0
 10
60
 20
-53
 11
60
 21
-42.6
  0
LINE
  8
0
 10
60
 20
-42.6
 11
57.5
 21
-42.6
  0
LINE
  8
0
 10
57.5
 20
-42.6
 11
57.5
 21
-32.2
  0
LINE
  8
0
 10
57.5
 20
-32.2
 11
60
 21
-32.2
  0
LINE
  8
0
 10
60
 20
-32.2
 11
60
 21
-27.5653
  0
LINE
  8
0
 10
60
 20
-27.5653
 11
59.8725
 21
-27.8156
  0
LINE
  8
0
 10
59.8725
 20
-27.8156
 11
59.5656
 21
-28.1225
  0
LINE
  8
0
 10
59.5656
 20
-28.1225
 11
59.1788
 21
-28.3196
  0
LINE
  8
0
 10
59.1788
 20
-28.3196
 11
58.75
 21
-28.3875
  0
LINE
  8
0
 10
58.75
 20
-28.3875
 11
58.3212
 21
-28.3196
  0
LINE
  8
0
 10
58.3212
 20
-28.3196
 11
57.9344
 21
-28.1225
  0
LINE
  8
0
 10
57.9344
 20
-28.1225
 11
57.6275
 21
-27.8156
  0
LINE
  8
0
 10
57.6275
 20
-27.8156
 11
57.4304
 21
-27.4288
  0
LINE
  8
0
 10
57.4304
 20
-27.4288
 11
57.3625
 21
-27
  0
LINE
  8
0
 10
57.3625
 20
-27
 11
57.4304
 21
-26.5712
  0
LINE
  8
0
 10
57.4304
 20
-26.5712
 11
57.6275
 21
-26.1844
  0
LINE
  8
0
 10
57.6275
 20
-26.1844
 11
57.9344
 21
-25.8775
  0
LINE
  8
0
 10
57.9344
 20
-25.8775
 11
58.3212
 21
-25.6804
  0
LINE
  8
0
 10
58.3212
 20
-25.6804
 11
58.75
 21
-25.6125
  0
LINE
  8
0
 10
58.75
 20
-25.6125
 11
59.1788
 21
-25.6804
  0
LINE
  8
0
 10
59.1788
 20
-25.6804
 11
59.5656
 21
-25.8775
  0
LINE
  8
0
 10
59.5656
 20
-25.8775
 11
59.8725
 21
-26.1844
  0
LINE
  8
0
 10
59.8725
 20
-26.1844
 11
60
 21
-26.4346
  0
LINE
  8
0
 10
60
 20
-26.4346
 11
60
 21
-21.8
  0
LINE
  8
0
 10
60
 20
-21.8
 11
57.5
 21
-21.8
  0
LINE
  8
0
 10
57.5
 20
-21.8
 11
57.5
 21
-11.4
  0
LINE
  8
0
 10
57.5
 20
-11.4
 11
60
 21
-11.4
  0
LINE
  8
0
 10
60
 20
-11.4
 11
60
 21
-1
  0
LINE
  8
0
 10
60
 20
-1
 11
0
 21
-1
  0
LINE
  8
0
 10
0
 20
-1
 11
0
 21
-11.4
  0
LINE
  8
0
 10
0
 20
-11.4
 11
2.75
 21
-11.4
  0
LINE
  8
0
 10
2.75
 20
-11.4
 11
2.75
 21
-21.8
  0
LINE
  8
0
 10
2.75
 20
-21.8
 11
0
 21
-21.8
  0
LINE
  8
0
 10
0
 20
-21.8
 11
0
 21
-26.4346
  0
LINE
  8
0
 10
0
 20
-26.4346
 11
0.127487
 21
-26.1844
  0
LINE
  8
0
 10
0.127487
 20
-26.1844
 11
0.434433
 21
-25.8775
  0
LINE
  8
0
 10
0.434433
 20
-25.8775
 11
0.821228
 21
-25.6804
  0
LINE
  8
0
 10
0.821228
 20
-25.6804
 11
1.24998
 21
-25.6125
  0
LINE
  8
0
 10
1.24998
 20
-25.6125
 11
1.67876
 21
-25.6804
  0
LINE
  8
0
 10
1.67876
 20
-25.6804
 11
2.06555
 21
-25.8775
  0
LINE
  8
0
 10
2.06555
 20
-25.8775
 11
2.3725
 21
-26.1844
  0
LINE
  8
0
 10
2.3725
 20
-26.1844
 11
2.56958
 21
-26.5712
  0
LINE
  8
0
 10
2.56958
 20
-26.5712
 11
2.6375
 21
-27
  0
LINE
  8
0
 10
2.6375
 20
-27
 11
2.56958
 21
-27.4288
  0
LINE
  8
0
 10
2.56958
 20
-27.4288
 11
2.3725
 21
-27.8156
  0
LINE
  8
0
 10
2.3725
 20
-27.8156
 11
2.06555
 21
-28.1225
  0
LINE
  8
0
 10
2.06555
 20
-28.1225
 11
1.67876
 21
-28.3196
  0
LINE
  8
0
 10
1.67876
 20
-28.3196
 11
1.25
 21
-28.3875
  0
LINE
  8
0
 10
1.25
 20
-28.3875
 11
0.821228
 21
-28.3196
  0
LINE
  8
0
 10
0.821228
 20
-28.3196
 11
0.434433
 21
-28.1225
  0
LINE
  8
0
 10
0.434433
 20
-28.1225
 11
0.127487
 21
-27.8156
  0
LINE
  8
0
 10
0.127487
 20
-27.8156
 11
0
 21
-27.5653
  0
LINE
  8
0
 10
0
 20
-27.5653
 11
0
 21
-32.2
  0
LINE
  8
0
 10
0
 20
-32.2
 11
2.75
 21
-32.2
  0
LINE
  8
0
 10
2.75
 20
-32.2
 11
2.75
 21
-42.6
  0
LINE
  8
0
 10
2.75
 20
-42.6
 11
0
 21
-42.6
  0
LINE
  8
0
 10
0
 20
-42.6
 11
0
 21
-53
  0
LINE
  8
0
 10
0
 20
-53
 11
12
 21
-53
  0
LINE
  8
0
 10
12
 20
-53
 11
12
 21
-50.25
  0
LINE
  8
0
 10
51.7412
 20
-9.79651
 11
51.5077
 21
-9.67755
  0
LINE
  8
0
 10
51.5077
 20
-9.67755
 11
51.3224
 21
-9.49226
  0
LINE
  8
0
 10
51.3224
 20
-9.49226
 11
51.2035
 21
-9.25879
  0
LINE
  8
0
 10
51.2035
 20
-9.25879
 11
51.1625
 21
-9
  0
LINE
  8
0
 10
51.1625
 20
-9
 11
51.2035
 21
-8.7412
  0
LINE
  8
0
 10
51.2035
 20
-8.7412
 11
51.3224
 21
-8.50772
  0
LINE
  8
0
 10
51.3224
 20
-8.50772
 11
51.5077
 21
-8.32243
  0
LINE
  8
0
 10
51.5077
 20
-8.32243
 11
51.7412
 21
-8.20348
  0
LINE
  8
0
 10
51.7412
 20
-8.20348
 11
52
 21
-8.16249
  0
LINE
  8
0
 10
52
 20
-8.16249
 11
52.2588
 21
-8.20348
  0
LINE
  8
0
 10
52.2588
 20
-8.20348
 11
52.4923
 21
-8.32243
  0
LINE
  8
0
 10
52.4923
 20
-8.32243
 11
52.6776
 21
-8.50772
  0
LINE
  8
0
 10
52.6776
 20
-8.50772
 11
52.7965
 21
-8.7412
  0
LINE
  8
0
 10
52.7965
 20
-8.7412
 11
52.8375
 21
-9
  0
LINE
  8
0
 10
52.8375
 20
-9
 11
52.7965
 21
-9.25879
  0
LINE
  8
0
 10
52.7965
 20
-9.25879
 11
52.6776
 21
-9.49226
  0
LINE
  8
0
 10
52.6776
 20
-9.49226
 11
52.4923
 21
-9.67755
  0
LINE
  8
0
 10
52.4923
 20
-9.67755
 11
52.2588
 21
-9.79651
  0
LINE
  8
0
 10
52.2588
 20
-9.79651
 11
52
 21
-9.83749
  0
LINE
  8
0
 10
52
 20
-9.83749
 11
51.7412
 21
-9.79651
  0
LINE
  8
0
 10
7.7412
 20
-9.79651
 11
7.50772
 21
-9.67755
  0
LINE
  8
0
 10
7.50772
 20
-9.67755
 11
7.32243
 21
-9.49226
  0
LINE
  8
0
 10
7.32243
 20
-9.49226
 11
7.20348
 21
-9.25879
  0
LINE
  8
0
 10
7.20348
 20
-9.25879
 11
7.16249
 21
-9
  0
LINE
  8
0
 10
7.16249
 20
-9
 11
7.20348
 21
-8.7412
  0
LINE
  8
0
 10
7.20348
 20
-8.7412
 11
7.32243
 21
-8.50772
  0
LINE
  8
0
 10
7.32243
 20
-8.50772
 11
7.50772
 21
-8.32243
  0
LINE
  8
0
 10
7.50772
 20
-8.32243
 11
7.7412
 21
-8.20348
  0
LINE
  8
0
 10
7.7412
 20
-8.20348
 11
8
 21
-8.16249
  0
LINE
  8
0
 10
8
 20
-8.16249
 11
8.25879
 21
-8.20348
  0
LINE
  8
0
 10
8.25879
 20
-8.20348
 11
8.49226
 21
-8.32243
  0
LINE
  8
0
 10
8.49226
 20
-8.32243
 11
8.67755
 21
-8.50772
  0
LINE
  8
0
 10
8.67755
 20
-8.50772
 11
8.79651
 21
-8.7412
  0
LINE
  8
0
 10
8.79651
 20
-8.7412
 11
8.83749
 21
-9
  0
LINE
  8
0
 10
8.83749
 20
-9
 11
8.79651
 21
-9.25879
  0
LINE
  8
0
 10
8.79651
 20
-9.25879
 11
8.67755
 21
-9.49226
  0
LINE
  8
0
 10
8.67755
 20
-9.49226
 11
8.49226
 21
-9.67755
  0
LINE
  8
0
 10
8.49226
 20
-9.67755
 11
8.25879
 21
-9.79651
  0
LINE
  8
0
 10
8.25879
 20
-9.79651
 11
8
 21
-9.83749
  0
LINE
  8
0
 10
8
 20
-9.83749
 11
7.7412
 21
-9.79651
  0
LINE
  8
0
 10
7.7412
 20
-45.7965
 11
7.50772
 21
-45.6776
  0
LINE
  8
0
 10
7.50772
 20
-45.6776
 11
7.32243
 21
-45.4923
  0
LINE
  8
0
 10
7.32243
 20
-45.4923
 11
7.20348
 21
-45.2588
  0
LINE
  8
0
 10
7.20348
 20
-45.2588
 11
7.16249
 21
-45
  0
LINE
  8
0
 10
7.16249
 20
-45
 11
7.20348
 21
-44.7412
  0
LINE
  8
0
 10
7.20348
 20
-44.7412
 11
7.32243
 21
-44.5077
  0
LINE
  8
0
 10
7.32243
 20
-44.5077
 11
7.50772
 21
-44.3224
  0
LINE
  8
0
 10
7.50772
 20
-44.3224
 11
7.7412
 21
-44.2035
  0
LINE
  8
0
 10
7.7412
 20
-44.2035
 11
8
 21
-44.1625
  0
LINE
  8
0
 10
8
 20
-44.1625
 11
8.25879
 21
-44.2035
  0
LINE
  8
0
 10
8.25879
 20
-44.2035
 11
8.49226
 21
-44.3224
  0
LINE
  8
0
 10
8.49226
 20
-44.3224
 11
8.67755
 21
-44.5077
  0
LINE
  8
0
 10
8.67755
 20
-44.5077
 11
8.79651
 21
-44.7412
  0
LINE
  8
0
 10
8.79651
 20
-44.7412
 11
8.83749
 21
-45
  0
LINE
  8
0
 10
8.83749
 20
-45
 11
8.79651
 21
-45.2588
  0
LINE
  8
0
 10
8.79651
 20
-45.2588
 11
8.67755
 21
-45.4923
  0
LINE
  8
0
 10
8.67755
 20
-45.4923
 11
8.49226
 21
-45.6776
  0
LINE
  8
0
 10
8.49226
 20
-45.6776
 11
8.25879
 21
-45.7965
  0
LINE
  8
0
 10
8.25879
 20
-45.7965
 11
8
 21
-45.8375
  0
LINE
  8
0
 10
8
 20
-45.8375
 11
7.7412
 21
-45.7965
  0
LINE
  8
0
 10
51.7412
 20
-45.7965
 11
51.5077
 21
-45.6776
  0
LINE
  8
0
 10
51.5077
 20
-45.6776
 11
51.3224
 21
-45.4923
  0
LINE
  8
0
 10
51.3224
 20
-45.4923
 11
51.2035
 21
-45.2588
  0
LINE
  8
0
 10
51.2035
 20
-45.2588
 11
51.1625
 21
-45
  0
LINE
  8
0
 10
51.1625
 20
-45
 11
51.2035
 21
-44.7412
  0
LINE
  8
0
 10
51.2035
 20
-44.7412
 11
51.3224
 21
-44.5077
  0
LINE
  8
0
 10
51.3224
 20
-44.5077
 11
51.5077
 21
-44.3224
  0
LINE
  8
0
 10
51.5077
 20
-44.3224
 11
51.7412
 21
-44.2035
  0
LINE
  8
0
 10
51.7412
 20
-44.2035
 11
52
 21
-44.1625
  0
LINE
  8
0
 10
52
 20
-44.1625
 11
52.2588
 21
-44.2035
  0
LINE
  8
0
 10
52.2588
 20
-44.2035
 11
52.4923
 21
-44.3224
  0
LINE
  8
0
 10
52.4923
 20
-44.3224
 11
52.6776
 21
-44.5077
  0
LINE
  8
0
 10
52.6776
 20
-44.5077
 11
52.7965
 21
-44.7412
  0
LINE
  8
0
 10
52.7965
 20
-44.7412
 11
52.8375
 21
-45
  0
LINE
  8
0
 10
52.8375
 20
-45
 11
52.7965
 21
-45.2588
  0
LINE
  8
0
 10
52.7965
 20
-45.2588
 11
52.6776
 21
-45.4923
  0
LINE
  8
0
 10
52.6776
 20
-45.4923
 11
52.4923
 21
-45.6776
  0
LINE
  8
0
 10
52.4923
 20
-45.6776
 11
52.2588
 21
-45.7965
  0
LINE
  8
0
 10
52.2588
 20
-45.7965
 11
52
 21
-45.8375
  0
LINE
  8
0
 10
52
 20
-45.8375
 11
51.7412
 21
-45.7965
  0
ENDSEC
  0
SECTION
  2
OBJECTS
  0
DICTIONARY
  0
ENDSEC
  0
EOF
