  0
SECTION
  2
BLOCKS
  0
ENDSEC
  0
SECTION
  2
ENTITIES
  0
LINE
  8
0
 10
69.29
 20
64.72
 11
73.995
 21
64.72
  0
LINE
  8
0
 10
73.995
 20
64.72
 11
73.995
 21
67
  0
LINE
  8
0
 10
73.995
 20
67
 11
72.75
 21
67
  0
LINE
  8
0
 10
72.75
 20
67
 11
72.75
 21
69.3
  0
LINE
  8
0
 10
72.75
 20
69.3
 11
73.995
 21
69.3
  0
LINE
  8
0
 10
73.995
 20
69.3
 11
73.995
 21
73
  0
LINE
  8
0
 10
73.995
 20
73
 11
76.895
 21
73
  0
LINE
  8
0
 10
76.895
 20
73
 11
76.895
 21
69.3
  0
LINE
  8
0
 10
76.895
 20
69.3
 11
78.25
 21
69.3
  0
LINE
  8
0
 10
78.25
 20
69.3
 11
78.25
 21
67
  0
LINE
  8
0
 10
78.25
 20
67
 11
76.895
 21
67
  0
LINE
  8
0
 10
76.895
 20
67
 11
76.895
 21
64.72
  0
LINE
  8
0
 10
76.895
 20
64.72
 11
81.71
 21
64.72
  0
LINE
  8
0
 10
81.71
 20
64.72
 11
81.71
 21
62
  0
LINE
  8
0
 10
81.71
 20
62
 11
93.69
 21
62
  0
LINE
  8
0
 10
93.69
 20
62
 11
93.69
 21
64.72
  0
LINE
  8
0
 10
93.69
 20
64.72
 11
106
 21
64.72
  0
LINE
  8
0
 10
106
 20
64.72
 11
106
 21
70
  0
LINE
  8
0
 10
106
 20
70
 11
103.5
 21
70
  0
LINE
  8
0
 10
103.5
 20
70
 11
103.5
 21
78
  0
LINE
  8
0
 10
103.5
 20
78
 11
106
 21
78
  0
LINE
  8
0
 10
106
 20
78
 11
106
 21
83.28
  0
LINE
  8
0
 10
106
 20
83.28
 11
93.69
 21
83.28
  0
LINE
  8
0
 10
93.69
 20
83.28
 11
93.69
 21
86
  0
LINE
  8
0
 10
93.69
 20
86
 11
81.71
 21
86
  0
LINE
  8
0
 10
81.71
 20
86
 11
81.71
 21
83.28
  0
LINE
  8
0
 10
81.71
 20
83.28
 11
77.005
 21
83.28
  0
LINE
  8
0
 10
77.005
 20
83.28
 11
77.005
 21
81
  0
LINE
  8
0
 10
77.005
 20
81
 11
78.25
 21
81
  0
LINE
  8
0
 10
78.25
 20
81
 11
78.25
 21
78.7
  0
LINE
  8
0
 10
78.25
 20
78.7
 11
77.005
 21
78.7
  0
LINE
  8
0
 10
77.005
 20
78.7
 11
77.005
 21
75
  0
LINE
  8
0
 10
77.005
 20
75
 11
74.105
 21
75
  0
LINE
  8
0
 10
74.105
 20
75
 11
74.105
 21
78.7
  0
LINE
  8
0
 10
74.105
 20
78.7
 11
72.75
 21
78.7
  0
LINE
  8
0
 10
72.75
 20
78.7
 11
72.75
 21
81
  0
LINE
  8
0
 10
72.75
 20
81
 11
74.105
 21
81
  0
LINE
  8
0
 10
74.105
 20
81
 11
74.105
 21
83.28
  0
LINE
  8
0
 10
74.105
 20
83.28
 11
69.29
 21
83.28
  0
LINE
  8
0
 10
69.29
 20
83.28
 11
69.29
 21
86
  0
LINE
  8
0
 10
69.29
 20
86
 11
57.31
 21
86
  0
LINE
  8
0
 10
57.31
 20
86
 11
57.31
 21
83.28
  0
LINE
  8
0
 10
57.31
 20
83.28
 11
45
 21
83.28
  0
LINE
  8
0
 10
45
 20
83.28
 11
45
 21
64.72
  0
LINE
  8
0
 10
45
 20
64.72
 11
57.31
 21
64.72
  0
LINE
  8
0
 10
57.31
 20
64.72
 11
57.31
 21
62
  0
LINE
  8
0
 10
57.31
 20
62
 11
69.29
 21
62
  0
LINE
  8
0
 10
69.29
 20
62
 11
69.29
 21
64.72
  0
LINE
  8
0
 10
98.0689
 20
77.1733
 11
97.68
 21
77.3714
  0
LINE
  8
0
 10
97.68
 20
77.3714
 11
97.3714
 21
77.68
  0
LINE
  8
0
 10
97.3714
 20
77.68
 11
97.1733
 21
78.0689
  0
LINE
  8
0
 10
97.1733
 20
78.0689
 11
97.105
 21
78.5
  0
LINE
  8
0
 10
97.105
 20
78.5
 11
97.1733
 21
78.9311
  0
LINE
  8
0
 10
97.1733
 20
78.9311
 11
97.3714
 21
79.32
  0
LINE
  8
0
 10
97.3714
 20
79.32
 11
97.68
 21
79.6286
  0
LINE
  8
0
 10
97.68
 20
79.6286
 11
98.0689
 21
79.8267
  0
LINE
  8
0
 10
98.0689
 20
79.8267
 11
98.5
 21
79.895
  0
LINE
  8
0
 10
98.5
 20
79.895
 11
98.9311
 21
79.8267
  0
LINE
  8
0
 10
98.9311
 20
79.8267
 11
99.32
 21
79.6286
  0
LINE
  8
0
 10
99.32
 20
79.6286
 11
99.6286
 21
79.32
  0
LINE
  8
0
 10
99.6286
 20
79.32
 11
99.8267
 21
78.9311
  0
LINE
  8
0
 10
99.8267
 20
78.9311
 11
99.895
 21
78.5
  0
LINE
  8
0
 10
99.895
 20
78.5
 11
99.8267
 21
78.0689
  0
LINE
  8
0
 10
99.8267
 20
78.0689
 11
99.6286
 21
77.68
  0
LINE
  8
0
 10
99.6286
 20
77.68
 11
99.32
 21
77.3714
  0
LINE
  8
0
 10
99.32
 20
77.3714
 11
98.9311
 21
77.1733
  0
LINE
  8
0
 10
98.9311
 20
77.1733
 11
98.5
 21
77.105
  0
LINE
  8
0
 10
98.5
 20
77.105
 11
98.0689
 21
77.1733
  0
LINE
  8
0
 10
52.0689
 20
77.1733
 11
51.68
 21
77.3714
  0
LINE
  8
0
 10
51.68
 20
77.3714
 11
51.3714
 21
77.68
  0
LINE
  8
0
 10
51.3714
 20
77.68
 11
51.1733
 21
78.0689
  0
LINE
  8
0
 10
51.1733
 20
78.0689
 11
51.105
 21
78.5
  0
LINE
  8
0
 10
51.105
 20
78.5
 11
51.1733
 21
78.9311
  0
LINE
  8
0
 10
51.1733
 20
78.9311
 11
51.3714
 21
79.32
  0
LINE
  8
0
 10
51.3714
 20
79.32
 11
51.68
 21
79.6286
  0
LINE
  8
0
 10
51.68
 20
79.6286
 11
52.0689
 21
79.8267
  0
LINE
  8
0
 10
52.0689
 20
79.8267
 11
52.5
 21
79.895
  0
LINE
  8
0
 10
52.5
 20
79.895
 11
52.9311
 21
79.8267
  0
LINE
  8
0
 10
52.9311
 20
79.8267
 11
53.32
 21
79.6286
  0
LINE
  8
0
 10
53.32
 20
79.6286
 11
53.6286
 21
79.32
  0
LINE
  8
0
 10
53.6286
 20
79.32
 11
53.8267
 21
78.9311
  0
LINE
  8
0
 10
53.8267
 20
78.9311
 11
53.895
 21
78.5
  0
LINE
  8
0
 10
53.895
 20
78.5
 11
53.8267
 21
78.0689
  0
LINE
  8
0
 10
53.8267
 20
78.0689
 11
53.6286
 21
77.68
  0
LINE
  8
0
 10
53.6286
 20
77.68
 11
53.32
 21
77.3714
  0
LINE
  8
0
 10
53.32
 20
77.3714
 11
52.9311
 21
77.1733
  0
LINE
  8
0
 10
52.9311
 20
77.1733
 11
52.5
 21
77.105
  0
LINE
  8
0
 10
52.5
 20
77.105
 11
52.0689
 21
77.1733
  0
LINE
  8
0
 10
17.49
 20
63.72
 11
20.495
 21
63.72
  0
LINE
  8
0
 10
20.495
 20
63.72
 11
20.495
 21
66
  0
LINE
  8
0
 10
20.495
 20
66
 11
19.25
 21
66
  0
LINE
  8
0
 10
19.25
 20
66
 11
19.25
 21
68.3
  0
LINE
  8
0
 10
19.25
 20
68.3
 11
20.495
 21
68.3
  0
LINE
  8
0
 10
20.495
 20
68.3
 11
20.495
 21
72
  0
LINE
  8
0
 10
20.495
 20
72
 11
23.395
 21
72
  0
LINE
  8
0
 10
23.395
 20
72
 11
23.395
 21
68.3
  0
LINE
  8
0
 10
23.395
 20
68.3
 11
24.75
 21
68.3
  0
LINE
  8
0
 10
24.75
 20
68.3
 11
24.75
 21
66
  0
LINE
  8
0
 10
24.75
 20
66
 11
23.395
 21
66
  0
LINE
  8
0
 10
23.395
 20
66
 11
23.395
 21
63.72
  0
LINE
  8
0
 10
23.395
 20
63.72
 11
26.51
 21
63.72
  0
LINE
  8
0
 10
26.51
 20
63.72
 11
26.51
 21
61
  0
LINE
  8
0
 10
26.51
 20
61
 11
35.09
 21
61
  0
LINE
  8
0
 10
35.09
 20
61
 11
35.09
 21
63.72
  0
LINE
  8
0
 10
35.09
 20
63.72
 11
41.5
 21
63.72
  0
LINE
  8
0
 10
41.5
 20
63.72
 11
41.5
 21
69.11
  0
LINE
  8
0
 10
41.5
 20
69.11
 11
44
 21
69.11
  0
LINE
  8
0
 10
44
 20
69.11
 11
44
 21
76.89
  0
LINE
  8
0
 10
44
 20
76.89
 11
41.5
 21
76.89
  0
LINE
  8
0
 10
41.5
 20
76.89
 11
41.5
 21
82.5
  0
LINE
  8
0
 10
41.5
 20
82.5
 11
35.09
 21
82.5
  0
LINE
  8
0
 10
35.09
 20
82.5
 11
35.09
 21
85
  0
LINE
  8
0
 10
35.09
 20
85
 11
26.51
 21
85
  0
LINE
  8
0
 10
26.51
 20
85
 11
26.51
 21
82.5
  0
LINE
  8
0
 10
26.51
 20
82.5
 11
23.505
 21
82.5
  0
LINE
  8
0
 10
23.505
 20
82.5
 11
23.505
 21
80
  0
LINE
  8
0
 10
23.505
 20
80
 11
24.75
 21
80
  0
LINE
  8
0
 10
24.75
 20
80
 11
24.75
 21
77.7
  0
LINE
  8
0
 10
24.75
 20
77.7
 11
23.505
 21
77.7
  0
LINE
  8
0
 10
23.505
 20
77.7
 11
23.505
 21
74
  0
LINE
  8
0
 10
23.505
 20
74
 11
20.605
 21
74
  0
LINE
  8
0
 10
20.605
 20
74
 11
20.605
 21
77.7
  0
LINE
  8
0
 10
20.605
 20
77.7
 11
19.25
 21
77.7
  0
LINE
  8
0
 10
19.25
 20
77.7
 11
19.25
 21
80
  0
LINE
  8
0
 10
19.25
 20
80
 11
20.605
 21
80
  0
LINE
  8
0
 10
20.605
 20
80
 11
20.605
 21
82.5
  0
LINE
  8
0
 10
20.605
 20
82.5
 11
17.49
 21
82.5
  0
LINE
  8
0
 10
17.49
 20
82.5
 11
17.49
 21
85
  0
LINE
  8
0
 10
17.49
 20
85
 11
8.90999
 21
85
  0
LINE
  8
0
 10
8.90999
 20
85
 11
8.90999
 21
82.5
  0
LINE
  8
0
 10
8.90999
 20
82.5
 11
2.71999
 21
82.5
  0
LINE
  8
0
 10
2.71999
 20
82.5
 11
2.71999
 21
76.89
  0
LINE
  8
0
 10
2.71999
 20
76.89
 11
0
 21
76.89
  0
LINE
  8
0
 10
0
 20
76.89
 11
0
 21
69.11
  0
LINE
  8
0
 10
0
 20
69.11
 11
2.71999
 21
69.11
  0
LINE
  8
0
 10
2.71999
 20
69.11
 11
2.71999
 21
63.72
  0
LINE
  8
0
 10
2.71999
 20
63.72
 11
8.90999
 21
63.72
  0
LINE
  8
0
 10
8.90999
 20
63.72
 11
8.90999
 21
61
  0
LINE
  8
0
 10
8.90999
 20
61
 11
17.49
 21
61
  0
LINE
  8
0
 10
17.49
 20
61
 11
17.49
 21
63.72
  0
LINE
  8
0
 10
164.082
 20
68.7166
 11
164.86
 21
69.1128
  0
LINE
  8
0
 10
164.86
 20
69.1128
 11
165.477
 21
69.7301
  0
LINE
  8
0
 10
165.477
 20
69.7301
 11
165.873
 21
70.5078
  0
LINE
  8
0
 10
165.873
 20
70.5078
 11
166.01
 21
71.37
  0
LINE
  8
0
 10
166.01
 20
71.37
 11
165.873
 21
72.2321
  0
LINE
  8
0
 10
165.873
 20
72.2321
 11
165.477
 21
73.0099
  0
LINE
  8
0
 10
165.477
 20
73.0099
 11
164.86
 21
73.6272
  0
LINE
  8
0
 10
164.86
 20
73.6272
 11
164.082
 21
74.0234
  0
LINE
  8
0
 10
164.082
 20
74.0234
 11
163.22
 21
74.16
  0
LINE
  8
0
 10
163.22
 20
74.16
 11
162.358
 21
74.0234
  0
LINE
  8
0
 10
162.358
 20
74.0234
 11
161.58
 21
73.6272
  0
LINE
  8
0
 10
161.58
 20
73.6272
 11
160.963
 21
73.0099
  0
LINE
  8
0
 10
160.963
 20
73.0099
 11
160.567
 21
72.2321
  0
LINE
  8
0
 10
160.567
 20
72.2321
 11
160.43
 21
71.37
  0
LINE
  8
0
 10
160.43
 20
71.37
 11
160.567
 21
70.5078
  0
LINE
  8
0
 10
160.567
 20
70.5078
 11
160.963
 21
69.7301
  0
LINE
  8
0
 10
160.963
 20
69.7301
 11
161.58
 21
69.1128
  0
LINE
  8
0
 10
161.58
 20
69.1128
 11
162.358
 21
68.7166
  0
LINE
  8
0
 10
162.358
 20
68.7166
 11
163.22
 21
68.58
  0
LINE
  8
0
 10
163.22
 20
68.58
 11
164.082
 21
68.7166
  0
LINE
  8
0
 10
162.789
 20
70.0433
 11
162.4
 21
70.2414
  0
LINE
  8
0
 10
162.4
 20
70.2414
 11
162.091
 21
70.55
  0
LINE
  8
0
 10
162.091
 20
70.55
 11
161.893
 21
70.9389
  0
LINE
  8
0
 10
161.893
 20
70.9389
 11
161.825
 21
71.37
  0
LINE
  8
0
 10
161.825
 20
71.37
 11
161.893
 21
71.8011
  0
LINE
  8
0
 10
161.893
 20
71.8011
 11
162.091
 21
72.19
  0
LINE
  8
0
 10
162.091
 20
72.19
 11
162.4
 21
72.4986
  0
LINE
  8
0
 10
162.4
 20
72.4986
 11
162.789
 21
72.6967
  0
LINE
  8
0
 10
162.789
 20
72.6967
 11
163.22
 21
72.765
  0
LINE
  8
0
 10
163.22
 20
72.765
 11
163.651
 21
72.6967
  0
LINE
  8
0
 10
163.651
 20
72.6967
 11
164.04
 21
72.4986
  0
LINE
  8
0
 10
164.04
 20
72.4986
 11
164.349
 21
72.19
  0
LINE
  8
0
 10
164.349
 20
72.19
 11
164.547
 21
71.8011
  0
LINE
  8
0
 10
164.547
 20
71.8011
 11
164.615
 21
71.37
  0
LINE
  8
0
 10
164.615
 20
71.37
 11
164.547
 21
70.9389
  0
LINE
  8
0
 10
164.547
 20
70.9389
 11
164.349
 21
70.55
  0
LINE
  8
0
 10
164.349
 20
70.55
 11
164.04
 21
70.2414
  0
LINE
  8
0
 10
164.04
 20
70.2414
 11
163.651
 21
70.0433
  0
LINE
  8
0
 10
163.651
 20
70.0433
 11
163.22
 21
69.975
  0
LINE
  8
0
 10
163.22
 20
69.975
 11
162.789
 21
70.0433
  0
LINE
  8
0
 10
136.182
 20
68.7166
 11
136.96
 21
69.1128
  0
LINE
  8
0
 10
136.96
 20
69.1128
 11
137.577
 21
69.7301
  0
LINE
  8
0
 10
137.577
 20
69.7301
 11
137.973
 21
70.5078
  0
LINE
  8
0
 10
137.973
 20
70.5078
 11
138.11
 21
71.37
  0
LINE
  8
0
 10
138.11
 20
71.37
 11
137.973
 21
72.2321
  0
LINE
  8
0
 10
137.973
 20
72.2321
 11
137.577
 21
73.0099
  0
LINE
  8
0
 10
137.577
 20
73.0099
 11
136.96
 21
73.6272
  0
LINE
  8
0
 10
136.96
 20
73.6272
 11
136.182
 21
74.0234
  0
LINE
  8
0
 10
136.182
 20
74.0234
 11
135.32
 21
74.16
  0
LINE
  8
0
 10
135.32
 20
74.16
 11
134.458
 21
74.0234
  0
LINE
  8
0
 10
134.458
 20
74.0234
 11
133.68
 21
73.6272
  0
LINE
  8
0
 10
133.68
 20
73.6272
 11
133.063
 21
73.0099
  0
LINE
  8
0
 10
133.063
 20
73.0099
 11
132.667
 21
72.2321
  0
LINE
  8
0
 10
132.667
 20
72.2321
 11
132.53
 21
71.37
  0
LINE
  8
0
 10
132.53
 20
71.37
 11
132.667
 21
70.5078
  0
LINE
  8
0
 10
132.667
 20
70.5078
 11
133.063
 21
69.7301
  0
LINE
  8
0
 10
133.063
 20
69.7301
 11
133.68
 21
69.1128
  0
LINE
  8
0
 10
133.68
 20
69.1128
 11
134.458
 21
68.7166
  0
LINE
  8
0
 10
134.458
 20
68.7166
 11
135.32
 21
68.58
  0
LINE
  8
0
 10
135.32
 20
68.58
 11
136.182
 21
68.7166
  0
LINE
  8
0
 10
134.889
 20
70.0433
 11
134.5
 21
70.2414
  0
LINE
  8
0
 10
134.5
 20
70.2414
 11
134.191
 21
70.55
  0
LINE
  8
0
 10
134.191
 20
70.55
 11
133.993
 21
70.9389
  0
LINE
  8
0
 10
133.993
 20
70.9389
 11
133.925
 21
71.37
  0
LINE
  8
0
 10
133.925
 20
71.37
 11
133.993
 21
71.8011
  0
LINE
  8
0
 10
133.993
 20
71.8011
 11
134.191
 21
72.19
  0
LINE
  8
0
 10
134.191
 20
72.19
 11
134.5
 21
72.4986
  0
LINE
  8
0
 10
134.5
 20
72.4986
 11
134.889
 21
72.6967
  0
LINE
  8
0
 10
134.889
 20
72.6967
 11
135.32
 21
72.765
  0
LINE
  8
0
 10
135.32
 20
72.765
 11
135.751
 21
72.6967
  0
LINE
  8
0
 10
135.751
 20
72.6967
 11
136.14
 21
72.4986
  0
LINE
  8
0
 10
136.14
 20
72.4986
 11
136.449
 21
72.19
  0
LINE
  8
0
 10
136.449
 20
72.19
 11
136.647
 21
71.8011
  0
LINE
  8
0
 10
136.647
 20
71.8011
 11
136.715
 21
71.37
  0
LINE
  8
0
 10
136.715
 20
71.37
 11
136.647
 21
70.9389
  0
LINE
  8
0
 10
136.647
 20
70.9389
 11
136.449
 21
70.55
  0
LINE
  8
0
 10
136.449
 20
70.55
 11
136.14
 21
70.2414
  0
LINE
  8
0
 10
136.14
 20
70.2414
 11
135.751
 21
70.0433
  0
LINE
  8
0
 10
135.751
 20
70.0433
 11
135.32
 21
69.975
  0
LINE
  8
0
 10
135.32
 20
69.975
 11
134.889
 21
70.0433
  0
LINE
  8
0
 10
158.502
 20
68.7166
 11
159.28
 21
69.1128
  0
LINE
  8
0
 10
159.28
 20
69.1128
 11
159.897
 21
69.7301
  0
LINE
  8
0
 10
159.897
 20
69.7301
 11
160.293
 21
70.5078
  0
LINE
  8
0
 10
160.293
 20
70.5078
 11
160.43
 21
71.37
  0
LINE
  8
0
 10
160.43
 20
71.37
 11
160.293
 21
72.2321
  0
LINE
  8
0
 10
160.293
 20
72.2321
 11
159.897
 21
73.0099
  0
LINE
  8
0
 10
159.897
 20
73.0099
 11
159.28
 21
73.6272
  0
LINE
  8
0
 10
159.28
 20
73.6272
 11
158.502
 21
74.0234
  0
LINE
  8
0
 10
158.502
 20
74.0234
 11
157.64
 21
74.16
  0
LINE
  8
0
 10
157.64
 20
74.16
 11
156.778
 21
74.0234
  0
LINE
  8
0
 10
156.778
 20
74.0234
 11
156
 21
73.6272
  0
LINE
  8
0
 10
156
 20
73.6272
 11
155.383
 21
73.0099
  0
LINE
  8
0
 10
155.383
 20
73.0099
 11
154.987
 21
72.2321
  0
LINE
  8
0
 10
154.987
 20
72.2321
 11
154.85
 21
71.37
  0
LINE
  8
0
 10
154.85
 20
71.37
 11
154.987
 21
70.5078
  0
LINE
  8
0
 10
154.987
 20
70.5078
 11
155.383
 21
69.7301
  0
LINE
  8
0
 10
155.383
 20
69.7301
 11
156
 21
69.1128
  0
LINE
  8
0
 10
156
 20
69.1128
 11
156.778
 21
68.7166
  0
LINE
  8
0
 10
156.778
 20
68.7166
 11
157.64
 21
68.58
  0
LINE
  8
0
 10
157.64
 20
68.58
 11
158.502
 21
68.7166
  0
LINE
  8
0
 10
157.209
 20
70.0433
 11
156.82
 21
70.2414
  0
LINE
  8
0
 10
156.82
 20
70.2414
 11
156.511
 21
70.55
  0
LINE
  8
0
 10
156.511
 20
70.55
 11
156.313
 21
70.9389
  0
LINE
  8
0
 10
156.313
 20
70.9389
 11
156.245
 21
71.37
  0
LINE
  8
0
 10
156.245
 20
71.37
 11
156.313
 21
71.8011
  0
LINE
  8
0
 10
156.313
 20
71.8011
 11
156.511
 21
72.19
  0
LINE
  8
0
 10
156.511
 20
72.19
 11
156.82
 21
72.4986
  0
LINE
  8
0
 10
156.82
 20
72.4986
 11
157.209
 21
72.6967
  0
LINE
  8
0
 10
157.209
 20
72.6967
 11
157.64
 21
72.765
  0
LINE
  8
0
 10
157.64
 20
72.765
 11
158.071
 21
72.6967
  0
LINE
  8
0
 10
158.071
 20
72.6967
 11
158.46
 21
72.4986
  0
LINE
  8
0
 10
158.46
 20
72.4986
 11
158.769
 21
72.19
  0
LINE
  8
0
 10
158.769
 20
72.19
 11
158.967
 21
71.8011
  0
LINE
  8
0
 10
158.967
 20
71.8011
 11
159.035
 21
71.37
  0
LINE
  8
0
 10
159.035
 20
71.37
 11
158.967
 21
70.9389
  0
LINE
  8
0
 10
158.967
 20
70.9389
 11
158.769
 21
70.55
  0
LINE
  8
0
 10
158.769
 20
70.55
 11
158.46
 21
70.2414
  0
LINE
  8
0
 10
158.46
 20
70.2414
 11
158.071
 21
70.0433
  0
LINE
  8
0
 10
158.071
 20
70.0433
 11
157.64
 21
69.975
  0
LINE
  8
0
 10
157.64
 20
69.975
 11
157.209
 21
70.0433
  0
LINE
  8
0
 10
125.022
 20
68.7166
 11
125.8
 21
69.1128
  0
LINE
  8
0
 10
125.8
 20
69.1128
 11
126.417
 21
69.7301
  0
LINE
  8
0
 10
126.417
 20
69.7301
 11
126.813
 21
70.5078
  0
LINE
  8
0
 10
126.813
 20
70.5078
 11
126.95
 21
71.37
  0
LINE
  8
0
 10
126.95
 20
71.37
 11
126.813
 21
72.2321
  0
LINE
  8
0
 10
126.813
 20
72.2321
 11
126.417
 21
73.0099
  0
LINE
  8
0
 10
126.417
 20
73.0099
 11
125.8
 21
73.6272
  0
LINE
  8
0
 10
125.8
 20
73.6272
 11
125.022
 21
74.0234
  0
LINE
  8
0
 10
125.022
 20
74.0234
 11
124.16
 21
74.16
  0
LINE
  8
0
 10
124.16
 20
74.16
 11
123.298
 21
74.0234
  0
LINE
  8
0
 10
123.298
 20
74.0234
 11
122.52
 21
73.6272
  0
LINE
  8
0
 10
122.52
 20
73.6272
 11
121.903
 21
73.0099
  0
LINE
  8
0
 10
121.903
 20
73.0099
 11
121.507
 21
72.2321
  0
LINE
  8
0
 10
121.507
 20
72.2321
 11
121.37
 21
71.37
  0
LINE
  8
0
 10
121.37
 20
71.37
 11
121.507
 21
70.5078
  0
LINE
  8
0
 10
121.507
 20
70.5078
 11
121.903
 21
69.7301
  0
LINE
  8
0
 10
121.903
 20
69.7301
 11
122.52
 21
69.1128
  0
LINE
  8
0
 10
122.52
 20
69.1128
 11
123.298
 21
68.7166
  0
LINE
  8
0
 10
123.298
 20
68.7166
 11
124.16
 21
68.58
  0
LINE
  8
0
 10
124.16
 20
68.58
 11
125.022
 21
68.7166
  0
LINE
  8
0
 10
123.729
 20
70.0433
 11
123.34
 21
70.2414
  0
LINE
  8
0
 10
123.34
 20
70.2414
 11
123.031
 21
70.55
  0
LINE
  8
0
 10
123.031
 20
70.55
 11
122.833
 21
70.9389
  0
LINE
  8
0
 10
122.833
 20
70.9389
 11
122.765
 21
71.37
  0
LINE
  8
0
 10
122.765
 20
71.37
 11
122.833
 21
71.8011
  0
LINE
  8
0
 10
122.833
 20
71.8011
 11
123.031
 21
72.19
  0
LINE
  8
0
 10
123.031
 20
72.19
 11
123.34
 21
72.4986
  0
LINE
  8
0
 10
123.34
 20
72.4986
 11
123.729
 21
72.6967
  0
LINE
  8
0
 10
123.729
 20
72.6967
 11
124.16
 21
72.765
  0
LINE
  8
0
 10
124.16
 20
72.765
 11
124.591
 21
72.6967
  0
LINE
  8
0
 10
124.591
 20
72.6967
 11
124.98
 21
72.4986
  0
LINE
  8
0
 10
124.98
 20
72.4986
 11
125.289
 21
72.19
  0
LINE
  8
0
 10
125.289
 20
72.19
 11
125.487
 21
71.8011
  0
LINE
  8
0
 10
125.487
 20
71.8011
 11
125.555
 21
71.37
  0
LINE
  8
0
 10
125.555
 20
71.37
 11
125.487
 21
70.9389
  0
LINE
  8
0
 10
125.487
 20
70.9389
 11
125.289
 21
70.55
  0
LINE
  8
0
 10
125.289
 20
70.55
 11
124.98
 21
70.2414
  0
LINE
  8
0
 10
124.98
 20
70.2414
 11
124.591
 21
70.0433
  0
LINE
  8
0
 10
124.591
 20
70.0433
 11
124.16
 21
69.975
  0
LINE
  8
0
 10
124.16
 20
69.975
 11
123.729
 21
70.0433
  0
LINE
  8
0
 10
147.342
 20
68.7166
 11
148.12
 21
69.1128
  0
LINE
  8
0
 10
148.12
 20
69.1128
 11
148.737
 21
69.7301
  0
LINE
  8
0
 10
148.737
 20
69.7301
 11
149.133
 21
70.5078
  0
LINE
  8
0
 10
149.133
 20
70.5078
 11
149.27
 21
71.37
  0
LINE
  8
0
 10
149.27
 20
71.37
 11
149.133
 21
72.2321
  0
LINE
  8
0
 10
149.133
 20
72.2321
 11
148.737
 21
73.0099
  0
LINE
  8
0
 10
148.737
 20
73.0099
 11
148.12
 21
73.6272
  0
LINE
  8
0
 10
148.12
 20
73.6272
 11
147.342
 21
74.0234
  0
LINE
  8
0
 10
147.342
 20
74.0234
 11
146.48
 21
74.16
  0
LINE
  8
0
 10
146.48
 20
74.16
 11
145.618
 21
74.0234
  0
LINE
  8
0
 10
145.618
 20
74.0234
 11
144.84
 21
73.6272
  0
LINE
  8
0
 10
144.84
 20
73.6272
 11
144.223
 21
73.0099
  0
LINE
  8
0
 10
144.223
 20
73.0099
 11
143.827
 21
72.2321
  0
LINE
  8
0
 10
143.827
 20
72.2321
 11
143.69
 21
71.37
  0
LINE
  8
0
 10
143.69
 20
71.37
 11
143.827
 21
70.5078
  0
LINE
  8
0
 10
143.827
 20
70.5078
 11
144.223
 21
69.7301
  0
LINE
  8
0
 10
144.223
 20
69.7301
 11
144.84
 21
69.1128
  0
LINE
  8
0
 10
144.84
 20
69.1128
 11
145.618
 21
68.7166
  0
LINE
  8
0
 10
145.618
 20
68.7166
 11
146.48
 21
68.58
  0
LINE
  8
0
 10
146.48
 20
68.58
 11
147.342
 21
68.7166
  0
LINE
  8
0
 10
146.049
 20
70.0433
 11
145.66
 21
70.2414
  0
LINE
  8
0
 10
145.66
 20
70.2414
 11
145.351
 21
70.55
  0
LINE
  8
0
 10
145.351
 20
70.55
 11
145.153
 21
70.9389
  0
LINE
  8
0
 10
145.153
 20
70.9389
 11
145.085
 21
71.37
  0
LINE
  8
0
 10
145.085
 20
71.37
 11
145.153
 21
71.8011
  0
LINE
  8
0
 10
145.153
 20
71.8011
 11
145.351
 21
72.19
  0
LINE
  8
0
 10
145.351
 20
72.19
 11
145.66
 21
72.4986
  0
LINE
  8
0
 10
145.66
 20
72.4986
 11
146.049
 21
72.6967
  0
LINE
  8
0
 10
146.049
 20
72.6967
 11
146.48
 21
72.765
  0
LINE
  8
0
 10
146.48
 20
72.765
 11
146.911
 21
72.6967
  0
LINE
  8
0
 10
146.911
 20
72.6967
 11
147.3
 21
72.4986
  0
LINE
  8
0
 10
147.3
 20
72.4986
 11
147.609
 21
72.19
  0
LINE
  8
0
 10
147.609
 20
72.19
 11
147.807
 21
71.8011
  0
LINE
  8
0
 10
147.807
 20
71.8011
 11
147.875
 21
71.37
  0
LINE
  8
0
 10
147.875
 20
71.37
 11
147.807
 21
70.9389
  0
LINE
  8
0
 10
147.807
 20
70.9389
 11
147.609
 21
70.55
  0
LINE
  8
0
 10
147.609
 20
70.55
 11
147.3
 21
70.2414
  0
LINE
  8
0
 10
147.3
 20
70.2414
 11
146.911
 21
70.0433
  0
LINE
  8
0
 10
146.911
 20
70.0433
 11
146.48
 21
69.975
  0
LINE
  8
0
 10
146.48
 20
69.975
 11
146.049
 21
70.0433
  0
LINE
  8
0
 10
119.442
 20
68.7166
 11
120.22
 21
69.1128
  0
LINE
  8
0
 10
120.22
 20
69.1128
 11
120.837
 21
69.7301
  0
LINE
  8
0
 10
120.837
 20
69.7301
 11
121.233
 21
70.5078
  0
LINE
  8
0
 10
121.233
 20
70.5078
 11
121.37
 21
71.37
  0
LINE
  8
0
 10
121.37
 20
71.37
 11
121.233
 21
72.2321
  0
LINE
  8
0
 10
121.233
 20
72.2321
 11
120.837
 21
73.0099
  0
LINE
  8
0
 10
120.837
 20
73.0099
 11
120.22
 21
73.6272
  0
LINE
  8
0
 10
120.22
 20
73.6272
 11
119.442
 21
74.0234
  0
LINE
  8
0
 10
119.442
 20
74.0234
 11
118.58
 21
74.16
  0
LINE
  8
0
 10
118.58
 20
74.16
 11
117.718
 21
74.0234
  0
LINE
  8
0
 10
117.718
 20
74.0234
 11
116.94
 21
73.6272
  0
LINE
  8
0
 10
116.94
 20
73.6272
 11
116.323
 21
73.0099
  0
LINE
  8
0
 10
116.323
 20
73.0099
 11
115.927
 21
72.2321
  0
LINE
  8
0
 10
115.927
 20
72.2321
 11
115.79
 21
71.37
  0
LINE
  8
0
 10
115.79
 20
71.37
 11
115.927
 21
70.5078
  0
LINE
  8
0
 10
115.927
 20
70.5078
 11
116.323
 21
69.7301
  0
LINE
  8
0
 10
116.323
 20
69.7301
 11
116.94
 21
69.1128
  0
LINE
  8
0
 10
116.94
 20
69.1128
 11
117.718
 21
68.7166
  0
LINE
  8
0
 10
117.718
 20
68.7166
 11
118.58
 21
68.58
  0
LINE
  8
0
 10
118.58
 20
68.58
 11
119.442
 21
68.7166
  0
LINE
  8
0
 10
118.149
 20
70.0433
 11
117.76
 21
70.2414
  0
LINE
  8
0
 10
117.76
 20
70.2414
 11
117.451
 21
70.55
  0
LINE
  8
0
 10
117.451
 20
70.55
 11
117.253
 21
70.9389
  0
LINE
  8
0
 10
117.253
 20
70.9389
 11
117.185
 21
71.37
  0
LINE
  8
0
 10
117.185
 20
71.37
 11
117.253
 21
71.8011
  0
LINE
  8
0
 10
117.253
 20
71.8011
 11
117.451
 21
72.19
  0
LINE
  8
0
 10
117.451
 20
72.19
 11
117.76
 21
72.4986
  0
LINE
  8
0
 10
117.76
 20
72.4986
 11
118.149
 21
72.6967
  0
LINE
  8
0
 10
118.149
 20
72.6967
 11
118.58
 21
72.765
  0
LINE
  8
0
 10
118.58
 20
72.765
 11
119.011
 21
72.6967
  0
LINE
  8
0
 10
119.011
 20
72.6967
 11
119.4
 21
72.4986
  0
LINE
  8
0
 10
119.4
 20
72.4986
 11
119.709
 21
72.19
  0
LINE
  8
0
 10
119.709
 20
72.19
 11
119.907
 21
71.8011
  0
LINE
  8
0
 10
119.907
 20
71.8011
 11
119.975
 21
71.37
  0
LINE
  8
0
 10
119.975
 20
71.37
 11
119.907
 21
70.9389
  0
LINE
  8
0
 10
119.907
 20
70.9389
 11
119.709
 21
70.55
  0
LINE
  8
0
 10
119.709
 20
70.55
 11
119.4
 21
70.2414
  0
LINE
  8
0
 10
119.4
 20
70.2414
 11
119.011
 21
70.0433
  0
LINE
  8
0
 10
119.011
 20
70.0433
 11
118.58
 21
69.975
  0
LINE
  8
0
 10
118.58
 20
69.975
 11
118.149
 21
70.0433
  0
LINE
  8
0
 10
113.862
 20
68.7166
 11
114.64
 21
69.1128
  0
LINE
  8
0
 10
114.64
 20
69.1128
 11
115.257
 21
69.7301
  0
LINE
  8
0
 10
115.257
 20
69.7301
 11
115.653
 21
70.5078
  0
LINE
  8
0
 10
115.653
 20
70.5078
 11
115.79
 21
71.37
  0
LINE
  8
0
 10
115.79
 20
71.37
 11
115.653
 21
72.2321
  0
LINE
  8
0
 10
115.653
 20
72.2321
 11
115.257
 21
73.0099
  0
LINE
  8
0
 10
115.257
 20
73.0099
 11
114.64
 21
73.6272
  0
LINE
  8
0
 10
114.64
 20
73.6272
 11
113.862
 21
74.0234
  0
LINE
  8
0
 10
113.862
 20
74.0234
 11
113
 21
74.16
  0
LINE
  8
0
 10
113
 20
74.16
 11
112.138
 21
74.0234
  0
LINE
  8
0
 10
112.138
 20
74.0234
 11
111.36
 21
73.6272
  0
LINE
  8
0
 10
111.36
 20
73.6272
 11
110.743
 21
73.0099
  0
LINE
  8
0
 10
110.743
 20
73.0099
 11
110.347
 21
72.2321
  0
LINE
  8
0
 10
110.347
 20
72.2321
 11
110.21
 21
71.37
  0
LINE
  8
0
 10
110.21
 20
71.37
 11
110.347
 21
70.5078
  0
LINE
  8
0
 10
110.347
 20
70.5078
 11
110.743
 21
69.7301
  0
LINE
  8
0
 10
110.743
 20
69.7301
 11
111.36
 21
69.1128
  0
LINE
  8
0
 10
111.36
 20
69.1128
 11
112.138
 21
68.7166
  0
LINE
  8
0
 10
112.138
 20
68.7166
 11
113
 21
68.58
  0
LINE
  8
0
 10
113
 20
68.58
 11
113.862
 21
68.7166
  0
LINE
  8
0
 10
112.569
 20
70.0433
 11
112.18
 21
70.2414
  0
LINE
  8
0
 10
112.18
 20
70.2414
 11
111.871
 21
70.55
  0
LINE
  8
0
 10
111.871
 20
70.55
 11
111.673
 21
70.9389
  0
LINE
  8
0
 10
111.673
 20
70.9389
 11
111.605
 21
71.37
  0
LINE
  8
0
 10
111.605
 20
71.37
 11
111.673
 21
71.8011
  0
LINE
  8
0
 10
111.673
 20
71.8011
 11
111.871
 21
72.19
  0
LINE
  8
0
 10
111.871
 20
72.19
 11
112.18
 21
72.4986
  0
LINE
  8
0
 10
112.18
 20
72.4986
 11
112.569
 21
72.6967
  0
LINE
  8
0
 10
112.569
 20
72.6967
 11
113
 21
72.765
  0
LINE
  8
0
 10
113
 20
72.765
 11
113.431
 21
72.6967
  0
LINE
  8
0
 10
113.431
 20
72.6967
 11
113.82
 21
72.4986
  0
LINE
  8
0
 10
113.82
 20
72.4986
 11
114.129
 21
72.19
  0
LINE
  8
0
 10
114.129
 20
72.19
 11
114.327
 21
71.8011
  0
LINE
  8
0
 10
114.327
 20
71.8011
 11
114.395
 21
71.37
  0
LINE
  8
0
 10
114.395
 20
71.37
 11
114.327
 21
70.9389
  0
LINE
  8
0
 10
114.327
 20
70.9389
 11
114.129
 21
70.55
  0
LINE
  8
0
 10
114.129
 20
70.55
 11
113.82
 21
70.2414
  0
LINE
  8
0
 10
113.82
 20
70.2414
 11
113.431
 21
70.0433
  0
LINE
  8
0
 10
113.431
 20
70.0433
 11
113
 21
69.975
  0
LINE
  8
0
 10
113
 20
69.975
 11
112.569
 21
70.0433
  0
LINE
  8
0
 10
130.602
 20
68.7166
 11
131.38
 21
69.1128
  0
LINE
  8
0
 10
131.38
 20
69.1128
 11
131.997
 21
69.7301
  0
LINE
  8
0
 10
131.997
 20
69.7301
 11
132.393
 21
70.5078
  0
LINE
  8
0
 10
132.393
 20
70.5078
 11
132.53
 21
71.37
  0
LINE
  8
0
 10
132.53
 20
71.37
 11
132.393
 21
72.2321
  0
LINE
  8
0
 10
132.393
 20
72.2321
 11
131.997
 21
73.0099
  0
LINE
  8
0
 10
131.997
 20
73.0099
 11
131.38
 21
73.6272
  0
LINE
  8
0
 10
131.38
 20
73.6272
 11
130.602
 21
74.0234
  0
LINE
  8
0
 10
130.602
 20
74.0234
 11
129.74
 21
74.16
  0
LINE
  8
0
 10
129.74
 20
74.16
 11
128.878
 21
74.0234
  0
LINE
  8
0
 10
128.878
 20
74.0234
 11
128.1
 21
73.6272
  0
LINE
  8
0
 10
128.1
 20
73.6272
 11
127.483
 21
73.0099
  0
LINE
  8
0
 10
127.483
 20
73.0099
 11
127.087
 21
72.2321
  0
LINE
  8
0
 10
127.087
 20
72.2321
 11
126.95
 21
71.37
  0
LINE
  8
0
 10
126.95
 20
71.37
 11
127.087
 21
70.5078
  0
LINE
  8
0
 10
127.087
 20
70.5078
 11
127.483
 21
69.7301
  0
LINE
  8
0
 10
127.483
 20
69.7301
 11
128.1
 21
69.1128
  0
LINE
  8
0
 10
128.1
 20
69.1128
 11
128.878
 21
68.7166
  0
LINE
  8
0
 10
128.878
 20
68.7166
 11
129.74
 21
68.58
  0
LINE
  8
0
 10
129.74
 20
68.58
 11
130.602
 21
68.7166
  0
LINE
  8
0
 10
129.309
 20
70.0433
 11
128.92
 21
70.2414
  0
LINE
  8
0
 10
128.92
 20
70.2414
 11
128.611
 21
70.55
  0
LINE
  8
0
 10
128.611
 20
70.55
 11
128.413
 21
70.9389
  0
LINE
  8
0
 10
128.413
 20
70.9389
 11
128.345
 21
71.37
  0
LINE
  8
0
 10
128.345
 20
71.37
 11
128.413
 21
71.8011
  0
LINE
  8
0
 10
128.413
 20
71.8011
 11
128.611
 21
72.19
  0
LINE
  8
0
 10
128.611
 20
72.19
 11
128.92
 21
72.4986
  0
LINE
  8
0
 10
128.92
 20
72.4986
 11
129.309
 21
72.6967
  0
LINE
  8
0
 10
129.309
 20
72.6967
 11
129.74
 21
72.765
  0
LINE
  8
0
 10
129.74
 20
72.765
 11
130.171
 21
72.6967
  0
LINE
  8
0
 10
130.171
 20
72.6967
 11
130.56
 21
72.4986
  0
LINE
  8
0
 10
130.56
 20
72.4986
 11
130.869
 21
72.19
  0
LINE
  8
0
 10
130.869
 20
72.19
 11
131.067
 21
71.8011
  0
LINE
  8
0
 10
131.067
 20
71.8011
 11
131.135
 21
71.37
  0
LINE
  8
0
 10
131.135
 20
71.37
 11
131.067
 21
70.9389
  0
LINE
  8
0
 10
131.067
 20
70.9389
 11
130.869
 21
70.55
  0
LINE
  8
0
 10
130.869
 20
70.55
 11
130.56
 21
70.2414
  0
LINE
  8
0
 10
130.56
 20
70.2414
 11
130.171
 21
70.0433
  0
LINE
  8
0
 10
130.171
 20
70.0433
 11
129.74
 21
69.975
  0
LINE
  8
0
 10
129.74
 20
69.975
 11
129.309
 21
70.0433
  0
LINE
  8
0
 10
152.922
 20
68.7166
 11
153.7
 21
69.1128
  0
LINE
  8
0
 10
153.7
 20
69.1128
 11
154.317
 21
69.7301
  0
LINE
  8
0
 10
154.317
 20
69.7301
 11
154.713
 21
70.5078
  0
LINE
  8
0
 10
154.713
 20
70.5078
 11
154.85
 21
71.37
  0
LINE
  8
0
 10
154.85
 20
71.37
 11
154.713
 21
72.2321
  0
LINE
  8
0
 10
154.713
 20
72.2321
 11
154.317
 21
73.0099
  0
LINE
  8
0
 10
154.317
 20
73.0099
 11
153.7
 21
73.6272
  0
LINE
  8
0
 10
153.7
 20
73.6272
 11
152.922
 21
74.0234
  0
LINE
  8
0
 10
152.922
 20
74.0234
 11
152.06
 21
74.16
  0
LINE
  8
0
 10
152.06
 20
74.16
 11
151.198
 21
74.0234
  0
LINE
  8
0
 10
151.198
 20
74.0234
 11
150.42
 21
73.6272
  0
LINE
  8
0
 10
150.42
 20
73.6272
 11
149.803
 21
73.0099
  0
LINE
  8
0
 10
149.803
 20
73.0099
 11
149.407
 21
72.2321
  0
LINE
  8
0
 10
149.407
 20
72.2321
 11
149.27
 21
71.37
  0
LINE
  8
0
 10
149.27
 20
71.37
 11
149.407
 21
70.5078
  0
LINE
  8
0
 10
149.407
 20
70.5078
 11
149.803
 21
69.7301
  0
LINE
  8
0
 10
149.803
 20
69.7301
 11
150.42
 21
69.1128
  0
LINE
  8
0
 10
150.42
 20
69.1128
 11
151.198
 21
68.7166
  0
LINE
  8
0
 10
151.198
 20
68.7166
 11
152.06
 21
68.58
  0
LINE
  8
0
 10
152.06
 20
68.58
 11
152.922
 21
68.7166
  0
LINE
  8
0
 10
151.629
 20
70.0433
 11
151.24
 21
70.2414
  0
LINE
  8
0
 10
151.24
 20
70.2414
 11
150.931
 21
70.55
  0
LINE
  8
0
 10
150.931
 20
70.55
 11
150.733
 21
70.9389
  0
LINE
  8
0
 10
150.733
 20
70.9389
 11
150.665
 21
71.37
  0
LINE
  8
0
 10
150.665
 20
71.37
 11
150.733
 21
71.8011
  0
LINE
  8
0
 10
150.733
 20
71.8011
 11
150.931
 21
72.19
  0
LINE
  8
0
 10
150.931
 20
72.19
 11
151.24
 21
72.4986
  0
LINE
  8
0
 10
151.24
 20
72.4986
 11
151.629
 21
72.6967
  0
LINE
  8
0
 10
151.629
 20
72.6967
 11
152.06
 21
72.765
  0
LINE
  8
0
 10
152.06
 20
72.765
 11
152.491
 21
72.6967
  0
LINE
  8
0
 10
152.491
 20
72.6967
 11
152.88
 21
72.4986
  0
LINE
  8
0
 10
152.88
 20
72.4986
 11
153.189
 21
72.19
  0
LINE
  8
0
 10
153.189
 20
72.19
 11
153.387
 21
71.8011
  0
LINE
  8
0
 10
153.387
 20
71.8011
 11
153.455
 21
71.37
  0
LINE
  8
0
 10
153.455
 20
71.37
 11
153.387
 21
70.9389
  0
LINE
  8
0
 10
153.387
 20
70.9389
 11
153.189
 21
70.55
  0
LINE
  8
0
 10
153.189
 20
70.55
 11
152.88
 21
70.2414
  0
LINE
  8
0
 10
152.88
 20
70.2414
 11
152.491
 21
70.0433
  0
LINE
  8
0
 10
152.491
 20
70.0433
 11
152.06
 21
69.975
  0
LINE
  8
0
 10
152.06
 20
69.975
 11
151.629
 21
70.0433
  0
LINE
  8
0
 10
141.762
 20
68.7166
 11
142.54
 21
69.1128
  0
LINE
  8
0
 10
142.54
 20
69.1128
 11
143.157
 21
69.7301
  0
LINE
  8
0
 10
143.157
 20
69.7301
 11
143.553
 21
70.5078
  0
LINE
  8
0
 10
143.553
 20
70.5078
 11
143.69
 21
71.37
  0
LINE
  8
0
 10
143.69
 20
71.37
 11
143.553
 21
72.2321
  0
LINE
  8
0
 10
143.553
 20
72.2321
 11
143.157
 21
73.0099
  0
LINE
  8
0
 10
143.157
 20
73.0099
 11
142.54
 21
73.6272
  0
LINE
  8
0
 10
142.54
 20
73.6272
 11
141.762
 21
74.0234
  0
LINE
  8
0
 10
141.762
 20
74.0234
 11
140.9
 21
74.16
  0
LINE
  8
0
 10
140.9
 20
74.16
 11
140.038
 21
74.0234
  0
LINE
  8
0
 10
140.038
 20
74.0234
 11
139.26
 21
73.6272
  0
LINE
  8
0
 10
139.26
 20
73.6272
 11
138.643
 21
73.0099
  0
LINE
  8
0
 10
138.643
 20
73.0099
 11
138.247
 21
72.2321
  0
LINE
  8
0
 10
138.247
 20
72.2321
 11
138.11
 21
71.37
  0
LINE
  8
0
 10
138.11
 20
71.37
 11
138.247
 21
70.5078
  0
LINE
  8
0
 10
138.247
 20
70.5078
 11
138.643
 21
69.7301
  0
LINE
  8
0
 10
138.643
 20
69.7301
 11
139.26
 21
69.1128
  0
LINE
  8
0
 10
139.26
 20
69.1128
 11
140.038
 21
68.7166
  0
LINE
  8
0
 10
140.038
 20
68.7166
 11
140.9
 21
68.58
  0
LINE
  8
0
 10
140.9
 20
68.58
 11
141.762
 21
68.7166
  0
LINE
  8
0
 10
140.469
 20
70.0433
 11
140.08
 21
70.2414
  0
LINE
  8
0
 10
140.08
 20
70.2414
 11
139.771
 21
70.55
  0
LINE
  8
0
 10
139.771
 20
70.55
 11
139.573
 21
70.9389
  0
LINE
  8
0
 10
139.573
 20
70.9389
 11
139.505
 21
71.37
  0
LINE
  8
0
 10
139.505
 20
71.37
 11
139.573
 21
71.8011
  0
LINE
  8
0
 10
139.573
 20
71.8011
 11
139.771
 21
72.19
  0
LINE
  8
0
 10
139.771
 20
72.19
 11
140.08
 21
72.4986
  0
LINE
  8
0
 10
140.08
 20
72.4986
 11
140.469
 21
72.6967
  0
LINE
  8
0
 10
140.469
 20
72.6967
 11
140.9
 21
72.765
  0
LINE
  8
0
 10
140.9
 20
72.765
 11
141.331
 21
72.6967
  0
LINE
  8
0
 10
141.331
 20
72.6967
 11
141.72
 21
72.4986
  0
LINE
  8
0
 10
141.72
 20
72.4986
 11
142.029
 21
72.19
  0
LINE
  8
0
 10
142.029
 20
72.19
 11
142.227
 21
71.8011
  0
LINE
  8
0
 10
142.227
 20
71.8011
 11
142.295
 21
71.37
  0
LINE
  8
0
 10
142.295
 20
71.37
 11
142.227
 21
70.9389
  0
LINE
  8
0
 10
142.227
 20
70.9389
 11
142.029
 21
70.55
  0
LINE
  8
0
 10
142.029
 20
70.55
 11
141.72
 21
70.2414
  0
LINE
  8
0
 10
141.72
 20
70.2414
 11
141.331
 21
70.0433
  0
LINE
  8
0
 10
141.331
 20
70.0433
 11
140.9
 21
69.975
  0
LINE
  8
0
 10
140.9
 20
69.975
 11
140.469
 21
70.0433
  0
LINE
  8
0
 10
113.862
 20
62.1366
 11
114.64
 21
62.5328
  0
LINE
  8
0
 10
114.64
 20
62.5328
 11
115.257
 21
63.1501
  0
LINE
  8
0
 10
115.257
 20
63.1501
 11
115.653
 21
63.9278
  0
LINE
  8
0
 10
115.653
 20
63.9278
 11
115.79
 21
64.79
  0
LINE
  8
0
 10
115.79
 20
64.79
 11
115.653
 21
65.6522
  0
LINE
  8
0
 10
115.653
 20
65.6522
 11
115.257
 21
66.4299
  0
LINE
  8
0
 10
115.257
 20
66.4299
 11
114.64
 21
67.0471
  0
LINE
  8
0
 10
114.64
 20
67.0471
 11
113.862
 21
67.4435
  0
LINE
  8
0
 10
113.862
 20
67.4435
 11
113
 21
67.58
  0
LINE
  8
0
 10
113
 20
67.58
 11
112.138
 21
67.4435
  0
LINE
  8
0
 10
112.138
 20
67.4435
 11
111.36
 21
67.0471
  0
LINE
  8
0
 10
111.36
 20
67.0471
 11
110.743
 21
66.4299
  0
LINE
  8
0
 10
110.743
 20
66.4299
 11
110.347
 21
65.6522
  0
LINE
  8
0
 10
110.347
 20
65.6522
 11
110.21
 21
64.79
  0
LINE
  8
0
 10
110.21
 20
64.79
 11
110.347
 21
63.9278
  0
LINE
  8
0
 10
110.347
 20
63.9278
 11
110.743
 21
63.1501
  0
LINE
  8
0
 10
110.743
 20
63.1501
 11
111.36
 21
62.5328
  0
LINE
  8
0
 10
111.36
 20
62.5328
 11
112.138
 21
62.1366
  0
LINE
  8
0
 10
112.138
 20
62.1366
 11
113
 21
62
  0
LINE
  8
0
 10
113
 20
62
 11
113.862
 21
62.1366
  0
LINE
  8
0
 10
112.569
 20
63.4633
 11
112.18
 21
63.6614
  0
LINE
  8
0
 10
112.18
 20
63.6614
 11
111.871
 21
63.97
  0
LINE
  8
0
 10
111.871
 20
63.97
 11
111.673
 21
64.3589
  0
LINE
  8
0
 10
111.673
 20
64.3589
 11
111.605
 21
64.79
  0
LINE
  8
0
 10
111.605
 20
64.79
 11
111.673
 21
65.2211
  0
LINE
  8
0
 10
111.673
 20
65.2211
 11
111.871
 21
65.61
  0
LINE
  8
0
 10
111.871
 20
65.61
 11
112.18
 21
65.9186
  0
LINE
  8
0
 10
112.18
 20
65.9186
 11
112.569
 21
66.1167
  0
LINE
  8
0
 10
112.569
 20
66.1167
 11
113
 21
66.185
  0
LINE
  8
0
 10
113
 20
66.185
 11
113.431
 21
66.1167
  0
LINE
  8
0
 10
113.431
 20
66.1167
 11
113.82
 21
65.9186
  0
LINE
  8
0
 10
113.82
 20
65.9186
 11
114.129
 21
65.61
  0
LINE
  8
0
 10
114.129
 20
65.61
 11
114.327
 21
65.2211
  0
LINE
  8
0
 10
114.327
 20
65.2211
 11
114.395
 21
64.79
  0
LINE
  8
0
 10
114.395
 20
64.79
 11
114.327
 21
64.3589
  0
LINE
  8
0
 10
114.327
 20
64.3589
 11
114.129
 21
63.97
  0
LINE
  8
0
 10
114.129
 20
63.97
 11
113.82
 21
63.6614
  0
LINE
  8
0
 10
113.82
 20
63.6614
 11
113.431
 21
63.4633
  0
LINE
  8
0
 10
113.431
 20
63.4633
 11
113
 21
63.395
  0
LINE
  8
0
 10
113
 20
63.395
 11
112.569
 21
63.4633
  0
LINE
  8
0
 10
152.922
 20
62.1366
 11
153.7
 21
62.5328
  0
LINE
  8
0
 10
153.7
 20
62.5328
 11
154.317
 21
63.1501
  0
LINE
  8
0
 10
154.317
 20
63.1501
 11
154.713
 21
63.9278
  0
LINE
  8
0
 10
154.713
 20
63.9278
 11
154.85
 21
64.79
  0
LINE
  8
0
 10
154.85
 20
64.79
 11
154.713
 21
65.6522
  0
LINE
  8
0
 10
154.713
 20
65.6522
 11
154.317
 21
66.4299
  0
LINE
  8
0
 10
154.317
 20
66.4299
 11
153.7
 21
67.0471
  0
LINE
  8
0
 10
153.7
 20
67.0471
 11
152.922
 21
67.4435
  0
LINE
  8
0
 10
152.922
 20
67.4435
 11
152.06
 21
67.58
  0
LINE
  8
0
 10
152.06
 20
67.58
 11
151.198
 21
67.4435
  0
LINE
  8
0
 10
151.198
 20
67.4435
 11
150.42
 21
67.0471
  0
LINE
  8
0
 10
150.42
 20
67.0471
 11
149.803
 21
66.4299
  0
LINE
  8
0
 10
149.803
 20
66.4299
 11
149.407
 21
65.6522
  0
LINE
  8
0
 10
149.407
 20
65.6522
 11
149.27
 21
64.79
  0
LINE
  8
0
 10
149.27
 20
64.79
 11
149.407
 21
63.9278
  0
LINE
  8
0
 10
149.407
 20
63.9278
 11
149.803
 21
63.1501
  0
LINE
  8
0
 10
149.803
 20
63.1501
 11
150.42
 21
62.5328
  0
LINE
  8
0
 10
150.42
 20
62.5328
 11
151.198
 21
62.1366
  0
LINE
  8
0
 10
151.198
 20
62.1366
 11
152.06
 21
62
  0
LINE
  8
0
 10
152.06
 20
62
 11
152.922
 21
62.1366
  0
LINE
  8
0
 10
151.629
 20
63.4633
 11
151.24
 21
63.6614
  0
LINE
  8
0
 10
151.24
 20
63.6614
 11
150.931
 21
63.97
  0
LINE
  8
0
 10
150.931
 20
63.97
 11
150.733
 21
64.3589
  0
LINE
  8
0
 10
150.733
 20
64.3589
 11
150.665
 21
64.79
  0
LINE
  8
0
 10
150.665
 20
64.79
 11
150.733
 21
65.2211
  0
LINE
  8
0
 10
150.733
 20
65.2211
 11
150.931
 21
65.61
  0
LINE
  8
0
 10
150.931
 20
65.61
 11
151.24
 21
65.9186
  0
LINE
  8
0
 10
151.24
 20
65.9186
 11
151.629
 21
66.1167
  0
LINE
  8
0
 10
151.629
 20
66.1167
 11
152.06
 21
66.185
  0
LINE
  8
0
 10
152.06
 20
66.185
 11
152.491
 21
66.1167
  0
LINE
  8
0
 10
152.491
 20
66.1167
 11
152.88
 21
65.9186
  0
LINE
  8
0
 10
152.88
 20
65.9186
 11
153.189
 21
65.61
  0
LINE
  8
0
 10
153.189
 20
65.61
 11
153.387
 21
65.2211
  0
LINE
  8
0
 10
153.387
 20
65.2211
 11
153.455
 21
64.79
  0
LINE
  8
0
 10
153.455
 20
64.79
 11
153.387
 21
64.3589
  0
LINE
  8
0
 10
153.387
 20
64.3589
 11
153.189
 21
63.97
  0
LINE
  8
0
 10
153.189
 20
63.97
 11
152.88
 21
63.6614
  0
LINE
  8
0
 10
152.88
 20
63.6614
 11
152.491
 21
63.4633
  0
LINE
  8
0
 10
152.491
 20
63.4633
 11
152.06
 21
63.395
  0
LINE
  8
0
 10
152.06
 20
63.395
 11
151.629
 21
63.4633
  0
LINE
  8
0
 10
147.342
 20
62.1366
 11
148.12
 21
62.5328
  0
LINE
  8
0
 10
148.12
 20
62.5328
 11
148.737
 21
63.1501
  0
LINE
  8
0
 10
148.737
 20
63.1501
 11
149.133
 21
63.9278
  0
LINE
  8
0
 10
149.133
 20
63.9278
 11
149.27
 21
64.79
  0
LINE
  8
0
 10
149.27
 20
64.79
 11
149.133
 21
65.6522
  0
LINE
  8
0
 10
149.133
 20
65.6522
 11
148.737
 21
66.4299
  0
LINE
  8
0
 10
148.737
 20
66.4299
 11
148.12
 21
67.0471
  0
LINE
  8
0
 10
148.12
 20
67.0471
 11
147.342
 21
67.4435
  0
LINE
  8
0
 10
147.342
 20
67.4435
 11
146.48
 21
67.58
  0
LINE
  8
0
 10
146.48
 20
67.58
 11
145.618
 21
67.4435
  0
LINE
  8
0
 10
145.618
 20
67.4435
 11
144.84
 21
67.0471
  0
LINE
  8
0
 10
144.84
 20
67.0471
 11
144.223
 21
66.4299
  0
LINE
  8
0
 10
144.223
 20
66.4299
 11
143.827
 21
65.6522
  0
LINE
  8
0
 10
143.827
 20
65.6522
 11
143.69
 21
64.79
  0
LINE
  8
0
 10
143.69
 20
64.79
 11
143.827
 21
63.9278
  0
LINE
  8
0
 10
143.827
 20
63.9278
 11
144.223
 21
63.1501
  0
LINE
  8
0
 10
144.223
 20
63.1501
 11
144.84
 21
62.5328
  0
LINE
  8
0
 10
144.84
 20
62.5328
 11
145.618
 21
62.1366
  0
LINE
  8
0
 10
145.618
 20
62.1366
 11
146.48
 21
62
  0
LINE
  8
0
 10
146.48
 20
62
 11
147.342
 21
62.1366
  0
LINE
  8
0
 10
146.049
 20
63.4633
 11
145.66
 21
63.6614
  0
LINE
  8
0
 10
145.66
 20
63.6614
 11
145.351
 21
63.97
  0
LINE
  8
0
 10
145.351
 20
63.97
 11
145.153
 21
64.3589
  0
LINE
  8
0
 10
145.153
 20
64.3589
 11
145.085
 21
64.79
  0
LINE
  8
0
 10
145.085
 20
64.79
 11
145.153
 21
65.2211
  0
LINE
  8
0
 10
145.153
 20
65.2211
 11
145.351
 21
65.61
  0
LINE
  8
0
 10
145.351
 20
65.61
 11
145.66
 21
65.9186
  0
LINE
  8
0
 10
145.66
 20
65.9186
 11
146.049
 21
66.1167
  0
LINE
  8
0
 10
146.049
 20
66.1167
 11
146.48
 21
66.185
  0
LINE
  8
0
 10
146.48
 20
66.185
 11
146.911
 21
66.1167
  0
LINE
  8
0
 10
146.911
 20
66.1167
 11
147.3
 21
65.9186
  0
LINE
  8
0
 10
147.3
 20
65.9186
 11
147.609
 21
65.61
  0
LINE
  8
0
 10
147.609
 20
65.61
 11
147.807
 21
65.2211
  0
LINE
  8
0
 10
147.807
 20
65.2211
 11
147.875
 21
64.79
  0
LINE
  8
0
 10
147.875
 20
64.79
 11
147.807
 21
64.3589
  0
LINE
  8
0
 10
147.807
 20
64.3589
 11
147.609
 21
63.97
  0
LINE
  8
0
 10
147.609
 20
63.97
 11
147.3
 21
63.6614
  0
LINE
  8
0
 10
147.3
 20
63.6614
 11
146.911
 21
63.4633
  0
LINE
  8
0
 10
146.911
 20
63.4633
 11
146.48
 21
63.395
  0
LINE
  8
0
 10
146.48
 20
63.395
 11
146.049
 21
63.4633
  0
LINE
  8
0
 10
119.442
 20
62.1366
 11
120.22
 21
62.5328
  0
LINE
  8
0
 10
120.22
 20
62.5328
 11
120.837
 21
63.1501
  0
LINE
  8
0
 10
120.837
 20
63.1501
 11
121.233
 21
63.9278
  0
LINE
  8
0
 10
121.233
 20
63.9278
 11
121.37
 21
64.79
  0
LINE
  8
0
 10
121.37
 20
64.79
 11
121.233
 21
65.6522
  0
LINE
  8
0
 10
121.233
 20
65.6522
 11
120.837
 21
66.4299
  0
LINE
  8
0
 10
120.837
 20
66.4299
 11
120.22
 21
67.0471
  0
LINE
  8
0
 10
120.22
 20
67.0471
 11
119.442
 21
67.4435
  0
LINE
  8
0
 10
119.442
 20
67.4435
 11
118.58
 21
67.58
  0
LINE
  8
0
 10
118.58
 20
67.58
 11
117.718
 21
67.4435
  0
LINE
  8
0
 10
117.718
 20
67.4435
 11
116.94
 21
67.0471
  0
LINE
  8
0
 10
116.94
 20
67.0471
 11
116.323
 21
66.4299
  0
LINE
  8
0
 10
116.323
 20
66.4299
 11
115.927
 21
65.6522
  0
LINE
  8
0
 10
115.927
 20
65.6522
 11
115.79
 21
64.79
  0
LINE
  8
0
 10
115.79
 20
64.79
 11
115.927
 21
63.9278
  0
LINE
  8
0
 10
115.927
 20
63.9278
 11
116.323
 21
63.1501
  0
LINE
  8
0
 10
116.323
 20
63.1501
 11
116.94
 21
62.5328
  0
LINE
  8
0
 10
116.94
 20
62.5328
 11
117.718
 21
62.1366
  0
LINE
  8
0
 10
117.718
 20
62.1366
 11
118.58
 21
62
  0
LINE
  8
0
 10
118.58
 20
62
 11
119.442
 21
62.1366
  0
LINE
  8
0
 10
118.149
 20
63.4633
 11
117.76
 21
63.6614
  0
LINE
  8
0
 10
117.76
 20
63.6614
 11
117.451
 21
63.97
  0
LINE
  8
0
 10
117.451
 20
63.97
 11
117.253
 21
64.3589
  0
LINE
  8
0
 10
117.253
 20
64.3589
 11
117.185
 21
64.79
  0
LINE
  8
0
 10
117.185
 20
64.79
 11
117.253
 21
65.2211
  0
LINE
  8
0
 10
117.253
 20
65.2211
 11
117.451
 21
65.61
  0
LINE
  8
0
 10
117.451
 20
65.61
 11
117.76
 21
65.9186
  0
LINE
  8
0
 10
117.76
 20
65.9186
 11
118.149
 21
66.1167
  0
LINE
  8
0
 10
118.149
 20
66.1167
 11
118.58
 21
66.185
  0
LINE
  8
0
 10
118.58
 20
66.185
 11
119.011
 21
66.1167
  0
LINE
  8
0
 10
119.011
 20
66.1167
 11
119.4
 21
65.9186
  0
LINE
  8
0
 10
119.4
 20
65.9186
 11
119.709
 21
65.61
  0
LINE
  8
0
 10
119.709
 20
65.61
 11
119.907
 21
65.2211
  0
LINE
  8
0
 10
119.907
 20
65.2211
 11
119.975
 21
64.79
  0
LINE
  8
0
 10
119.975
 20
64.79
 11
119.907
 21
64.3589
  0
LINE
  8
0
 10
119.907
 20
64.3589
 11
119.709
 21
63.97
  0
LINE
  8
0
 10
119.709
 20
63.97
 11
119.4
 21
63.6614
  0
LINE
  8
0
 10
119.4
 20
63.6614
 11
119.011
 21
63.4633
  0
LINE
  8
0
 10
119.011
 20
63.4633
 11
118.58
 21
63.395
  0
LINE
  8
0
 10
118.58
 20
63.395
 11
118.149
 21
63.4633
  0
LINE
  8
0
 10
130.602
 20
62.1366
 11
131.38
 21
62.5328
  0
LINE
  8
0
 10
131.38
 20
62.5328
 11
131.997
 21
63.1501
  0
LINE
  8
0
 10
131.997
 20
63.1501
 11
132.393
 21
63.9278
  0
LINE
  8
0
 10
132.393
 20
63.9278
 11
132.53
 21
64.79
  0
LINE
  8
0
 10
132.53
 20
64.79
 11
132.393
 21
65.6522
  0
LINE
  8
0
 10
132.393
 20
65.6522
 11
131.997
 21
66.4299
  0
LINE
  8
0
 10
131.997
 20
66.4299
 11
131.38
 21
67.0471
  0
LINE
  8
0
 10
131.38
 20
67.0471
 11
130.602
 21
67.4435
  0
LINE
  8
0
 10
130.602
 20
67.4435
 11
129.74
 21
67.58
  0
LINE
  8
0
 10
129.74
 20
67.58
 11
128.878
 21
67.4435
  0
LINE
  8
0
 10
128.878
 20
67.4435
 11
128.1
 21
67.0471
  0
LINE
  8
0
 10
128.1
 20
67.0471
 11
127.483
 21
66.4299
  0
LINE
  8
0
 10
127.483
 20
66.4299
 11
127.087
 21
65.6522
  0
LINE
  8
0
 10
127.087
 20
65.6522
 11
126.95
 21
64.79
  0
LINE
  8
0
 10
126.95
 20
64.79
 11
127.087
 21
63.9278
  0
LINE
  8
0
 10
127.087
 20
63.9278
 11
127.483
 21
63.1501
  0
LINE
  8
0
 10
127.483
 20
63.1501
 11
128.1
 21
62.5328
  0
LINE
  8
0
 10
128.1
 20
62.5328
 11
128.878
 21
62.1366
  0
LINE
  8
0
 10
128.878
 20
62.1366
 11
129.74
 21
62
  0
LINE
  8
0
 10
129.74
 20
62
 11
130.602
 21
62.1366
  0
LINE
  8
0
 10
129.309
 20
63.4633
 11
128.92
 21
63.6614
  0
LINE
  8
0
 10
128.92
 20
63.6614
 11
128.611
 21
63.97
  0
LINE
  8
0
 10
128.611
 20
63.97
 11
128.413
 21
64.3589
  0
LINE
  8
0
 10
128.413
 20
64.3589
 11
128.345
 21
64.79
  0
LINE
  8
0
 10
128.345
 20
64.79
 11
128.413
 21
65.2211
  0
LINE
  8
0
 10
128.413
 20
65.2211
 11
128.611
 21
65.61
  0
LINE
  8
0
 10
128.611
 20
65.61
 11
128.92
 21
65.9186
  0
LINE
  8
0
 10
128.92
 20
65.9186
 11
129.309
 21
66.1167
  0
LINE
  8
0
 10
129.309
 20
66.1167
 11
129.74
 21
66.185
  0
LINE
  8
0
 10
129.74
 20
66.185
 11
130.171
 21
66.1167
  0
LINE
  8
0
 10
130.171
 20
66.1167
 11
130.56
 21
65.9186
  0
LINE
  8
0
 10
130.56
 20
65.9186
 11
130.869
 21
65.61
  0
LINE
  8
0
 10
130.869
 20
65.61
 11
131.067
 21
65.2211
  0
LINE
  8
0
 10
131.067
 20
65.2211
 11
131.135
 21
64.79
  0
LINE
  8
0
 10
131.135
 20
64.79
 11
131.067
 21
64.3589
  0
LINE
  8
0
 10
131.067
 20
64.3589
 11
130.869
 21
63.97
  0
LINE
  8
0
 10
130.869
 20
63.97
 11
130.56
 21
63.6614
  0
LINE
  8
0
 10
130.56
 20
63.6614
 11
130.171
 21
63.4633
  0
LINE
  8
0
 10
130.171
 20
63.4633
 11
129.74
 21
63.395
  0
LINE
  8
0
 10
129.74
 20
63.395
 11
129.309
 21
63.4633
  0
LINE
  8
0
 10
158.502
 20
62.1366
 11
159.28
 21
62.5328
  0
LINE
  8
0
 10
159.28
 20
62.5328
 11
159.897
 21
63.1501
  0
LINE
  8
0
 10
159.897
 20
63.1501
 11
160.293
 21
63.9278
  0
LINE
  8
0
 10
160.293
 20
63.9278
 11
160.43
 21
64.79
  0
LINE
  8
0
 10
160.43
 20
64.79
 11
160.293
 21
65.6522
  0
LINE
  8
0
 10
160.293
 20
65.6522
 11
159.897
 21
66.4299
  0
LINE
  8
0
 10
159.897
 20
66.4299
 11
159.28
 21
67.0471
  0
LINE
  8
0
 10
159.28
 20
67.0471
 11
158.502
 21
67.4435
  0
LINE
  8
0
 10
158.502
 20
67.4435
 11
157.64
 21
67.58
  0
LINE
  8
0
 10
157.64
 20
67.58
 11
156.778
 21
67.4435
  0
LINE
  8
0
 10
156.778
 20
67.4435
 11
156
 21
67.0471
  0
LINE
  8
0
 10
156
 20
67.0471
 11
155.383
 21
66.4299
  0
LINE
  8
0
 10
155.383
 20
66.4299
 11
154.987
 21
65.6522
  0
LINE
  8
0
 10
154.987
 20
65.6522
 11
154.85
 21
64.79
  0
LINE
  8
0
 10
154.85
 20
64.79
 11
154.987
 21
63.9278
  0
LINE
  8
0
 10
154.987
 20
63.9278
 11
155.383
 21
63.1501
  0
LINE
  8
0
 10
155.383
 20
63.1501
 11
156
 21
62.5328
  0
LINE
  8
0
 10
156
 20
62.5328
 11
156.778
 21
62.1366
  0
LINE
  8
0
 10
156.778
 20
62.1366
 11
157.64
 21
62
  0
LINE
  8
0
 10
157.64
 20
62
 11
158.502
 21
62.1366
  0
LINE
  8
0
 10
157.209
 20
63.4633
 11
156.82
 21
63.6614
  0
LINE
  8
0
 10
156.82
 20
63.6614
 11
156.511
 21
63.97
  0
LINE
  8
0
 10
156.511
 20
63.97
 11
156.313
 21
64.3589
  0
LINE
  8
0
 10
156.313
 20
64.3589
 11
156.245
 21
64.79
  0
LINE
  8
0
 10
156.245
 20
64.79
 11
156.313
 21
65.2211
  0
LINE
  8
0
 10
156.313
 20
65.2211
 11
156.511
 21
65.61
  0
LINE
  8
0
 10
156.511
 20
65.61
 11
156.82
 21
65.9186
  0
LINE
  8
0
 10
156.82
 20
65.9186
 11
157.209
 21
66.1167
  0
LINE
  8
0
 10
157.209
 20
66.1167
 11
157.64
 21
66.185
  0
LINE
  8
0
 10
157.64
 20
66.185
 11
158.071
 21
66.1167
  0
LINE
  8
0
 10
158.071
 20
66.1167
 11
158.46
 21
65.9186
  0
LINE
  8
0
 10
158.46
 20
65.9186
 11
158.769
 21
65.61
  0
LINE
  8
0
 10
158.769
 20
65.61
 11
158.967
 21
65.2211
  0
LINE
  8
0
 10
158.967
 20
65.2211
 11
159.035
 21
64.79
  0
LINE
  8
0
 10
159.035
 20
64.79
 11
158.967
 21
64.3589
  0
LINE
  8
0
 10
158.967
 20
64.3589
 11
158.769
 21
63.97
  0
LINE
  8
0
 10
158.769
 20
63.97
 11
158.46
 21
63.6614
  0
LINE
  8
0
 10
158.46
 20
63.6614
 11
158.071
 21
63.4633
  0
LINE
  8
0
 10
158.071
 20
63.4633
 11
157.64
 21
63.395
  0
LINE
  8
0
 10
157.64
 20
63.395
 11
157.209
 21
63.4633
  0
LINE
  8
0
 10
164.082
 20
62.1366
 11
164.86
 21
62.5328
  0
LINE
  8
0
 10
164.86
 20
62.5328
 11
165.477
 21
63.1501
  0
LINE
  8
0
 10
165.477
 20
63.1501
 11
165.873
 21
63.9278
  0
LINE
  8
0
 10
165.873
 20
63.9278
 11
166.01
 21
64.79
  0
LINE
  8
0
 10
166.01
 20
64.79
 11
165.873
 21
65.6522
  0
LINE
  8
0
 10
165.873
 20
65.6522
 11
165.477
 21
66.4299
  0
LINE
  8
0
 10
165.477
 20
66.4299
 11
164.86
 21
67.0471
  0
LINE
  8
0
 10
164.86
 20
67.0471
 11
164.082
 21
67.4435
  0
LINE
  8
0
 10
164.082
 20
67.4435
 11
163.22
 21
67.58
  0
LINE
  8
0
 10
163.22
 20
67.58
 11
162.358
 21
67.4435
  0
LINE
  8
0
 10
162.358
 20
67.4435
 11
161.58
 21
67.0471
  0
LINE
  8
0
 10
161.58
 20
67.0471
 11
160.963
 21
66.4299
  0
LINE
  8
0
 10
160.963
 20
66.4299
 11
160.567
 21
65.6522
  0
LINE
  8
0
 10
160.567
 20
65.6522
 11
160.43
 21
64.79
  0
LINE
  8
0
 10
160.43
 20
64.79
 11
160.567
 21
63.9278
  0
LINE
  8
0
 10
160.567
 20
63.9278
 11
160.963
 21
63.1501
  0
LINE
  8
0
 10
160.963
 20
63.1501
 11
161.58
 21
62.5328
  0
LINE
  8
0
 10
161.58
 20
62.5328
 11
162.358
 21
62.1366
  0
LINE
  8
0
 10
162.358
 20
62.1366
 11
163.22
 21
62
  0
LINE
  8
0
 10
163.22
 20
62
 11
164.082
 21
62.1366
  0
LINE
  8
0
 10
162.789
 20
63.4633
 11
162.4
 21
63.6614
  0
LINE
  8
0
 10
162.4
 20
63.6614
 11
162.091
 21
63.97
  0
LINE
  8
0
 10
162.091
 20
63.97
 11
161.893
 21
64.3589
  0
LINE
  8
0
 10
161.893
 20
64.3589
 11
161.825
 21
64.79
  0
LINE
  8
0
 10
161.825
 20
64.79
 11
161.893
 21
65.2211
  0
LINE
  8
0
 10
161.893
 20
65.2211
 11
162.091
 21
65.61
  0
LINE
  8
0
 10
162.091
 20
65.61
 11
162.4
 21
65.9186
  0
LINE
  8
0
 10
162.4
 20
65.9186
 11
162.789
 21
66.1167
  0
LINE
  8
0
 10
162.789
 20
66.1167
 11
163.22
 21
66.185
  0
LINE
  8
0
 10
163.22
 20
66.185
 11
163.651
 21
66.1167
  0
LINE
  8
0
 10
163.651
 20
66.1167
 11
164.04
 21
65.9186
  0
LINE
  8
0
 10
164.04
 20
65.9186
 11
164.349
 21
65.61
  0
LINE
  8
0
 10
164.349
 20
65.61
 11
164.547
 21
65.2211
  0
LINE
  8
0
 10
164.547
 20
65.2211
 11
164.615
 21
64.79
  0
LINE
  8
0
 10
164.615
 20
64.79
 11
164.547
 21
64.3589
  0
LINE
  8
0
 10
164.547
 20
64.3589
 11
164.349
 21
63.97
  0
LINE
  8
0
 10
164.349
 20
63.97
 11
164.04
 21
63.6614
  0
LINE
  8
0
 10
164.04
 20
63.6614
 11
163.651
 21
63.4633
  0
LINE
  8
0
 10
163.651
 20
63.4633
 11
163.22
 21
63.395
  0
LINE
  8
0
 10
163.22
 20
63.395
 11
162.789
 21
63.4633
  0
LINE
  8
0
 10
141.762
 20
62.1366
 11
142.54
 21
62.5328
  0
LINE
  8
0
 10
142.54
 20
62.5328
 11
143.157
 21
63.1501
  0
LINE
  8
0
 10
143.157
 20
63.1501
 11
143.553
 21
63.9278
  0
LINE
  8
0
 10
143.553
 20
63.9278
 11
143.69
 21
64.79
  0
LINE
  8
0
 10
143.69
 20
64.79
 11
143.553
 21
65.6522
  0
LINE
  8
0
 10
143.553
 20
65.6522
 11
143.157
 21
66.4299
  0
LINE
  8
0
 10
143.157
 20
66.4299
 11
142.54
 21
67.0471
  0
LINE
  8
0
 10
142.54
 20
67.0471
 11
141.762
 21
67.4435
  0
LINE
  8
0
 10
141.762
 20
67.4435
 11
140.9
 21
67.58
  0
LINE
  8
0
 10
140.9
 20
67.58
 11
140.038
 21
67.4435
  0
LINE
  8
0
 10
140.038
 20
67.4435
 11
139.26
 21
67.0471
  0
LINE
  8
0
 10
139.26
 20
67.0471
 11
138.643
 21
66.4299
  0
LINE
  8
0
 10
138.643
 20
66.4299
 11
138.247
 21
65.6522
  0
LINE
  8
0
 10
138.247
 20
65.6522
 11
138.11
 21
64.79
  0
LINE
  8
0
 10
138.11
 20
64.79
 11
138.247
 21
63.9278
  0
LINE
  8
0
 10
138.247
 20
63.9278
 11
138.643
 21
63.1501
  0
LINE
  8
0
 10
138.643
 20
63.1501
 11
139.26
 21
62.5328
  0
LINE
  8
0
 10
139.26
 20
62.5328
 11
140.038
 21
62.1366
  0
LINE
  8
0
 10
140.038
 20
62.1366
 11
140.9
 21
62
  0
LINE
  8
0
 10
140.9
 20
62
 11
141.762
 21
62.1366
  0
LINE
  8
0
 10
140.469
 20
63.4633
 11
140.08
 21
63.6614
  0
LINE
  8
0
 10
140.08
 20
63.6614
 11
139.771
 21
63.97
  0
LINE
  8
0
 10
139.771
 20
63.97
 11
139.573
 21
64.3589
  0
LINE
  8
0
 10
139.573
 20
64.3589
 11
139.505
 21
64.79
  0
LINE
  8
0
 10
139.505
 20
64.79
 11
139.573
 21
65.2211
  0
LINE
  8
0
 10
139.573
 20
65.2211
 11
139.771
 21
65.61
  0
LINE
  8
0
 10
139.771
 20
65.61
 11
140.08
 21
65.9186
  0
LINE
  8
0
 10
140.08
 20
65.9186
 11
140.469
 21
66.1167
  0
LINE
  8
0
 10
140.469
 20
66.1167
 11
140.9
 21
66.185
  0
LINE
  8
0
 10
140.9
 20
66.185
 11
141.331
 21
66.1167
  0
LINE
  8
0
 10
141.331
 20
66.1167
 11
141.72
 21
65.9186
  0
LINE
  8
0
 10
141.72
 20
65.9186
 11
142.029
 21
65.61
  0
LINE
  8
0
 10
142.029
 20
65.61
 11
142.227
 21
65.2211
  0
LINE
  8
0
 10
142.227
 20
65.2211
 11
142.295
 21
64.79
  0
LINE
  8
0
 10
142.295
 20
64.79
 11
142.227
 21
64.3589
  0
LINE
  8
0
 10
142.227
 20
64.3589
 11
142.029
 21
63.97
  0
LINE
  8
0
 10
142.029
 20
63.97
 11
141.72
 21
63.6614
  0
LINE
  8
0
 10
141.72
 20
63.6614
 11
141.331
 21
63.4633
  0
LINE
  8
0
 10
141.331
 20
63.4633
 11
140.9
 21
63.395
  0
LINE
  8
0
 10
140.9
 20
63.395
 11
140.469
 21
63.4633
  0
LINE
  8
0
 10
136.182
 20
62.1366
 11
136.96
 21
62.5328
  0
LINE
  8
0
 10
136.96
 20
62.5328
 11
137.577
 21
63.1501
  0
LINE
  8
0
 10
137.577
 20
63.1501
 11
137.973
 21
63.9278
  0
LINE
  8
0
 10
137.973
 20
63.9278
 11
138.11
 21
64.79
  0
LINE
  8
0
 10
138.11
 20
64.79
 11
137.973
 21
65.6522
  0
LINE
  8
0
 10
137.973
 20
65.6522
 11
137.577
 21
66.4299
  0
LINE
  8
0
 10
137.577
 20
66.4299
 11
136.96
 21
67.0471
  0
LINE
  8
0
 10
136.96
 20
67.0471
 11
136.182
 21
67.4435
  0
LINE
  8
0
 10
136.182
 20
67.4435
 11
135.32
 21
67.58
  0
LINE
  8
0
 10
135.32
 20
67.58
 11
134.458
 21
67.4435
  0
LINE
  8
0
 10
134.458
 20
67.4435
 11
133.68
 21
67.0471
  0
LINE
  8
0
 10
133.68
 20
67.0471
 11
133.063
 21
66.4299
  0
LINE
  8
0
 10
133.063
 20
66.4299
 11
132.667
 21
65.6522
  0
LINE
  8
0
 10
132.667
 20
65.6522
 11
132.53
 21
64.79
  0
LINE
  8
0
 10
132.53
 20
64.79
 11
132.667
 21
63.9278
  0
LINE
  8
0
 10
132.667
 20
63.9278
 11
133.063
 21
63.1501
  0
LINE
  8
0
 10
133.063
 20
63.1501
 11
133.68
 21
62.5328
  0
LINE
  8
0
 10
133.68
 20
62.5328
 11
134.458
 21
62.1366
  0
LINE
  8
0
 10
134.458
 20
62.1366
 11
135.32
 21
62
  0
LINE
  8
0
 10
135.32
 20
62
 11
136.182
 21
62.1366
  0
LINE
  8
0
 10
134.889
 20
63.4633
 11
134.5
 21
63.6614
  0
LINE
  8
0
 10
134.5
 20
63.6614
 11
134.191
 21
63.97
  0
LINE
  8
0
 10
134.191
 20
63.97
 11
133.993
 21
64.3589
  0
LINE
  8
0
 10
133.993
 20
64.3589
 11
133.925
 21
64.79
  0
LINE
  8
0
 10
133.925
 20
64.79
 11
133.993
 21
65.2211
  0
LINE
  8
0
 10
133.993
 20
65.2211
 11
134.191
 21
65.61
  0
LINE
  8
0
 10
134.191
 20
65.61
 11
134.5
 21
65.9186
  0
LINE
  8
0
 10
134.5
 20
65.9186
 11
134.889
 21
66.1167
  0
LINE
  8
0
 10
134.889
 20
66.1167
 11
135.32
 21
66.185
  0
LINE
  8
0
 10
135.32
 20
66.185
 11
135.751
 21
66.1167
  0
LINE
  8
0
 10
135.751
 20
66.1167
 11
136.14
 21
65.9186
  0
LINE
  8
0
 10
136.14
 20
65.9186
 11
136.449
 21
65.61
  0
LINE
  8
0
 10
136.449
 20
65.61
 11
136.647
 21
65.2211
  0
LINE
  8
0
 10
136.647
 20
65.2211
 11
136.715
 21
64.79
  0
LINE
  8
0
 10
136.715
 20
64.79
 11
136.647
 21
64.3589
  0
LINE
  8
0
 10
136.647
 20
64.3589
 11
136.449
 21
63.97
  0
LINE
  8
0
 10
136.449
 20
63.97
 11
136.14
 21
63.6614
  0
LINE
  8
0
 10
136.14
 20
63.6614
 11
135.751
 21
63.4633
  0
LINE
  8
0
 10
135.751
 20
63.4633
 11
135.32
 21
63.395
  0
LINE
  8
0
 10
135.32
 20
63.395
 11
134.889
 21
63.4633
  0
LINE
  8
0
 10
125.022
 20
62.1366
 11
125.8
 21
62.5328
  0
LINE
  8
0
 10
125.8
 20
62.5328
 11
126.417
 21
63.1501
  0
LINE
  8
0
 10
126.417
 20
63.1501
 11
126.813
 21
63.9278
  0
LINE
  8
0
 10
126.813
 20
63.9278
 11
126.95
 21
64.79
  0
LINE
  8
0
 10
126.95
 20
64.79
 11
126.813
 21
65.6522
  0
LINE
  8
0
 10
126.813
 20
65.6522
 11
126.417
 21
66.4299
  0
LINE
  8
0
 10
126.417
 20
66.4299
 11
125.8
 21
67.0471
  0
LINE
  8
0
 10
125.8
 20
67.0471
 11
125.022
 21
67.4435
  0
LINE
  8
0
 10
125.022
 20
67.4435
 11
124.16
 21
67.58
  0
LINE
  8
0
 10
124.16
 20
67.58
 11
123.298
 21
67.4435
  0
LINE
  8
0
 10
123.298
 20
67.4435
 11
122.52
 21
67.0471
  0
LINE
  8
0
 10
122.52
 20
67.0471
 11
121.903
 21
66.4299
  0
LINE
  8
0
 10
121.903
 20
66.4299
 11
121.507
 21
65.6522
  0
LINE
  8
0
 10
121.507
 20
65.6522
 11
121.37
 21
64.79
  0
LINE
  8
0
 10
121.37
 20
64.79
 11
121.507
 21
63.9278
  0
LINE
  8
0
 10
121.507
 20
63.9278
 11
121.903
 21
63.1501
  0
LINE
  8
0
 10
121.903
 20
63.1501
 11
122.52
 21
62.5328
  0
LINE
  8
0
 10
122.52
 20
62.5328
 11
123.298
 21
62.1366
  0
LINE
  8
0
 10
123.298
 20
62.1366
 11
124.16
 21
62
  0
LINE
  8
0
 10
124.16
 20
62
 11
125.022
 21
62.1366
  0
LINE
  8
0
 10
123.729
 20
63.4633
 11
123.34
 21
63.6614
  0
LINE
  8
0
 10
123.34
 20
63.6614
 11
123.031
 21
63.97
  0
LINE
  8
0
 10
123.031
 20
63.97
 11
122.833
 21
64.3589
  0
LINE
  8
0
 10
122.833
 20
64.3589
 11
122.765
 21
64.79
  0
LINE
  8
0
 10
122.765
 20
64.79
 11
122.833
 21
65.2211
  0
LINE
  8
0
 10
122.833
 20
65.2211
 11
123.031
 21
65.61
  0
LINE
  8
0
 10
123.031
 20
65.61
 11
123.34
 21
65.9186
  0
LINE
  8
0
 10
123.34
 20
65.9186
 11
123.729
 21
66.1167
  0
LINE
  8
0
 10
123.729
 20
66.1167
 11
124.16
 21
66.185
  0
LINE
  8
0
 10
124.16
 20
66.185
 11
124.591
 21
66.1167
  0
LINE
  8
0
 10
124.591
 20
66.1167
 11
124.98
 21
65.9186
  0
LINE
  8
0
 10
124.98
 20
65.9186
 11
125.289
 21
65.61
  0
LINE
  8
0
 10
125.289
 20
65.61
 11
125.487
 21
65.2211
  0
LINE
  8
0
 10
125.487
 20
65.2211
 11
125.555
 21
64.79
  0
LINE
  8
0
 10
125.555
 20
64.79
 11
125.487
 21
64.3589
  0
LINE
  8
0
 10
125.487
 20
64.3589
 11
125.289
 21
63.97
  0
LINE
  8
0
 10
125.289
 20
63.97
 11
124.98
 21
63.6614
  0
LINE
  8
0
 10
124.98
 20
63.6614
 11
124.591
 21
63.4633
  0
LINE
  8
0
 10
124.591
 20
63.4633
 11
124.16
 21
63.395
  0
LINE
  8
0
 10
124.16
 20
63.395
 11
123.729
 21
63.4633
  0
LINE
  8
0
 10
202
 20
12.2
 11
199.5
 21
12.2
  0
LINE
  8
0
 10
199.5
 20
12.2
 11
199.5
 21
24.4
  0
LINE
  8
0
 10
199.5
 20
24.4
 11
202
 21
24.4
  0
LINE
  8
0
 10
202
 20
24.4
 11
202
 21
36.6
  0
LINE
  8
0
 10
202
 20
36.6
 11
199.5
 21
36.6
  0
LINE
  8
0
 10
199.5
 20
36.6
 11
199.5
 21
48.8
  0
LINE
  8
0
 10
199.5
 20
48.8
 11
202
 21
48.8
  0
LINE
  8
0
 10
202
 20
48.8
 11
202
 21
61
  0
LINE
  8
0
 10
202
 20
61
 11
158
 21
61
  0
LINE
  8
0
 10
158
 20
61
 11
158
 21
48.8
  0
LINE
  8
0
 10
158
 20
48.8
 11
160.72
 21
48.8
  0
LINE
  8
0
 10
160.72
 20
48.8
 11
160.72
 21
36.6
  0
LINE
  8
0
 10
160.72
 20
36.6
 11
158
 21
36.6
  0
LINE
  8
0
 10
158
 20
36.6
 11
158
 21
24.4
  0
LINE
  8
0
 10
158
 20
24.4
 11
160.72
 21
24.4
  0
LINE
  8
0
 10
160.72
 20
24.4
 11
160.72
 21
12.2
  0
LINE
  8
0
 10
160.72
 20
12.2
 11
158
 21
12.2
  0
LINE
  8
0
 10
158
 20
12.2
 11
158
 21
0
  0
LINE
  8
0
 10
158
 20
0
 11
202
 21
0
  0
LINE
  8
0
 10
202
 20
0
 11
202
 21
12.2
  0
LINE
  8
0
 10
44
 20
12.2
 11
41.5
 21
12.2
  0
LINE
  8
0
 10
41.5
 20
12.2
 11
41.5
 21
24.4
  0
LINE
  8
0
 10
41.5
 20
24.4
 11
44
 21
24.4
  0
LINE
  8
0
 10
44
 20
24.4
 11
44
 21
29.679
  0
LINE
  8
0
 10
44
 20
29.679
 11
43.9676
 21
29.6154
  0
LINE
  8
0
 10
43.9676
 20
29.6154
 11
43.6346
 21
29.2824
  0
LINE
  8
0
 10
43.6346
 20
29.2824
 11
43.2151
 21
29.0686
  0
LINE
  8
0
 10
43.2151
 20
29.0686
 11
42.75
 21
28.995
  0
LINE
  8
0
 10
42.75
 20
28.995
 11
42.2849
 21
29.0686
  0
LINE
  8
0
 10
42.2849
 20
29.0686
 11
41.8654
 21
29.2824
  0
LINE
  8
0
 10
41.8654
 20
29.2824
 11
41.5324
 21
29.6154
  0
LINE
  8
0
 10
41.5324
 20
29.6154
 11
41.3186
 21
30.0349
  0
LINE
  8
0
 10
41.3186
 20
30.0349
 11
41.245
 21
30.5
  0
LINE
  8
0
 10
41.245
 20
30.5
 11
41.3186
 21
30.9651
  0
LINE
  8
0
 10
41.3186
 20
30.9651
 11
41.5324
 21
31.3846
  0
LINE
  8
0
 10
41.5324
 20
31.3846
 11
41.8654
 21
31.7176
  0
LINE
  8
0
 10
41.8654
 20
31.7176
 11
42.2849
 21
31.9313
  0
LINE
  8
0
 10
42.2849
 20
31.9313
 11
42.75
 21
32.005
  0
LINE
  8
0
 10
42.75
 20
32.005
 11
43.2151
 21
31.9313
  0
LINE
  8
0
 10
43.2151
 20
31.9313
 11
43.6346
 21
31.7176
  0
LINE
  8
0
 10
43.6346
 20
31.7176
 11
43.9676
 21
31.3846
  0
LINE
  8
0
 10
43.9676
 20
31.3846
 11
44
 21
31.321
  0
LINE
  8
0
 10
44
 20
31.321
 11
44
 21
36.6
  0
LINE
  8
0
 10
44
 20
36.6
 11
41.5
 21
36.6
  0
LINE
  8
0
 10
41.5
 20
36.6
 11
41.5
 21
48.8
  0
LINE
  8
0
 10
41.5
 20
48.8
 11
44
 21
48.8
  0
LINE
  8
0
 10
44
 20
48.8
 11
44
 21
61
  0
LINE
  8
0
 10
44
 20
61
 11
35.2
 21
61
  0
LINE
  8
0
 10
35.2
 20
61
 11
35.2
 21
58.28
  0
LINE
  8
0
 10
35.2
 20
58.28
 11
26.4
 21
58.28
  0
LINE
  8
0
 10
26.4
 20
58.28
 11
26.4
 21
61
  0
LINE
  8
0
 10
26.4
 20
61
 11
22.821
 21
61
  0
LINE
  8
0
 10
22.821
 20
61
 11
22.8846
 21
60.9676
  0
LINE
  8
0
 10
22.8846
 20
60.9676
 11
23.2176
 21
60.6346
  0
LINE
  8
0
 10
23.2176
 20
60.6346
 11
23.4313
 21
60.2151
  0
LINE
  8
0
 10
23.4313
 20
60.2151
 11
23.505
 21
59.75
  0
LINE
  8
0
 10
23.505
 20
59.75
 11
23.4313
 21
59.2849
  0
LINE
  8
0
 10
23.4313
 20
59.2849
 11
23.2176
 21
58.8654
  0
LINE
  8
0
 10
23.2176
 20
58.8654
 11
22.8846
 21
58.5324
  0
LINE
  8
0
 10
22.8846
 20
58.5324
 11
22.4651
 21
58.3186
  0
LINE
  8
0
 10
22.4651
 20
58.3186
 11
22
 21
58.245
  0
LINE
  8
0
 10
22
 20
58.245
 11
21.5349
 21
58.3186
  0
LINE
  8
0
 10
21.5349
 20
58.3186
 11
21.1154
 21
58.5324
  0
LINE
  8
0
 10
21.1154
 20
58.5324
 11
20.7824
 21
58.8654
  0
LINE
  8
0
 10
20.7824
 20
58.8654
 11
20.5686
 21
59.2849
  0
LINE
  8
0
 10
20.5686
 20
59.2849
 11
20.495
 21
59.75
  0
LINE
  8
0
 10
20.495
 20
59.75
 11
20.5686
 21
60.2151
  0
LINE
  8
0
 10
20.5686
 20
60.2151
 11
20.7824
 21
60.6346
  0
LINE
  8
0
 10
20.7824
 20
60.6346
 11
21.1154
 21
60.9676
  0
LINE
  8
0
 10
21.1154
 20
60.9676
 11
21.179
 21
61
  0
LINE
  8
0
 10
21.179
 20
61
 11
17.6
 21
61
  0
LINE
  8
0
 10
17.6
 20
61
 11
17.6
 21
58.28
  0
LINE
  8
0
 10
17.6
 20
58.28
 11
8.79999
 21
58.28
  0
LINE
  8
0
 10
8.79999
 20
58.28
 11
8.79999
 21
61
  0
LINE
  8
0
 10
8.79999
 20
61
 11
0
 21
61
  0
LINE
  8
0
 10
0
 20
61
 11
0
 21
48.8
  0
LINE
  8
0
 10
0
 20
48.8
 11
2.71999
 21
48.8
  0
LINE
  8
0
 10
2.71999
 20
48.8
 11
2.71999
 21
36.6
  0
LINE
  8
0
 10
2.71999
 20
36.6
 11
0
 21
36.6
  0
LINE
  8
0
 10
0
 20
36.6
 11
0
 21
31.321
  0
LINE
  8
0
 10
0
 20
31.321
 11
0.0324249
 21
31.3846
  0
LINE
  8
0
 10
0.0324249
 20
31.3846
 11
0.365372
 21
31.7176
  0
LINE
  8
0
 10
0.365372
 20
31.7176
 11
0.784927
 21
31.9313
  0
LINE
  8
0
 10
0.784927
 20
31.9313
 11
1.25
 21
32.005
  0
LINE
  8
0
 10
1.25
 20
32.005
 11
1.71506
 21
31.9313
  0
LINE
  8
0
 10
1.71506
 20
31.9313
 11
2.13461
 21
31.7176
  0
LINE
  8
0
 10
2.13461
 20
31.7176
 11
2.46756
 21
31.3846
  0
LINE
  8
0
 10
2.46756
 20
31.3846
 11
2.68134
 21
30.9651
  0
LINE
  8
0
 10
2.68134
 20
30.9651
 11
2.75499
 21
30.5
  0
LINE
  8
0
 10
2.75499
 20
30.5
 11
2.68134
 21
30.0349
  0
LINE
  8
0
 10
2.68134
 20
30.0349
 11
2.46756
 21
29.6154
  0
LINE
  8
0
 10
2.46756
 20
29.6154
 11
2.13461
 21
29.2824
  0
LINE
  8
0
 10
2.13461
 20
29.2824
 11
1.71506
 21
29.0686
  0
LINE
  8
0
 10
1.71506
 20
29.0686
 11
1.24998
 21
28.995
  0
LINE
  8
0
 10
1.24998
 20
28.995
 11
0.784927
 21
29.0686
  0
LINE
  8
0
 10
0.784927
 20
29.0686
 11
0.365372
 21
29.2824
  0
LINE
  8
0
 10
0.365372
 20
29.2824
 11
0.0324249
 21
29.6154
  0
LINE
  8
0
 10
0.0324249
 20
29.6154
 11
0
 21
29.679
  0
LINE
  8
0
 10
0
 20
29.679
 11
0
 21
24.4
  0
LINE
  8
0
 10
0
 20
24.4
 11
2.71999
 21
24.4
  0
LINE
  8
0
 10
2.71999
 20
24.4
 11
2.71999
 21
12.2
  0
LINE
  8
0
 10
2.71999
 20
12.2
 11
0
 21
12.2
  0
LINE
  8
0
 10
0
 20
12.2
 11
0
 21
0
  0
LINE
  8
0
 10
0
 20
0
 11
44
 21
0
  0
LINE
  8
0
 10
44
 20
0
 11
44
 21
12.2
  0
LINE
  8
0
 10
29.8543
 20
33.4439
 11
29.6327
 21
33.5568
  0
LINE
  8
0
 10
29.6327
 20
33.5568
 11
29.4568
 21
33.7327
  0
LINE
  8
0
 10
29.4568
 20
33.7327
 11
29.3439
 21
33.9543
  0
LINE
  8
0
 10
29.3439
 20
33.9543
 11
29.305
 21
34.2
  0
LINE
  8
0
 10
29.305
 20
34.2
 11
29.3439
 21
34.4457
  0
LINE
  8
0
 10
29.3439
 20
34.4457
 11
29.4568
 21
34.6673
  0
LINE
  8
0
 10
29.4568
 20
34.6673
 11
29.6327
 21
34.8432
  0
LINE
  8
0
 10
29.6327
 20
34.8432
 11
29.8543
 21
34.9561
  0
LINE
  8
0
 10
29.8543
 20
34.9561
 11
30.1
 21
34.995
  0
LINE
  8
0
 10
30.1
 20
34.995
 11
30.3457
 21
34.9561
  0
LINE
  8
0
 10
30.3457
 20
34.9561
 11
30.5673
 21
34.8432
  0
LINE
  8
0
 10
30.5673
 20
34.8432
 11
30.7432
 21
34.6673
  0
LINE
  8
0
 10
30.7432
 20
34.6673
 11
30.8561
 21
34.4457
  0
LINE
  8
0
 10
30.8561
 20
34.4457
 11
30.895
 21
34.2
  0
LINE
  8
0
 10
30.895
 20
34.2
 11
30.8561
 21
33.9543
  0
LINE
  8
0
 10
30.8561
 20
33.9543
 11
30.7432
 21
33.7327
  0
LINE
  8
0
 10
30.7432
 20
33.7327
 11
30.5673
 21
33.5568
  0
LINE
  8
0
 10
30.5673
 20
33.5568
 11
30.3457
 21
33.4439
  0
LINE
  8
0
 10
30.3457
 20
33.4439
 11
30.1
 21
33.405
  0
LINE
  8
0
 10
30.1
 20
33.405
 11
29.8543
 21
33.4439
  0
LINE
  8
0
 10
12.6043
 20
32.2939
 11
12.3827
 21
32.4068
  0
LINE
  8
0
 10
12.3827
 20
32.4068
 11
12.2068
 21
32.5827
  0
LINE
  8
0
 10
12.2068
 20
32.5827
 11
12.0939
 21
32.8043
  0
LINE
  8
0
 10
12.0939
 20
32.8043
 11
12.055
 21
33.05
  0
LINE
  8
0
 10
12.055
 20
33.05
 11
12.0939
 21
33.2957
  0
LINE
  8
0
 10
12.0939
 20
33.2957
 11
12.2068
 21
33.5173
  0
LINE
  8
0
 10
12.2068
 20
33.5173
 11
12.3827
 21
33.6932
  0
LINE
  8
0
 10
12.3827
 20
33.6932
 11
12.6043
 21
33.8061
  0
LINE
  8
0
 10
12.6043
 20
33.8061
 11
12.85
 21
33.845
  0
LINE
  8
0
 10
12.85
 20
33.845
 11
13.0957
 21
33.8061
  0
LINE
  8
0
 10
13.0957
 20
33.8061
 11
13.3173
 21
33.6932
  0
LINE
  8
0
 10
13.3173
 20
33.6932
 11
13.4932
 21
33.5173
  0
LINE
  8
0
 10
13.4932
 20
33.5173
 11
13.6061
 21
33.2957
  0
LINE
  8
0
 10
13.6061
 20
33.2957
 11
13.645
 21
33.05
  0
LINE
  8
0
 10
13.645
 20
33.05
 11
13.6061
 21
32.8043
  0
LINE
  8
0
 10
13.6061
 20
32.8043
 11
13.4932
 21
32.5827
  0
LINE
  8
0
 10
13.4932
 20
32.5827
 11
13.3173
 21
32.4068
  0
LINE
  8
0
 10
13.3173
 20
32.4068
 11
13.0957
 21
32.2939
  0
LINE
  8
0
 10
13.0957
 20
32.2939
 11
12.85
 21
32.255
  0
LINE
  8
0
 10
12.85
 20
32.255
 11
12.6043
 21
32.2939
  0
LINE
  8
0
 10
10.6043
 20
30.9939
 11
10.3827
 21
31.1068
  0
LINE
  8
0
 10
10.3827
 20
31.1068
 11
10.2068
 21
31.2827
  0
LINE
  8
0
 10
10.2068
 20
31.2827
 11
10.0939
 21
31.5043
  0
LINE
  8
0
 10
10.0939
 20
31.5043
 11
10.055
 21
31.75
  0
LINE
  8
0
 10
10.055
 20
31.75
 11
10.0939
 21
31.9957
  0
LINE
  8
0
 10
10.0939
 20
31.9957
 11
10.2068
 21
32.2173
  0
LINE
  8
0
 10
10.2068
 20
32.2173
 11
10.3827
 21
32.3932
  0
LINE
  8
0
 10
10.3827
 20
32.3932
 11
10.6043
 21
32.5061
  0
LINE
  8
0
 10
10.6043
 20
32.5061
 11
10.85
 21
32.545
  0
LINE
  8
0
 10
10.85
 20
32.545
 11
11.0957
 21
32.5061
  0
LINE
  8
0
 10
11.0957
 20
32.5061
 11
11.3173
 21
32.3932
  0
LINE
  8
0
 10
11.3173
 20
32.3932
 11
11.4932
 21
32.2173
  0
LINE
  8
0
 10
11.4932
 20
32.2173
 11
11.6061
 21
31.9957
  0
LINE
  8
0
 10
11.6061
 20
31.9957
 11
11.645
 21
31.75
  0
LINE
  8
0
 10
11.645
 20
31.75
 11
11.6061
 21
31.5043
  0
LINE
  8
0
 10
11.6061
 20
31.5043
 11
11.4932
 21
31.2827
  0
LINE
  8
0
 10
11.4932
 20
31.2827
 11
11.3173
 21
31.1068
  0
LINE
  8
0
 10
11.3173
 20
31.1068
 11
11.0957
 21
30.9939
  0
LINE
  8
0
 10
11.0957
 20
30.9939
 11
10.85
 21
30.955
  0
LINE
  8
0
 10
10.85
 20
30.955
 11
10.6043
 21
30.9939
  0
LINE
  8
0
 10
12.6043
 20
29.7939
 11
12.3827
 21
29.9068
  0
LINE
  8
0
 10
12.3827
 20
29.9068
 11
12.2068
 21
30.0827
  0
LINE
  8
0
 10
12.2068
 20
30.0827
 11
12.0939
 21
30.3043
  0
LINE
  8
0
 10
12.0939
 20
30.3043
 11
12.055
 21
30.55
  0
LINE
  8
0
 10
12.055
 20
30.55
 11
12.0939
 21
30.7957
  0
LINE
  8
0
 10
12.0939
 20
30.7957
 11
12.2068
 21
31.0173
  0
LINE
  8
0
 10
12.2068
 20
31.0173
 11
12.3827
 21
31.1932
  0
LINE
  8
0
 10
12.3827
 20
31.1932
 11
12.6043
 21
31.3061
  0
LINE
  8
0
 10
12.6043
 20
31.3061
 11
12.85
 21
31.345
  0
LINE
  8
0
 10
12.85
 20
31.345
 11
13.0957
 21
31.3061
  0
LINE
  8
0
 10
13.0957
 20
31.3061
 11
13.3173
 21
31.1932
  0
LINE
  8
0
 10
13.3173
 20
31.1932
 11
13.4932
 21
31.0173
  0
LINE
  8
0
 10
13.4932
 20
31.0173
 11
13.6061
 21
30.7957
  0
LINE
  8
0
 10
13.6061
 20
30.7957
 11
13.645
 21
30.55
  0
LINE
  8
0
 10
13.645
 20
30.55
 11
13.6061
 21
30.3043
  0
LINE
  8
0
 10
13.6061
 20
30.3043
 11
13.4932
 21
30.0827
  0
LINE
  8
0
 10
13.4932
 20
30.0827
 11
13.3173
 21
29.9068
  0
LINE
  8
0
 10
13.3173
 20
29.9068
 11
13.0957
 21
29.7939
  0
LINE
  8
0
 10
13.0957
 20
29.7939
 11
12.85
 21
29.755
  0
LINE
  8
0
 10
12.85
 20
29.755
 11
12.6043
 21
29.7939
  0
LINE
  8
0
 10
10.6043
 20
28.5439
 11
10.3827
 21
28.6568
  0
LINE
  8
0
 10
10.3827
 20
28.6568
 11
10.2068
 21
28.8327
  0
LINE
  8
0
 10
10.2068
 20
28.8327
 11
10.0939
 21
29.0543
  0
LINE
  8
0
 10
10.0939
 20
29.0543
 11
10.055
 21
29.3
  0
LINE
  8
0
 10
10.055
 20
29.3
 11
10.0939
 21
29.5457
  0
LINE
  8
0
 10
10.0939
 20
29.5457
 11
10.2068
 21
29.7673
  0
LINE
  8
0
 10
10.2068
 20
29.7673
 11
10.3827
 21
29.9432
  0
LINE
  8
0
 10
10.3827
 20
29.9432
 11
10.6043
 21
30.0561
  0
LINE
  8
0
 10
10.6043
 20
30.0561
 11
10.85
 21
30.095
  0
LINE
  8
0
 10
10.85
 20
30.095
 11
11.0957
 21
30.0561
  0
LINE
  8
0
 10
11.0957
 20
30.0561
 11
11.3173
 21
29.9432
  0
LINE
  8
0
 10
11.3173
 20
29.9432
 11
11.4932
 21
29.7673
  0
LINE
  8
0
 10
11.4932
 20
29.7673
 11
11.6061
 21
29.5457
  0
LINE
  8
0
 10
11.6061
 20
29.5457
 11
11.645
 21
29.3
  0
LINE
  8
0
 10
11.645
 20
29.3
 11
11.6061
 21
29.0543
  0
LINE
  8
0
 10
11.6061
 20
29.0543
 11
11.4932
 21
28.8327
  0
LINE
  8
0
 10
11.4932
 20
28.8327
 11
11.3173
 21
28.6568
  0
LINE
  8
0
 10
11.3173
 20
28.6568
 11
11.0957
 21
28.5439
  0
LINE
  8
0
 10
11.0957
 20
28.5439
 11
10.85
 21
28.505
  0
LINE
  8
0
 10
10.85
 20
28.505
 11
10.6043
 21
28.5439
  0
LINE
  8
0
 10
12.6043
 20
27.2939
 11
12.3827
 21
27.4068
  0
LINE
  8
0
 10
12.3827
 20
27.4068
 11
12.2068
 21
27.5827
  0
LINE
  8
0
 10
12.2068
 20
27.5827
 11
12.0939
 21
27.8043
  0
LINE
  8
0
 10
12.0939
 20
27.8043
 11
12.055
 21
28.05
  0
LINE
  8
0
 10
12.055
 20
28.05
 11
12.0939
 21
28.2957
  0
LINE
  8
0
 10
12.0939
 20
28.2957
 11
12.2068
 21
28.5173
  0
LINE
  8
0
 10
12.2068
 20
28.5173
 11
12.3827
 21
28.6932
  0
LINE
  8
0
 10
12.3827
 20
28.6932
 11
12.6043
 21
28.8061
  0
LINE
  8
0
 10
12.6043
 20
28.8061
 11
12.85
 21
28.845
  0
LINE
  8
0
 10
12.85
 20
28.845
 11
13.0957
 21
28.8061
  0
LINE
  8
0
 10
13.0957
 20
28.8061
 11
13.3173
 21
28.6932
  0
LINE
  8
0
 10
13.3173
 20
28.6932
 11
13.4932
 21
28.5173
  0
LINE
  8
0
 10
13.4932
 20
28.5173
 11
13.6061
 21
28.2957
  0
LINE
  8
0
 10
13.6061
 20
28.2957
 11
13.645
 21
28.05
  0
LINE
  8
0
 10
13.645
 20
28.05
 11
13.6061
 21
27.8043
  0
LINE
  8
0
 10
13.6061
 20
27.8043
 11
13.4932
 21
27.5827
  0
LINE
  8
0
 10
13.4932
 20
27.5827
 11
13.3173
 21
27.4068
  0
LINE
  8
0
 10
13.3173
 20
27.4068
 11
13.0957
 21
27.2939
  0
LINE
  8
0
 10
13.0957
 20
27.2939
 11
12.85
 21
27.255
  0
LINE
  8
0
 10
12.85
 20
27.255
 11
12.6043
 21
27.2939
  0
LINE
  8
0
 10
10.6043
 20
26.0439
 11
10.3827
 21
26.1568
  0
LINE
  8
0
 10
10.3827
 20
26.1568
 11
10.2068
 21
26.3327
  0
LINE
  8
0
 10
10.2068
 20
26.3327
 11
10.0939
 21
26.5543
  0
LINE
  8
0
 10
10.0939
 20
26.5543
 11
10.055
 21
26.8
  0
LINE
  8
0
 10
10.055
 20
26.8
 11
10.0939
 21
27.0457
  0
LINE
  8
0
 10
10.0939
 20
27.0457
 11
10.2068
 21
27.2673
  0
LINE
  8
0
 10
10.2068
 20
27.2673
 11
10.3827
 21
27.4432
  0
LINE
  8
0
 10
10.3827
 20
27.4432
 11
10.6043
 21
27.5561
  0
LINE
  8
0
 10
10.6043
 20
27.5561
 11
10.85
 21
27.595
  0
LINE
  8
0
 10
10.85
 20
27.595
 11
11.0957
 21
27.5561
  0
LINE
  8
0
 10
11.0957
 20
27.5561
 11
11.3173
 21
27.4432
  0
LINE
  8
0
 10
11.3173
 20
27.4432
 11
11.4932
 21
27.2673
  0
LINE
  8
0
 10
11.4932
 20
27.2673
 11
11.6061
 21
27.0457
  0
LINE
  8
0
 10
11.6061
 20
27.0457
 11
11.645
 21
26.8
  0
LINE
  8
0
 10
11.645
 20
26.8
 11
11.6061
 21
26.5543
  0
LINE
  8
0
 10
11.6061
 20
26.5543
 11
11.4932
 21
26.3327
  0
LINE
  8
0
 10
11.4932
 20
26.3327
 11
11.3173
 21
26.1568
  0
LINE
  8
0
 10
11.3173
 20
26.1568
 11
11.0957
 21
26.0439
  0
LINE
  8
0
 10
11.0957
 20
26.0439
 11
10.85
 21
26.005
  0
LINE
  8
0
 10
10.85
 20
26.005
 11
10.6043
 21
26.0439
  0
LINE
  8
0
 10
12.6043
 20
24.7939
 11
12.3827
 21
24.9068
  0
LINE
  8
0
 10
12.3827
 20
24.9068
 11
12.2068
 21
25.0827
  0
LINE
  8
0
 10
12.2068
 20
25.0827
 11
12.0939
 21
25.3043
  0
LINE
  8
0
 10
12.0939
 20
25.3043
 11
12.055
 21
25.55
  0
LINE
  8
0
 10
12.055
 20
25.55
 11
12.0939
 21
25.7957
  0
LINE
  8
0
 10
12.0939
 20
25.7957
 11
12.2068
 21
26.0173
  0
LINE
  8
0
 10
12.2068
 20
26.0173
 11
12.3827
 21
26.1932
  0
LINE
  8
0
 10
12.3827
 20
26.1932
 11
12.6043
 21
26.3061
  0
LINE
  8
0
 10
12.6043
 20
26.3061
 11
12.85
 21
26.345
  0
LINE
  8
0
 10
12.85
 20
26.345
 11
13.0957
 21
26.3061
  0
LINE
  8
0
 10
13.0957
 20
26.3061
 11
13.3173
 21
26.1932
  0
LINE
  8
0
 10
13.3173
 20
26.1932
 11
13.4932
 21
26.0173
  0
LINE
  8
0
 10
13.4932
 20
26.0173
 11
13.6061
 21
25.7957
  0
LINE
  8
0
 10
13.6061
 20
25.7957
 11
13.645
 21
25.55
  0
LINE
  8
0
 10
13.645
 20
25.55
 11
13.6061
 21
25.3043
  0
LINE
  8
0
 10
13.6061
 20
25.3043
 11
13.4932
 21
25.0827
  0
LINE
  8
0
 10
13.4932
 20
25.0827
 11
13.3173
 21
24.9068
  0
LINE
  8
0
 10
13.3173
 20
24.9068
 11
13.0957
 21
24.7939
  0
LINE
  8
0
 10
13.0957
 20
24.7939
 11
12.85
 21
24.755
  0
LINE
  8
0
 10
12.85
 20
24.755
 11
12.6043
 21
24.7939
  0
LINE
  8
0
 10
31.1543
 20
21.2939
 11
30.9327
 21
21.4068
  0
LINE
  8
0
 10
30.9327
 20
21.4068
 11
30.7568
 21
21.5827
  0
LINE
  8
0
 10
30.7568
 20
21.5827
 11
30.6439
 21
21.8043
  0
LINE
  8
0
 10
30.6439
 20
21.8043
 11
30.605
 21
22.05
  0
LINE
  8
0
 10
30.605
 20
22.05
 11
30.6439
 21
22.2957
  0
LINE
  8
0
 10
30.6439
 20
22.2957
 11
30.7568
 21
22.5173
  0
LINE
  8
0
 10
30.7568
 20
22.5173
 11
30.9327
 21
22.6932
  0
LINE
  8
0
 10
30.9327
 20
22.6932
 11
31.1543
 21
22.8061
  0
LINE
  8
0
 10
31.1543
 20
22.8061
 11
31.4
 21
22.845
  0
LINE
  8
0
 10
31.4
 20
22.845
 11
31.6457
 21
22.8061
  0
LINE
  8
0
 10
31.6457
 20
22.8061
 11
31.8673
 21
22.6932
  0
LINE
  8
0
 10
31.8673
 20
22.6932
 11
32.0432
 21
22.5173
  0
LINE
  8
0
 10
32.0432
 20
22.5173
 11
32.1561
 21
22.2957
  0
LINE
  8
0
 10
32.1561
 20
22.2957
 11
32.195
 21
22.05
  0
LINE
  8
0
 10
32.195
 20
22.05
 11
32.1561
 21
21.8043
  0
LINE
  8
0
 10
32.1561
 20
21.8043
 11
32.0432
 21
21.5827
  0
LINE
  8
0
 10
32.0432
 20
21.5827
 11
31.8673
 21
21.4068
  0
LINE
  8
0
 10
31.8673
 20
21.4068
 11
31.6457
 21
21.2939
  0
LINE
  8
0
 10
31.6457
 20
21.2939
 11
31.4
 21
21.255
  0
LINE
  8
0
 10
31.4
 20
21.255
 11
31.1543
 21
21.2939
  0
LINE
  8
0
 10
112
 20
12.2
 11
109.5
 21
12.2
  0
LINE
  8
0
 10
109.5
 20
12.2
 11
109.5
 21
24.4
  0
LINE
  8
0
 10
109.5
 20
24.4
 11
112
 21
24.4
  0
LINE
  8
0
 10
112
 20
24.4
 11
112
 21
29.679
  0
LINE
  8
0
 10
112
 20
29.679
 11
111.968
 21
29.6154
  0
LINE
  8
0
 10
111.968
 20
29.6154
 11
111.635
 21
29.2824
  0
LINE
  8
0
 10
111.635
 20
29.2824
 11
111.215
 21
29.0686
  0
LINE
  8
0
 10
111.215
 20
29.0686
 11
110.75
 21
28.995
  0
LINE
  8
0
 10
110.75
 20
28.995
 11
110.285
 21
29.0686
  0
LINE
  8
0
 10
110.285
 20
29.0686
 11
109.865
 21
29.2824
  0
LINE
  8
0
 10
109.865
 20
29.2824
 11
109.532
 21
29.6154
  0
LINE
  8
0
 10
109.532
 20
29.6154
 11
109.319
 21
30.0349
  0
LINE
  8
0
 10
109.319
 20
30.0349
 11
109.245
 21
30.5
  0
LINE
  8
0
 10
109.245
 20
30.5
 11
109.319
 21
30.9651
  0
LINE
  8
0
 10
109.319
 20
30.9651
 11
109.532
 21
31.3846
  0
LINE
  8
0
 10
109.532
 20
31.3846
 11
109.865
 21
31.7176
  0
LINE
  8
0
 10
109.865
 20
31.7176
 11
110.285
 21
31.9313
  0
LINE
  8
0
 10
110.285
 20
31.9313
 11
110.75
 21
32.005
  0
LINE
  8
0
 10
110.75
 20
32.005
 11
111.215
 21
31.9313
  0
LINE
  8
0
 10
111.215
 20
31.9313
 11
111.635
 21
31.7176
  0
LINE
  8
0
 10
111.635
 20
31.7176
 11
111.968
 21
31.3846
  0
LINE
  8
0
 10
111.968
 20
31.3846
 11
112
 21
31.321
  0
LINE
  8
0
 10
112
 20
31.321
 11
112
 21
36.6
  0
LINE
  8
0
 10
112
 20
36.6
 11
109.5
 21
36.6
  0
LINE
  8
0
 10
109.5
 20
36.6
 11
109.5
 21
48.8
  0
LINE
  8
0
 10
109.5
 20
48.8
 11
112
 21
48.8
  0
LINE
  8
0
 10
112
 20
48.8
 11
112
 21
61
  0
LINE
  8
0
 10
112
 20
61
 11
103.2
 21
61
  0
LINE
  8
0
 10
103.2
 20
61
 11
103.2
 21
58.28
  0
LINE
  8
0
 10
103.2
 20
58.28
 11
94.4
 21
58.28
  0
LINE
  8
0
 10
94.4
 20
58.28
 11
94.4
 21
61
  0
LINE
  8
0
 10
94.4
 20
61
 11
90.821
 21
61
  0
LINE
  8
0
 10
90.821
 20
61
 11
90.8846
 21
60.9676
  0
LINE
  8
0
 10
90.8846
 20
60.9676
 11
91.2176
 21
60.6346
  0
LINE
  8
0
 10
91.2176
 20
60.6346
 11
91.4313
 21
60.2151
  0
LINE
  8
0
 10
91.4313
 20
60.2151
 11
91.505
 21
59.75
  0
LINE
  8
0
 10
91.505
 20
59.75
 11
91.4313
 21
59.2849
  0
LINE
  8
0
 10
91.4313
 20
59.2849
 11
91.2176
 21
58.8654
  0
LINE
  8
0
 10
91.2176
 20
58.8654
 11
90.8846
 21
58.5324
  0
LINE
  8
0
 10
90.8846
 20
58.5324
 11
90.4651
 21
58.3186
  0
LINE
  8
0
 10
90.4651
 20
58.3186
 11
90
 21
58.245
  0
LINE
  8
0
 10
90
 20
58.245
 11
89.5349
 21
58.3186
  0
LINE
  8
0
 10
89.5349
 20
58.3186
 11
89.1154
 21
58.5324
  0
LINE
  8
0
 10
89.1154
 20
58.5324
 11
88.7824
 21
58.8654
  0
LINE
  8
0
 10
88.7824
 20
58.8654
 11
88.5686
 21
59.2849
  0
LINE
  8
0
 10
88.5686
 20
59.2849
 11
88.495
 21
59.75
  0
LINE
  8
0
 10
88.495
 20
59.75
 11
88.5686
 21
60.2151
  0
LINE
  8
0
 10
88.5686
 20
60.2151
 11
88.7824
 21
60.6346
  0
LINE
  8
0
 10
88.7824
 20
60.6346
 11
89.1154
 21
60.9676
  0
LINE
  8
0
 10
89.1154
 20
60.9676
 11
89.179
 21
61
  0
LINE
  8
0
 10
89.179
 20
61
 11
85.6
 21
61
  0
LINE
  8
0
 10
85.6
 20
61
 11
85.6
 21
58.28
  0
LINE
  8
0
 10
85.6
 20
58.28
 11
76.8
 21
58.28
  0
LINE
  8
0
 10
76.8
 20
58.28
 11
76.8
 21
61
  0
LINE
  8
0
 10
76.8
 20
61
 11
68
 21
61
  0
LINE
  8
0
 10
68
 20
61
 11
68
 21
48.8
  0
LINE
  8
0
 10
68
 20
48.8
 11
70.72
 21
48.8
  0
LINE
  8
0
 10
70.72
 20
48.8
 11
70.72
 21
36.6
  0
LINE
  8
0
 10
70.72
 20
36.6
 11
68
 21
36.6
  0
LINE
  8
0
 10
68
 20
36.6
 11
68
 21
31.321
  0
LINE
  8
0
 10
68
 20
31.321
 11
68.0324
 21
31.3846
  0
LINE
  8
0
 10
68.0324
 20
31.3846
 11
68.3654
 21
31.7176
  0
LINE
  8
0
 10
68.3654
 20
31.7176
 11
68.7849
 21
31.9313
  0
LINE
  8
0
 10
68.7849
 20
31.9313
 11
69.25
 21
32.005
  0
LINE
  8
0
 10
69.25
 20
32.005
 11
69.7151
 21
31.9313
  0
LINE
  8
0
 10
69.7151
 20
31.9313
 11
70.1346
 21
31.7176
  0
LINE
  8
0
 10
70.1346
 20
31.7176
 11
70.4676
 21
31.3846
  0
LINE
  8
0
 10
70.4676
 20
31.3846
 11
70.6813
 21
30.9651
  0
LINE
  8
0
 10
70.6813
 20
30.9651
 11
70.755
 21
30.5
  0
LINE
  8
0
 10
70.755
 20
30.5
 11
70.6813
 21
30.0349
  0
LINE
  8
0
 10
70.6813
 20
30.0349
 11
70.4676
 21
29.6154
  0
LINE
  8
0
 10
70.4676
 20
29.6154
 11
70.1346
 21
29.2824
  0
LINE
  8
0
 10
70.1346
 20
29.2824
 11
69.7151
 21
29.0686
  0
LINE
  8
0
 10
69.7151
 20
29.0686
 11
69.25
 21
28.995
  0
LINE
  8
0
 10
69.25
 20
28.995
 11
68.7849
 21
29.0686
  0
LINE
  8
0
 10
68.7849
 20
29.0686
 11
68.3654
 21
29.2824
  0
LINE
  8
0
 10
68.3654
 20
29.2824
 11
68.0324
 21
29.6154
  0
LINE
  8
0
 10
68.0324
 20
29.6154
 11
68
 21
29.679
  0
LINE
  8
0
 10
68
 20
29.679
 11
68
 21
24.4
  0
LINE
  8
0
 10
68
 20
24.4
 11
70.72
 21
24.4
  0
LINE
  8
0
 10
70.72
 20
24.4
 11
70.72
 21
12.2
  0
LINE
  8
0
 10
70.72
 20
12.2
 11
68
 21
12.2
  0
LINE
  8
0
 10
68
 20
12.2
 11
68
 21
0
  0
LINE
  8
0
 10
68
 20
0
 11
112
 21
0
  0
LINE
  8
0
 10
112
 20
0
 11
112
 21
12.2
  0
LINE
  8
0
 10
97.8543
 20
33.4439
 11
97.6327
 21
33.5568
  0
LINE
  8
0
 10
97.6327
 20
33.5568
 11
97.4568
 21
33.7327
  0
LINE
  8
0
 10
97.4568
 20
33.7327
 11
97.3439
 21
33.9543
  0
LINE
  8
0
 10
97.3439
 20
33.9543
 11
97.305
 21
34.2
  0
LINE
  8
0
 10
97.305
 20
34.2
 11
97.3439
 21
34.4457
  0
LINE
  8
0
 10
97.3439
 20
34.4457
 11
97.4568
 21
34.6673
  0
LINE
  8
0
 10
97.4568
 20
34.6673
 11
97.6327
 21
34.8432
  0
LINE
  8
0
 10
97.6327
 20
34.8432
 11
97.8543
 21
34.9561
  0
LINE
  8
0
 10
97.8543
 20
34.9561
 11
98.1
 21
34.995
  0
LINE
  8
0
 10
98.1
 20
34.995
 11
98.3457
 21
34.9561
  0
LINE
  8
0
 10
98.3457
 20
34.9561
 11
98.5673
 21
34.8432
  0
LINE
  8
0
 10
98.5673
 20
34.8432
 11
98.7432
 21
34.6673
  0
LINE
  8
0
 10
98.7432
 20
34.6673
 11
98.8561
 21
34.4457
  0
LINE
  8
0
 10
98.8561
 20
34.4457
 11
98.895
 21
34.2
  0
LINE
  8
0
 10
98.895
 20
34.2
 11
98.8561
 21
33.9543
  0
LINE
  8
0
 10
98.8561
 20
33.9543
 11
98.7432
 21
33.7327
  0
LINE
  8
0
 10
98.7432
 20
33.7327
 11
98.5673
 21
33.5568
  0
LINE
  8
0
 10
98.5673
 20
33.5568
 11
98.3457
 21
33.4439
  0
LINE
  8
0
 10
98.3457
 20
33.4439
 11
98.1
 21
33.405
  0
LINE
  8
0
 10
98.1
 20
33.405
 11
97.8543
 21
33.4439
  0
LINE
  8
0
 10
80.6043
 20
32.2939
 11
80.3827
 21
32.4068
  0
LINE
  8
0
 10
80.3827
 20
32.4068
 11
80.2068
 21
32.5827
  0
LINE
  8
0
 10
80.2068
 20
32.5827
 11
80.0939
 21
32.8043
  0
LINE
  8
0
 10
80.0939
 20
32.8043
 11
80.055
 21
33.05
  0
LINE
  8
0
 10
80.055
 20
33.05
 11
80.0939
 21
33.2957
  0
LINE
  8
0
 10
80.0939
 20
33.2957
 11
80.2068
 21
33.5173
  0
LINE
  8
0
 10
80.2068
 20
33.5173
 11
80.3827
 21
33.6932
  0
LINE
  8
0
 10
80.3827
 20
33.6932
 11
80.6043
 21
33.8061
  0
LINE
  8
0
 10
80.6043
 20
33.8061
 11
80.85
 21
33.845
  0
LINE
  8
0
 10
80.85
 20
33.845
 11
81.0957
 21
33.8061
  0
LINE
  8
0
 10
81.0957
 20
33.8061
 11
81.3173
 21
33.6932
  0
LINE
  8
0
 10
81.3173
 20
33.6932
 11
81.4932
 21
33.5173
  0
LINE
  8
0
 10
81.4932
 20
33.5173
 11
81.6061
 21
33.2957
  0
LINE
  8
0
 10
81.6061
 20
33.2957
 11
81.645
 21
33.05
  0
LINE
  8
0
 10
81.645
 20
33.05
 11
81.6061
 21
32.8043
  0
LINE
  8
0
 10
81.6061
 20
32.8043
 11
81.4932
 21
32.5827
  0
LINE
  8
0
 10
81.4932
 20
32.5827
 11
81.3173
 21
32.4068
  0
LINE
  8
0
 10
81.3173
 20
32.4068
 11
81.0957
 21
32.2939
  0
LINE
  8
0
 10
81.0957
 20
32.2939
 11
80.85
 21
32.255
  0
LINE
  8
0
 10
80.85
 20
32.255
 11
80.6043
 21
32.2939
  0
LINE
  8
0
 10
78.6043
 20
30.9939
 11
78.3827
 21
31.1068
  0
LINE
  8
0
 10
78.3827
 20
31.1068
 11
78.2068
 21
31.2827
  0
LINE
  8
0
 10
78.2068
 20
31.2827
 11
78.0939
 21
31.5043
  0
LINE
  8
0
 10
78.0939
 20
31.5043
 11
78.055
 21
31.75
  0
LINE
  8
0
 10
78.055
 20
31.75
 11
78.0939
 21
31.9957
  0
LINE
  8
0
 10
78.0939
 20
31.9957
 11
78.2068
 21
32.2173
  0
LINE
  8
0
 10
78.2068
 20
32.2173
 11
78.3827
 21
32.3932
  0
LINE
  8
0
 10
78.3827
 20
32.3932
 11
78.6043
 21
32.5061
  0
LINE
  8
0
 10
78.6043
 20
32.5061
 11
78.85
 21
32.545
  0
LINE
  8
0
 10
78.85
 20
32.545
 11
79.0957
 21
32.5061
  0
LINE
  8
0
 10
79.0957
 20
32.5061
 11
79.3173
 21
32.3932
  0
LINE
  8
0
 10
79.3173
 20
32.3932
 11
79.4932
 21
32.2173
  0
LINE
  8
0
 10
79.4932
 20
32.2173
 11
79.6061
 21
31.9957
  0
LINE
  8
0
 10
79.6061
 20
31.9957
 11
79.645
 21
31.75
  0
LINE
  8
0
 10
79.645
 20
31.75
 11
79.6061
 21
31.5043
  0
LINE
  8
0
 10
79.6061
 20
31.5043
 11
79.4932
 21
31.2827
  0
LINE
  8
0
 10
79.4932
 20
31.2827
 11
79.3173
 21
31.1068
  0
LINE
  8
0
 10
79.3173
 20
31.1068
 11
79.0957
 21
30.9939
  0
LINE
  8
0
 10
79.0957
 20
30.9939
 11
78.85
 21
30.955
  0
LINE
  8
0
 10
78.85
 20
30.955
 11
78.6043
 21
30.9939
  0
LINE
  8
0
 10
80.6043
 20
29.7939
 11
80.3827
 21
29.9068
  0
LINE
  8
0
 10
80.3827
 20
29.9068
 11
80.2068
 21
30.0827
  0
LINE
  8
0
 10
80.2068
 20
30.0827
 11
80.0939
 21
30.3043
  0
LINE
  8
0
 10
80.0939
 20
30.3043
 11
80.055
 21
30.55
  0
LINE
  8
0
 10
80.055
 20
30.55
 11
80.0939
 21
30.7957
  0
LINE
  8
0
 10
80.0939
 20
30.7957
 11
80.2068
 21
31.0173
  0
LINE
  8
0
 10
80.2068
 20
31.0173
 11
80.3827
 21
31.1932
  0
LINE
  8
0
 10
80.3827
 20
31.1932
 11
80.6043
 21
31.3061
  0
LINE
  8
0
 10
80.6043
 20
31.3061
 11
80.85
 21
31.345
  0
LINE
  8
0
 10
80.85
 20
31.345
 11
81.0957
 21
31.3061
  0
LINE
  8
0
 10
81.0957
 20
31.3061
 11
81.3173
 21
31.1932
  0
LINE
  8
0
 10
81.3173
 20
31.1932
 11
81.4932
 21
31.0173
  0
LINE
  8
0
 10
81.4932
 20
31.0173
 11
81.6061
 21
30.7957
  0
LINE
  8
0
 10
81.6061
 20
30.7957
 11
81.645
 21
30.55
  0
LINE
  8
0
 10
81.645
 20
30.55
 11
81.6061
 21
30.3043
  0
LINE
  8
0
 10
81.6061
 20
30.3043
 11
81.4932
 21
30.0827
  0
LINE
  8
0
 10
81.4932
 20
30.0827
 11
81.3173
 21
29.9068
  0
LINE
  8
0
 10
81.3173
 20
29.9068
 11
81.0957
 21
29.7939
  0
LINE
  8
0
 10
81.0957
 20
29.7939
 11
80.85
 21
29.755
  0
LINE
  8
0
 10
80.85
 20
29.755
 11
80.6043
 21
29.7939
  0
LINE
  8
0
 10
78.6043
 20
28.5439
 11
78.3827
 21
28.6568
  0
LINE
  8
0
 10
78.3827
 20
28.6568
 11
78.2068
 21
28.8327
  0
LINE
  8
0
 10
78.2068
 20
28.8327
 11
78.0939
 21
29.0543
  0
LINE
  8
0
 10
78.0939
 20
29.0543
 11
78.055
 21
29.3
  0
LINE
  8
0
 10
78.055
 20
29.3
 11
78.0939
 21
29.5457
  0
LINE
  8
0
 10
78.0939
 20
29.5457
 11
78.2068
 21
29.7673
  0
LINE
  8
0
 10
78.2068
 20
29.7673
 11
78.3827
 21
29.9432
  0
LINE
  8
0
 10
78.3827
 20
29.9432
 11
78.6043
 21
30.0561
  0
LINE
  8
0
 10
78.6043
 20
30.0561
 11
78.85
 21
30.095
  0
LINE
  8
0
 10
78.85
 20
30.095
 11
79.0957
 21
30.0561
  0
LINE
  8
0
 10
79.0957
 20
30.0561
 11
79.3173
 21
29.9432
  0
LINE
  8
0
 10
79.3173
 20
29.9432
 11
79.4932
 21
29.7673
  0
LINE
  8
0
 10
79.4932
 20
29.7673
 11
79.6061
 21
29.5457
  0
LINE
  8
0
 10
79.6061
 20
29.5457
 11
79.645
 21
29.3
  0
LINE
  8
0
 10
79.645
 20
29.3
 11
79.6061
 21
29.0543
  0
LINE
  8
0
 10
79.6061
 20
29.0543
 11
79.4932
 21
28.8327
  0
LINE
  8
0
 10
79.4932
 20
28.8327
 11
79.3173
 21
28.6568
  0
LINE
  8
0
 10
79.3173
 20
28.6568
 11
79.0957
 21
28.5439
  0
LINE
  8
0
 10
79.0957
 20
28.5439
 11
78.85
 21
28.505
  0
LINE
  8
0
 10
78.85
 20
28.505
 11
78.6043
 21
28.5439
  0
LINE
  8
0
 10
80.6043
 20
27.2939
 11
80.3827
 21
27.4068
  0
LINE
  8
0
 10
80.3827
 20
27.4068
 11
80.2068
 21
27.5827
  0
LINE
  8
0
 10
80.2068
 20
27.5827
 11
80.0939
 21
27.8043
  0
LINE
  8
0
 10
80.0939
 20
27.8043
 11
80.055
 21
28.05
  0
LINE
  8
0
 10
80.055
 20
28.05
 11
80.0939
 21
28.2957
  0
LINE
  8
0
 10
80.0939
 20
28.2957
 11
80.2068
 21
28.5173
  0
LINE
  8
0
 10
80.2068
 20
28.5173
 11
80.3827
 21
28.6932
  0
LINE
  8
0
 10
80.3827
 20
28.6932
 11
80.6043
 21
28.8061
  0
LINE
  8
0
 10
80.6043
 20
28.8061
 11
80.85
 21
28.845
  0
LINE
  8
0
 10
80.85
 20
28.845
 11
81.0957
 21
28.8061
  0
LINE
  8
0
 10
81.0957
 20
28.8061
 11
81.3173
 21
28.6932
  0
LINE
  8
0
 10
81.3173
 20
28.6932
 11
81.4932
 21
28.5173
  0
LINE
  8
0
 10
81.4932
 20
28.5173
 11
81.6061
 21
28.2957
  0
LINE
  8
0
 10
81.6061
 20
28.2957
 11
81.645
 21
28.05
  0
LINE
  8
0
 10
81.645
 20
28.05
 11
81.6061
 21
27.8043
  0
LINE
  8
0
 10
81.6061
 20
27.8043
 11
81.4932
 21
27.5827
  0
LINE
  8
0
 10
81.4932
 20
27.5827
 11
81.3173
 21
27.4068
  0
LINE
  8
0
 10
81.3173
 20
27.4068
 11
81.0957
 21
27.2939
  0
LINE
  8
0
 10
81.0957
 20
27.2939
 11
80.85
 21
27.255
  0
LINE
  8
0
 10
80.85
 20
27.255
 11
80.6043
 21
27.2939
  0
LINE
  8
0
 10
78.6043
 20
26.0439
 11
78.3827
 21
26.1568
  0
LINE
  8
0
 10
78.3827
 20
26.1568
 11
78.2068
 21
26.3327
  0
LINE
  8
0
 10
78.2068
 20
26.3327
 11
78.0939
 21
26.5543
  0
LINE
  8
0
 10
78.0939
 20
26.5543
 11
78.055
 21
26.8
  0
LINE
  8
0
 10
78.055
 20
26.8
 11
78.0939
 21
27.0457
  0
LINE
  8
0
 10
78.0939
 20
27.0457
 11
78.2068
 21
27.2673
  0
LINE
  8
0
 10
78.2068
 20
27.2673
 11
78.3827
 21
27.4432
  0
LINE
  8
0
 10
78.3827
 20
27.4432
 11
78.6043
 21
27.5561
  0
LINE
  8
0
 10
78.6043
 20
27.5561
 11
78.85
 21
27.595
  0
LINE
  8
0
 10
78.85
 20
27.595
 11
79.0957
 21
27.5561
  0
LINE
  8
0
 10
79.0957
 20
27.5561
 11
79.3173
 21
27.4432
  0
LINE
  8
0
 10
79.3173
 20
27.4432
 11
79.4932
 21
27.2673
  0
LINE
  8
0
 10
79.4932
 20
27.2673
 11
79.6061
 21
27.0457
  0
LINE
  8
0
 10
79.6061
 20
27.0457
 11
79.645
 21
26.8
  0
LINE
  8
0
 10
79.645
 20
26.8
 11
79.6061
 21
26.5543
  0
LINE
  8
0
 10
79.6061
 20
26.5543
 11
79.4932
 21
26.3327
  0
LINE
  8
0
 10
79.4932
 20
26.3327
 11
79.3173
 21
26.1568
  0
LINE
  8
0
 10
79.3173
 20
26.1568
 11
79.0957
 21
26.0439
  0
LINE
  8
0
 10
79.0957
 20
26.0439
 11
78.85
 21
26.005
  0
LINE
  8
0
 10
78.85
 20
26.005
 11
78.6043
 21
26.0439
  0
LINE
  8
0
 10
80.6043
 20
24.7939
 11
80.3827
 21
24.9068
  0
LINE
  8
0
 10
80.3827
 20
24.9068
 11
80.2068
 21
25.0827
  0
LINE
  8
0
 10
80.2068
 20
25.0827
 11
80.0939
 21
25.3043
  0
LINE
  8
0
 10
80.0939
 20
25.3043
 11
80.055
 21
25.55
  0
LINE
  8
0
 10
80.055
 20
25.55
 11
80.0939
 21
25.7957
  0
LINE
  8
0
 10
80.0939
 20
25.7957
 11
80.2068
 21
26.0173
  0
LINE
  8
0
 10
80.2068
 20
26.0173
 11
80.3827
 21
26.1932
  0
LINE
  8
0
 10
80.3827
 20
26.1932
 11
80.6043
 21
26.3061
  0
LINE
  8
0
 10
80.6043
 20
26.3061
 11
80.85
 21
26.345
  0
LINE
  8
0
 10
80.85
 20
26.345
 11
81.0957
 21
26.3061
  0
LINE
  8
0
 10
81.0957
 20
26.3061
 11
81.3173
 21
26.1932
  0
LINE
  8
0
 10
81.3173
 20
26.1932
 11
81.4932
 21
26.0173
  0
LINE
  8
0
 10
81.4932
 20
26.0173
 11
81.6061
 21
25.7957
  0
LINE
  8
0
 10
81.6061
 20
25.7957
 11
81.645
 21
25.55
  0
LINE
  8
0
 10
81.645
 20
25.55
 11
81.6061
 21
25.3043
  0
LINE
  8
0
 10
81.6061
 20
25.3043
 11
81.4932
 21
25.0827
  0
LINE
  8
0
 10
81.4932
 20
25.0827
 11
81.3173
 21
24.9068
  0
LINE
  8
0
 10
81.3173
 20
24.9068
 11
81.0957
 21
24.7939
  0
LINE
  8
0
 10
81.0957
 20
24.7939
 11
80.85
 21
24.755
  0
LINE
  8
0
 10
80.85
 20
24.755
 11
80.6043
 21
24.7939
  0
LINE
  8
0
 10
99.1543
 20
21.2939
 11
98.9327
 21
21.4068
  0
LINE
  8
0
 10
98.9327
 20
21.4068
 11
98.7568
 21
21.5827
  0
LINE
  8
0
 10
98.7568
 20
21.5827
 11
98.6439
 21
21.8043
  0
LINE
  8
0
 10
98.6439
 20
21.8043
 11
98.605
 21
22.05
  0
LINE
  8
0
 10
98.605
 20
22.05
 11
98.6439
 21
22.2957
  0
LINE
  8
0
 10
98.6439
 20
22.2957
 11
98.7568
 21
22.5173
  0
LINE
  8
0
 10
98.7568
 20
22.5173
 11
98.9327
 21
22.6932
  0
LINE
  8
0
 10
98.9327
 20
22.6932
 11
99.1543
 21
22.8061
  0
LINE
  8
0
 10
99.1543
 20
22.8061
 11
99.4
 21
22.845
  0
LINE
  8
0
 10
99.4
 20
22.845
 11
99.6457
 21
22.8061
  0
LINE
  8
0
 10
99.6457
 20
22.8061
 11
99.8673
 21
22.6932
  0
LINE
  8
0
 10
99.8673
 20
22.6932
 11
100.043
 21
22.5173
  0
LINE
  8
0
 10
100.043
 20
22.5173
 11
100.156
 21
22.2957
  0
LINE
  8
0
 10
100.156
 20
22.2957
 11
100.195
 21
22.05
  0
LINE
  8
0
 10
100.195
 20
22.05
 11
100.156
 21
21.8043
  0
LINE
  8
0
 10
100.156
 20
21.8043
 11
100.043
 21
21.5827
  0
LINE
  8
0
 10
100.043
 20
21.5827
 11
99.8673
 21
21.4068
  0
LINE
  8
0
 10
99.8673
 20
21.4068
 11
99.6457
 21
21.2939
  0
LINE
  8
0
 10
99.6457
 20
21.2939
 11
99.4
 21
21.255
  0
LINE
  8
0
 10
99.4
 20
21.255
 11
99.1543
 21
21.2939
  0
LINE
  8
0
 10
65.28
 20
12.31
 11
68
 21
12.31
  0
LINE
  8
0
 10
68
 20
12.31
 11
68
 21
24.29
  0
LINE
  8
0
 10
68
 20
24.29
 11
65.28
 21
24.29
  0
LINE
  8
0
 10
65.28
 20
24.29
 11
65.28
 21
28.995
  0
LINE
  8
0
 10
65.28
 20
28.995
 11
63
 21
28.995
  0
LINE
  8
0
 10
63
 20
28.995
 11
63
 21
27.75
  0
LINE
  8
0
 10
63
 20
27.75
 11
60.7
 21
27.75
  0
LINE
  8
0
 10
60.7
 20
27.75
 11
60.7
 21
28.995
  0
LINE
  8
0
 10
60.7
 20
28.995
 11
57
 21
28.995
  0
LINE
  8
0
 10
57
 20
28.995
 11
57
 21
31.895
  0
LINE
  8
0
 10
57
 20
31.895
 11
60.7
 21
31.895
  0
LINE
  8
0
 10
60.7
 20
31.895
 11
60.7
 21
33.25
  0
LINE
  8
0
 10
60.7
 20
33.25
 11
63
 21
33.25
  0
LINE
  8
0
 10
63
 20
33.25
 11
63
 21
31.895
  0
LINE
  8
0
 10
63
 20
31.895
 11
65.28
 21
31.895
  0
LINE
  8
0
 10
65.28
 20
31.895
 11
65.28
 21
36.71
  0
LINE
  8
0
 10
65.28
 20
36.71
 11
68
 21
36.71
  0
LINE
  8
0
 10
68
 20
36.71
 11
68
 21
48.69
  0
LINE
  8
0
 10
68
 20
48.69
 11
65.28
 21
48.69
  0
LINE
  8
0
 10
65.28
 20
48.69
 11
65.28
 21
61
  0
LINE
  8
0
 10
65.28
 20
61
 11
60
 21
61
  0
LINE
  8
0
 10
60
 20
61
 11
60
 21
58.5
  0
LINE
  8
0
 10
60
 20
58.5
 11
52
 21
58.5
  0
LINE
  8
0
 10
52
 20
58.5
 11
52
 21
61
  0
LINE
  8
0
 10
52
 20
61
 11
46.72
 21
61
  0
LINE
  8
0
 10
46.72
 20
61
 11
46.72
 21
48.69
  0
LINE
  8
0
 10
46.72
 20
48.69
 11
44
 21
48.69
  0
LINE
  8
0
 10
44
 20
48.69
 11
44
 21
36.71
  0
LINE
  8
0
 10
44
 20
36.71
 11
46.72
 21
36.71
  0
LINE
  8
0
 10
46.72
 20
36.71
 11
46.72
 21
32.005
  0
LINE
  8
0
 10
46.72
 20
32.005
 11
49
 21
32.005
  0
LINE
  8
0
 10
49
 20
32.005
 11
49
 21
33.25
  0
LINE
  8
0
 10
49
 20
33.25
 11
51.3
 21
33.25
  0
LINE
  8
0
 10
51.3
 20
33.25
 11
51.3
 21
32.005
  0
LINE
  8
0
 10
51.3
 20
32.005
 11
55
 21
32.005
  0
LINE
  8
0
 10
55
 20
32.005
 11
55
 21
29.105
  0
LINE
  8
0
 10
55
 20
29.105
 11
51.3
 21
29.105
  0
LINE
  8
0
 10
51.3
 20
29.105
 11
51.3
 21
27.75
  0
LINE
  8
0
 10
51.3
 20
27.75
 11
49
 21
27.75
  0
LINE
  8
0
 10
49
 20
27.75
 11
49
 21
29.105
  0
LINE
  8
0
 10
49
 20
29.105
 11
46.72
 21
29.105
  0
LINE
  8
0
 10
46.72
 20
29.105
 11
46.72
 21
24.29
  0
LINE
  8
0
 10
46.72
 20
24.29
 11
44
 21
24.29
  0
LINE
  8
0
 10
44
 20
24.29
 11
44
 21
12.31
  0
LINE
  8
0
 10
44
 20
12.31
 11
46.72
 21
12.31
  0
LINE
  8
0
 10
46.72
 20
12.31
 11
46.72
 21
0
  0
LINE
  8
0
 10
46.72
 20
0
 11
65.28
 21
0
  0
LINE
  8
0
 10
65.28
 20
0
 11
65.28
 21
12.31
  0
LINE
  8
0
 10
51.0689
 20
52.1733
 11
50.68
 21
52.3714
  0
LINE
  8
0
 10
50.68
 20
52.3714
 11
50.3714
 21
52.68
  0
LINE
  8
0
 10
50.3714
 20
52.68
 11
50.1733
 21
53.0689
  0
LINE
  8
0
 10
50.1733
 20
53.0689
 11
50.105
 21
53.5
  0
LINE
  8
0
 10
50.105
 20
53.5
 11
50.1733
 21
53.9311
  0
LINE
  8
0
 10
50.1733
 20
53.9311
 11
50.3714
 21
54.32
  0
LINE
  8
0
 10
50.3714
 20
54.32
 11
50.68
 21
54.6286
  0
LINE
  8
0
 10
50.68
 20
54.6286
 11
51.0689
 21
54.8267
  0
LINE
  8
0
 10
51.0689
 20
54.8267
 11
51.5
 21
54.895
  0
LINE
  8
0
 10
51.5
 20
54.895
 11
51.9311
 21
54.8267
  0
LINE
  8
0
 10
51.9311
 20
54.8267
 11
52.32
 21
54.6286
  0
LINE
  8
0
 10
52.32
 20
54.6286
 11
52.6286
 21
54.32
  0
LINE
  8
0
 10
52.6286
 20
54.32
 11
52.8267
 21
53.9311
  0
LINE
  8
0
 10
52.8267
 20
53.9311
 11
52.895
 21
53.5
  0
LINE
  8
0
 10
52.895
 20
53.5
 11
52.8267
 21
53.0689
  0
LINE
  8
0
 10
52.8267
 20
53.0689
 11
52.6286
 21
52.68
  0
LINE
  8
0
 10
52.6286
 20
52.68
 11
52.32
 21
52.3714
  0
LINE
  8
0
 10
52.32
 20
52.3714
 11
51.9311
 21
52.1733
  0
LINE
  8
0
 10
51.9311
 20
52.1733
 11
51.5
 21
52.105
  0
LINE
  8
0
 10
51.5
 20
52.105
 11
51.0689
 21
52.1733
  0
LINE
  8
0
 10
51.0689
 20
6.17326
 11
50.68
 21
6.37141
  0
LINE
  8
0
 10
50.68
 20
6.37141
 11
50.3714
 21
6.68004
  0
LINE
  8
0
 10
50.3714
 20
6.68004
 11
50.1733
 21
7.06891
  0
LINE
  8
0
 10
50.1733
 20
7.06891
 11
50.105
 21
7.5
  0
LINE
  8
0
 10
50.105
 20
7.5
 11
50.1733
 21
7.93108
  0
LINE
  8
0
 10
50.1733
 20
7.93108
 11
50.3714
 21
8.31995
  0
LINE
  8
0
 10
50.3714
 20
8.31995
 11
50.68
 21
8.62857
  0
LINE
  8
0
 10
50.68
 20
8.62857
 11
51.0689
 21
8.82672
  0
LINE
  8
0
 10
51.0689
 20
8.82672
 11
51.5
 21
8.89499
  0
LINE
  8
0
 10
51.5
 20
8.89499
 11
51.9311
 21
8.82672
  0
LINE
  8
0
 10
51.9311
 20
8.82672
 11
52.32
 21
8.62857
  0
LINE
  8
0
 10
52.32
 20
8.62857
 11
52.6286
 21
8.31995
  0
LINE
  8
0
 10
52.6286
 20
8.31995
 11
52.8267
 21
7.93108
  0
LINE
  8
0
 10
52.8267
 20
7.93108
 11
52.895
 21
7.5
  0
LINE
  8
0
 10
52.895
 20
7.5
 11
52.8267
 21
7.06891
  0
LINE
  8
0
 10
52.8267
 20
7.06891
 11
52.6286
 21
6.68004
  0
LINE
  8
0
 10
52.6286
 20
6.68004
 11
52.32
 21
6.37141
  0
LINE
  8
0
 10
52.32
 20
6.37141
 11
51.9311
 21
6.17326
  0
LINE
  8
0
 10
51.9311
 20
6.17326
 11
51.5
 21
6.105
  0
LINE
  8
0
 10
51.5
 20
6.105
 11
51.0689
 21
6.17326
  0
LINE
  8
0
 10
157
 20
12.2
 11
154.5
 21
12.2
  0
LINE
  8
0
 10
154.5
 20
12.2
 11
154.5
 21
24.4
  0
LINE
  8
0
 10
154.5
 20
24.4
 11
157
 21
24.4
  0
LINE
  8
0
 10
157
 20
24.4
 11
157
 21
36.6
  0
LINE
  8
0
 10
157
 20
36.6
 11
154.5
 21
36.6
  0
LINE
  8
0
 10
154.5
 20
36.6
 11
154.5
 21
48.8
  0
LINE
  8
0
 10
154.5
 20
48.8
 11
157
 21
48.8
  0
LINE
  8
0
 10
157
 20
48.8
 11
157
 21
61
  0
LINE
  8
0
 10
157
 20
61
 11
113
 21
61
  0
LINE
  8
0
 10
113
 20
61
 11
113
 21
48.8
  0
LINE
  8
0
 10
113
 20
48.8
 11
115.72
 21
48.8
  0
LINE
  8
0
 10
115.72
 20
48.8
 11
115.72
 21
36.6
  0
LINE
  8
0
 10
115.72
 20
36.6
 11
113
 21
36.6
  0
LINE
  8
0
 10
113
 20
36.6
 11
113
 21
24.4
  0
LINE
  8
0
 10
113
 20
24.4
 11
115.72
 21
24.4
  0
LINE
  8
0
 10
115.72
 20
24.4
 11
115.72
 21
12.2
  0
LINE
  8
0
 10
115.72
 20
12.2
 11
113
 21
12.2
  0
LINE
  8
0
 10
113
 20
12.2
 11
113
 21
0
  0
LINE
  8
0
 10
113
 20
0
 11
157
 21
0
  0
LINE
  8
0
 10
157
 20
0
 11
157
 21
12.2
  0
LINE
  8
0
 10
123.991
 20
8.15039
 11
122.965
 21
8.33203
  0
LINE
  8
0
 10
122.965
 20
8.33203
 11
122.949
 21
8.33789
  0
LINE
  8
0
 10
122.949
 20
8.33789
 11
122.047
 21
8.8584
  0
LINE
  8
0
 10
122.047
 20
8.8584
 11
122.033
 21
8.87012
  0
LINE
  8
0
 10
122.033
 20
8.87012
 11
121.363
 21
9.66797
  0
LINE
  8
0
 10
121.363
 20
9.66797
 11
121.354
 21
9.68262
  0
LINE
  8
0
 10
121.354
 20
9.68262
 11
120.997
 21
10.668
  0
LINE
  8
0
 10
120.997
 20
10.668
 11
120.95
 21
11.1953
  0
LINE
  8
0
 10
120.95
 20
11.1953
 11
120.95
 21
46.4043
  0
LINE
  8
0
 10
120.95
 20
46.4043
 11
120.953
 21
46.417
  0
LINE
  8
0
 10
120.953
 20
46.417
 11
120.962
 21
46.4326
  0
LINE
  8
0
 10
120.962
 20
46.4326
 11
127.564
 21
53.0352
  0
LINE
  8
0
 10
127.564
 20
53.0352
 11
127.583
 21
53.0469
  0
LINE
  8
0
 10
127.583
 20
53.0469
 11
127.596
 21
53.0498
  0
LINE
  8
0
 10
127.596
 20
53.0498
 11
141.404
 21
53.0498
  0
LINE
  8
0
 10
141.404
 20
53.0498
 11
141.417
 21
53.0469
  0
LINE
  8
0
 10
141.417
 20
53.0469
 11
141.427
 21
53.042
  0
LINE
  8
0
 10
141.427
 20
53.042
 11
148.035
 21
46.4355
  0
LINE
  8
0
 10
148.035
 20
46.4355
 11
148.047
 21
46.417
  0
LINE
  8
0
 10
148.047
 20
46.417
 11
148.05
 21
46.4043
  0
LINE
  8
0
 10
148.05
 20
46.4043
 11
148.05
 21
11.2002
  0
LINE
  8
0
 10
148.05
 20
11.2002
 11
147.868
 21
10.165
  0
LINE
  8
0
 10
147.868
 20
10.165
 11
147.862
 21
10.1484
  0
LINE
  8
0
 10
147.862
 20
10.1484
 11
147.342
 21
9.24707
  0
LINE
  8
0
 10
147.342
 20
9.24707
 11
147.33
 21
9.2334
  0
LINE
  8
0
 10
147.33
 20
9.2334
 11
146.532
 21
8.56348
  0
LINE
  8
0
 10
146.532
 20
8.56348
 11
146.518
 21
8.55469
  0
LINE
  8
0
 10
146.518
 20
8.55469
 11
145.538
 21
8.19824
  0
LINE
  8
0
 10
145.538
 20
8.19824
 11
145.525
 21
8.19531
  0
LINE
  8
0
 10
145.525
 20
8.19531
 11
145.005
 21
8.15039
  0
LINE
  8
0
 10
145.005
 20
8.15039
 11
123.991
 21
8.15039
  0
ENDSEC
  0
SECTION
  2
OBJECTS
  0
DICTIONARY
  0
ENDSEC
  0
EOF
